<?xml version="1.0" encoding="UTF-8" standalone="no"?>
<!-- Created with Inkscape (http://www.inkscape.org/) -->

<svg
   width="210mm"
   height="297mm"
   viewBox="0 0 210 297"
   version="1.1"
   id="svg1"
   xml:space="preserve"
   sodipodi:docname="biblio_word.svg"
   inkscape:version="1.4 (86a8ad7, 2024-10-11)"
   xmlns:inkscape="http://www.inkscape.org/namespaces/inkscape"
   xmlns:sodipodi="http://sodipodi.sourceforge.net/DTD/sodipodi-0.dtd"
   xmlns="http://www.w3.org/2000/svg"
   xmlns:svg="http://www.w3.org/2000/svg"><sodipodi:namedview
     id="namedview1"
     pagecolor="#ffffff"
     bordercolor="#000000"
     borderopacity="0.25"
     inkscape:showpageshadow="2"
     inkscape:pageopacity="0.0"
     inkscape:pagecheckerboard="0"
     inkscape:deskcolor="#d1d1d1"
     inkscape:document-units="mm"
     inkscape:zoom="0.49264169"
     inkscape:cx="447.58696"
     inkscape:cy="784.54586"
     inkscape:window-width="1366"
     inkscape:window-height="705"
     inkscape:window-x="-8"
     inkscape:window-y="-8"
     inkscape:window-maximized="1"
     inkscape:current-layer="layer1" /><defs
     id="defs1"><inkscape:path-effect
       effect="powerclip"
       message=""
       id="path-effect6"
       is_visible="true"
       lpeversion="1"
       inverse="true"
       flatten="false"
       hide_clip="false" /><inkscape:path-effect
       effect="spiro"
       id="path-effect5"
       is_visible="true"
       lpeversion="1" /><clipPath
       clipPathUnits="userSpaceOnUse"
       id="clipPath1"><rect
         style="fill:#ffffff;stroke:#ffffff;stroke-width:1.34938;stroke-linecap:round;stroke-opacity:0.221805"
         id="rect2"
         width="188.9447"
         height="95.096931"
         x="-293.55927"
         y="-175.07222" /></clipPath><clipPath
       clipPathUnits="userSpaceOnUse"
       id="clipPath3"><rect
         style="fill:#ffffff;stroke:#ffffff;stroke-width:1.34938;stroke-linecap:round;stroke-opacity:0.221805"
         id="rect4"
         width="181.90802"
         height="93.042717"
         x="303.81299"
         y="-2.6583633" /></clipPath><clipPath
       clipPathUnits="userSpaceOnUse"
       id="clipPath6"><path
         style="display:none;fill:#ffffff;stroke:#ffffff;stroke-width:1.34938;stroke-linecap:round;stroke-opacity:0.221805"
         d="m 73.08906,164.25678 c -12.537596,0.57228 -1.176147,16.38798 -1.740485,24.58197 -0.564337,8.19398 0.854475,2.04124 1.281711,3.08559 0.427238,1.04436 2.50013,-0.12658 3.750193,-0.18988 1.250064,-0.0633 4.335664,-0.0316 6.456024,-0.0475 2.120363,-0.0158 3.576132,0 5.364199,0 1.788065,0 28.324228,-0.0633 42.533818,-0.0949 14.20958,-0.0317 1.58235,-0.69624 2.37354,-1.04436 0.79117,-0.34812 0.79117,-1.076 1.23423,-1.51906 0.44306,-0.44306 0.79119,-2.08871 1.1393,-3.22801 0.34812,-1.1393 -0.94941,-8.35486 -1.42412,-12.53229 -0.47471,-4.17743 -15.57041,-7.15226 -23.35562,-10.72839 -7.78521,-3.57613 -25.075194,1.14456 -37.61279,1.71684 z"
         id="path6"
         inkscape:original-d="m 73.08906,164.25678 c -12.537596,0.57228 -1.176147,16.38798 -1.740485,24.58197 -0.564337,8.19398 0.854475,2.04124 1.281711,3.08559 0.427238,1.04436 2.50013,-0.12658 3.750193,-0.18988 1.250064,-0.0633 4.335664,-0.0316 6.456024,-0.0475 2.120363,-0.0158 3.576132,0 5.364199,0 1.788065,0 28.324228,-0.0633 42.533818,-0.0949 14.20958,-0.0317 1.58235,-0.69624 2.37354,-1.04436 0.79117,-0.34812 0.79117,-1.076 1.23423,-1.51906 0.44306,-0.44306 0.79119,-2.08871 1.1393,-3.22801 0.34812,-1.1393 -0.94941,-8.35486 -1.42412,-12.53229 -0.47471,-4.17743 -15.57041,-7.15226 -23.35562,-10.72839 -7.78521,-3.57613 -25.075194,1.14456 -37.61279,1.71684 z"
         inkscape:path-effect="#path-effect5" /><path
         id="lpe_path-effect6"
         style="fill:#ffffff;stroke:#ffffff;stroke-width:1.34938;stroke-linecap:round;stroke-opacity:0.221805"
         class="powerclip"
         d="M 7.153012,163.14751 H 202.36134 V 302.79333 H 7.153012 Z m 65.936048,1.10927 c -12.537596,0.57228 -1.176147,16.38798 -1.740485,24.58197 -0.564337,8.19398 0.854475,2.04124 1.281711,3.08559 0.427238,1.04436 2.50013,-0.12658 3.750193,-0.18988 1.250064,-0.0633 4.335664,-0.0316 6.456024,-0.0475 2.120363,-0.0158 3.576132,0 5.364199,0 1.788065,0 28.324228,-0.0633 42.533818,-0.0949 14.20958,-0.0317 1.58235,-0.69624 2.37354,-1.04436 0.79117,-0.34812 0.79117,-1.076 1.23423,-1.51906 0.44306,-0.44306 0.79119,-2.08871 1.1393,-3.22801 0.34812,-1.1393 -0.94941,-8.35486 -1.42412,-12.53229 -0.47471,-4.17743 -15.57041,-7.15226 -23.35562,-10.72839 -7.78521,-3.57613 -25.075194,1.14456 -37.61279,1.71684 z" /></clipPath></defs><g
     inkscape:label="Capa 1"
     inkscape:groupmode="layer"
     id="layer1"><rect
       style="fill:#ffffff;fill-opacity:1;stroke:none;stroke-width:1.34938;stroke-linecap:round;stroke-opacity:0.221805"
       id="rect8"
       width="171.86256"
       height="117.08137"
       x="31.68716"
       y="168.10307" /><path
       style="fill:#000400;fill-opacity:1;stroke:none;stroke-opacity:0.22180499"
       d="m 12.153012,232.97042 v -64.82291 h 92.604168 92.60416 v 64.82291 64.82291 H 104.75718 12.153012 Z M 139.2853,280.19854 v -5.29166 l -3.9026,-0.0732 -3.90261,-0.0732 -9e-5,-2.70491 -1e-4,-2.7049 h 11.37703 11.37702 l 1.6e-4,2.7049 1.5e-4,2.70491 -3.90261,0.0732 -3.9026,0.0732 v 5.29166 5.29167 l 8.27372,0.0699 8.27372,0.0699 -0.0716,-5.36159 -0.0716,-5.36159 -3.90261,-0.0732 -3.9026,-0.0732 -6e-5,-2.70491 -6e-5,-2.7049 h 11.37706 11.37707 l 8e-5,2.7049 7e-5,2.70491 -3.9026,0.0732 -3.9026,0.0732 v 5.29166 5.29167 h 8.20208 8.20208 v -5.29167 -5.29166 l -3.9026,-0.0732 -3.90261,-0.0732 v -3.03564 -3.03563 h -11.77395 -11.77396 v -2.37418 -2.37417 l 3.9026,-0.0732 3.90261,-0.0732 v -5.29167 -5.29167 h -8.20209 -8.20208 v 5.29167 5.29167 l 3.9026,0.0732 3.90261,0.0732 v 2.37417 2.37418 H 142.4603 130.68634 v 3.03563 3.03564 l -3.9026,0.0732 -3.90261,0.0732 -0.0722,5.01893 c -0.0397,2.76042 -0.013,5.17316 0.0593,5.36165 0.10453,0.27241 1.80184,0.32835 8.27428,0.27273 l 8.14277,-0.07 z m -15.74271,3.42502 v -1.20519 l 1.19063,1.11594 c 0.65484,0.61377 1.19062,1.15611 1.19062,1.20519 0,0.0491 -0.53578,0.0892 -1.19062,0.0892 h -1.19063 z m 1.75527,-0.56741 -1.75527,-1.7726 v -1.72931 -1.72931 l 3.43959,3.43195 c 1.89177,1.88757 3.43958,3.46343 3.43958,3.50191 0,0.0385 -0.75794,0.07 -1.68432,0.07 h -1.68432 z m 2.27643,-2.2654 c -4.49376,-4.50078 -4.89677,-5.22241 -2.91653,-5.22241 1.09064,0 1.21758,0.10184 5.77137,4.6302 l 4.6562,4.63021 h -1.73967 -1.73968 z m 3.92465,-0.60611 -4.61136,-4.6163 h 1.83644 1.83643 l 4.0317,4.03799 c 4.57291,4.58007 4.92037,5.23225 2.77492,5.20852 l -1.25677,-0.0139 z m 15.59157,-10e-4 v -4.64542 l 1.12448,0.0814 c 0.61846,0.0447 1.09471,0.17065 1.05833,0.27979 -0.0364,0.10915 -0.0661,2.16297 -0.0661,4.56407 v 4.36562 h -1.05834 -1.05833 z m 2.91042,0.0152 v -4.6302 h 1.32291 1.32292 v 4.6302 4.63021 h -1.32292 -1.32291 z m 3.43958,0 v -4.6302 h 1.19062 1.19063 v 4.6302 4.63021 h -1.19063 -1.19062 z m 3.175,0 v -4.6302 h 1.32291 1.32292 v 4.6302 4.63021 h -1.32292 -1.32291 z m 3.35903,0.0662 0.0517,-4.56408 1.07274,-0.0814 1.07275,-0.0814 v 4.64542 4.64542 l -1.12448,2e-5 -1.12448,2e-5 z m 10.66388,4.03488 c 0,-0.51679 0.17639,-0.52917 7.54063,-0.52917 7.36424,0 7.54062,0.0124 7.54062,0.52917 0,0.51678 -0.17638,0.52916 -7.54062,0.52916 -7.36424,0 -7.54063,-0.0124 -7.54063,-0.52916 z m 0,-1.98438 v -0.66146 h 7.54063 7.54062 v 0.66146 0.66146 h -7.54062 -7.54063 z m -35.52031,-3.1616 c -1.85539,-1.8844 -3.37343,-3.46198 -3.37343,-3.50573 0,-0.0437 0.74733,-0.0795 1.66074,-0.0795 h 1.66074 l 1.79198,1.80582 1.79199,1.80582 -0.0793,1.69991 -0.0793,1.6999 z m 35.52031,1.04493 v -0.66145 h 7.54063 7.54062 v 0.66145 0.66146 h -7.54062 -7.54063 z m 0,-2.11666 v -0.66146 h 7.54063 7.54062 v 0.66146 0.66146 h -7.54062 -7.54063 z m -33.33749,-1.32292 -1.16851,-1.19062 h 1.24571 1.24571 v 1.19062 c 0,0.65484 -0.0347,1.19063 -0.0772,1.19063 -0.0425,0 -0.60303,-0.53579 -1.24571,-1.19063 z m 33.33749,-0.66146 c 0,-0.51679 0.17639,-0.52916 7.54063,-0.52916 7.36424,0 7.54062,0.0124 7.54062,0.52916 0,0.51679 -0.17638,0.52917 -7.54062,0.52917 -7.36424,0 -7.54063,-0.0124 -7.54063,-0.52917 z m -23.54791,-17.59512 v -4.63021 h 7.54062 7.54063 v 4.63021 4.63021 h -7.54063 -7.54062 z m 10.65361,0.19446 c 1.7076,-1.71205 3.10472,-3.20033 3.10472,-3.30729 0,-0.61581 -0.97188,0.12333 -3.57434,2.71842 l -2.92117,2.91287 -1.43956,-1.45766 c -1.45811,-1.47646 -1.85451,-1.71898 -1.85451,-1.13462 0,0.39533 2.91693,3.38111 3.30314,3.38111 0.15235,0 1.67413,-1.40077 3.38172,-3.11283 z m -72.56611,25.87389 c 0,-0.15272 -1.640935,-0.28744 -4.028208,-0.33073 l -4.028209,-0.073 -1.000242,-1.71979 -1.000242,-1.71979 2.666094,-0.0756 c 1.946516,-0.0552 2.637413,-0.16232 2.559828,-0.39687 -0.07084,-0.21418 -1.059922,-0.36537 -2.967081,-0.45356 l -2.860815,-0.13229 -2.238333,-3.90261 -2.238333,-3.9026 H 50.778189 31.513908 l -1.18629,2.05052 c -0.65246,1.12779 -2.270225,3.92387 -3.595032,6.21352 -1.324807,2.28965 -2.408741,4.28395 -2.408741,4.43177 0,0.18041 10.002831,0.26877 30.427083,0.26877 19.565866,0 30.427082,-0.092 30.427082,-0.25769 z m -59.678269,-0.72537 c 0.0958,-0.24965 1.283656,-2.36301 2.639685,-4.69636 1.35603,-2.33335 2.748904,-4.74818 3.095276,-5.36628 l 0.629768,-1.12383 18.913372,0.0655 18.913373,0.0655 3.233711,5.55625 c 1.778541,3.05594 3.239008,5.64555 3.245481,5.75469 0.0065,0.10914 -11.430968,0.19844 -25.416537,0.19844 -23.914054,0 -25.417934,-0.027 -25.254129,-0.4539 z m 9.956957,-3.4945 c 0.619685,-0.61969 0.773397,-1.00403 0.773397,-1.93381 0,-1.23148 -0.261827,-1.71178 -1.315642,-2.41346 -1.905564,-1.26881 -4.536379,0.66525 -4.070883,2.99273 0.407525,2.03762 3.130503,2.83716 4.613128,1.35454 z m -3.440733,-0.71749 c -0.727437,-0.92479 -0.692606,-1.82851 0.101062,-2.62218 1.927852,-1.92785 4.65301,0.80319 2.850141,2.85629 -0.65316,0.74382 -2.283706,0.61447 -2.951203,-0.23411 z m 10.319899,0.71749 c 0.622079,-0.62208 0.773397,-1.00277 0.773397,-1.94574 0,-2.97555 -3.847436,-3.84466 -5.122724,-1.15719 -1.30513,2.75036 2.200724,5.25153 4.349327,3.10293 z m -2.595787,-0.0461 c -0.710957,-0.263 -1.393315,-1.25694 -1.393315,-2.02954 0,-0.33803 0.292244,-0.90686 0.649431,-1.26404 1.308743,-1.30875 3.425152,-0.51308 3.425152,1.28769 0,1.53421 -1.309032,2.51351 -2.681268,2.00589 z m 9.474953,0.0461 c 0.622586,-0.62259 0.773398,-1.0025 0.773398,-1.9483 0,-2.96382 -4.040657,-3.83304 -5.176894,-1.11364 -1.163442,2.78451 2.283866,5.18157 4.403496,3.06194 z m -3.429919,-0.70375 c -0.737778,-0.93793 -0.706936,-1.83874 0.09025,-2.63592 1.20262,-1.20262 3.049545,-0.62579 3.479343,1.08666 0.457091,1.82119 -2.385304,3.05484 -3.569593,1.54926 z m 10.309086,0.70375 c 0.6208,-0.6208 0.771737,-0.99928 0.764983,-1.91823 -0.009,-1.22162 -0.265924,-1.69605 -1.307228,-2.41375 -1.883931,-1.29844 -4.537846,0.64262 -4.070883,2.97744 0.407525,2.03762 3.130504,2.83716 4.613128,1.35454 z m -2.330185,0.0365 c -0.751461,-0.11749 -1.658917,-1.26017 -1.658917,-2.08892 0,-1.5321 2.195912,-2.48122 3.409474,-1.47364 1.637604,1.35963 0.390641,3.89733 -1.750557,3.56256 z m 9.209351,-0.0365 c 0.605887,-0.60589 0.773398,-1.0108 0.773398,-1.86948 0,-0.60284 -0.122592,-1.32514 -0.272427,-1.60511 -0.334006,-0.6241 -1.604521,-1.30861 -2.426413,-1.30728 -1.066489,0.002 -2.272171,0.94435 -2.565161,2.00548 -0.762932,2.76311 2.491671,4.77532 4.490603,2.77639 z m -2.579159,-0.0399 c -0.725736,-0.26847 -1.409943,-1.25633 -1.409943,-2.03569 0,-0.85894 1.132395,-1.91347 2.05475,-1.91347 0.891159,0 1.838615,0.79814 2.077552,1.75014 0.331341,1.32017 -1.374112,2.69777 -2.722359,2.19902 z m 9.458326,0.0399 c 1.958288,-1.95829 0.107991,-5.33728 -2.556445,-4.66854 -0.879622,0.22077 -1.864371,1.28609 -2.040502,2.20747 -0.492821,2.57802 2.746014,4.312 4.596947,2.46107 z m -2.595787,-0.0461 c -0.710957,-0.263 -1.393316,-1.25694 -1.393316,-2.02954 0,-1.51142 2.205806,-2.44981 3.409475,-1.45045 1.725524,1.43263 0.08834,4.25849 -2.016159,3.47999 z m 32.153093,1.61324 0.07662,-1.7198 3.495254,0.0379 3.49526,0.0379 0.62673,1.21046 c 0.45313,0.87516 0.93433,1.35936 1.73718,1.74801 1.39905,0.67727 2.07823,0.6758 3.48977,-0.008 2.27596,-1.10177 2.8161,-4.00807 1.10674,-5.95493 -1.97476,-2.24912 -5.57535,-1.47555 -6.58275,1.41428 l -0.29715,0.85239 h -3.5339 -3.533901 l -0.07823,-1.78594 -0.07823,-1.78594 H 95.49676 91.660302 l -0.07419,3.55853 c -0.04081,1.95719 -0.01352,3.71664 0.06064,3.9099 0.105251,0.27428 0.9633,0.33526 3.910651,0.27793 l 3.775816,-0.0734 z m -7.088076,-2.11667 v -3.175 h 3.175 3.175 v 3.175 3.175 h -3.175 -3.175 z m 16.73019,2.84998 c -0.33001,-0.15907 -0.85064,-0.69472 -1.15695,-1.19035 -0.77102,-1.24754 -0.5535,-2.77857 0.55181,-3.88388 0.69494,-0.69494 1.01657,-0.81846 2.1312,-0.81846 1.11463,0 1.43626,0.12352 2.1312,0.81846 2.07051,2.07051 0.68582,5.44253 -2.2098,5.38134 -0.46609,-0.01 -1.11745,-0.14805 -1.44746,-0.30711 z m -5.9e-4,-12.00539 c 4.72032,-0.89543 9.64246,-2.90911 13.66294,-5.58961 2.94821,-1.9656 7.66323,-6.67943 9.62618,-9.62373 1.61945,-2.42909 3.49523,-6.21909 4.38998,-8.86996 2.32617,-6.89169 2.32844,-15.73281 0.006,-22.71329 -0.76211,-2.29048 -2.88383,-6.62396 -4.14898,-8.47404 l -1.08559,-1.5875 3.29329,-3.3028 3.29329,-3.30281 1.66395,1.64916 c 0.91518,0.90704 1.80958,1.64916 1.98756,1.64916 0.24629,0 0.32362,-1.5489 0.32362,-6.48229 v -6.48229 h -6.4823 c -4.93339,0 -6.48229,0.0773 -6.48229,0.32361 0,0.17798 0.74211,1.07238 1.64914,1.98753 l 1.64913,1.66393 -3.21075,3.21076 -3.21076,3.21075 -1.15036,-0.92531 c -4.45187,-3.58098 -9.96143,-6.07835 -16.00036,-7.25264 -3.06605,-0.59621 -9.126512,-0.60276 -12.437979,-0.0134 -17.73432,3.15604 -30.49642,18.83872 -29.856055,36.68855 0.715054,19.93177 17.45317,35.55533 37.248404,34.76812 1.71772,-0.0683 4.09017,-0.30765 5.27211,-0.53186 z m -9.519704,-0.28024 c -0.258119,-0.10415 -0.330729,-2.91422 -0.330729,-12.79947 v -12.66602 l -4.394774,-4.37515 c -2.417125,-2.40633 -4.500718,-4.30967 -4.630208,-4.22964 -0.133283,0.0824 -0.235435,7.01968 -0.235435,15.98883 v 15.84332 l -1.124479,-0.38785 c -0.618464,-0.21332 -2.13651,-0.95373 -3.373437,-1.64535 l -2.248959,-1.2575 -0.06887,-11.83234 c -0.05379,-9.24156 -0.141158,-11.83233 -0.399017,-11.83233 -0.181581,0 -2.204418,1.8872 -4.495193,4.19377 l -4.165045,4.19378 v 3.25024 c 0,3.22485 -0.0039,3.2453 -0.495497,2.61924 -0.272523,-0.34705 -1.163463,-1.81722 -1.979868,-3.26706 l -1.484371,-2.63605 0.697439,-0.72797 c 0.383591,-0.40039 0.816678,-0.65428 0.962415,-0.56421 0.145737,0.0901 0.191979,0.0456 0.102762,-0.0987 -0.212355,-0.3436 1.76554,-2.27317 2.057768,-2.00749 0.123305,0.1121 0.150502,0.0743 0.06044,-0.0839 -0.208124,-0.3657 1.755107,-2.30652 2.056229,-2.03275 0.123305,0.1121 0.150501,0.0743 0.06044,-0.0839 -0.208123,-0.3657 1.755108,-2.30652 2.05623,-2.03276 0.123304,0.1121 0.150501,0.0743 0.06044,-0.0839 -0.183291,-0.32206 1.728701,-2.31484 2.01381,-2.0989 0.09997,0.0757 0.119817,0.0559 0.0441,-0.0441 -0.208845,-0.27573 1.772541,-2.20143 2.073633,-2.01534 0.144357,0.0892 0.189472,0.0441 0.100254,-0.10026 -0.212355,-0.3436 1.76554,-2.27316 2.057768,-2.00749 0.123305,0.11211 0.150502,0.0743 0.06044,-0.0839 -0.208124,-0.36569 1.755107,-2.30651 2.056229,-2.03275 0.123305,0.1121 0.150918,0.075 0.06136,-0.0824 -0.08956,-0.15743 0.403037,-0.84359 1.094648,-1.5248 l 1.257476,-1.23857 6.412137,6.41012 6.412138,6.41011 14.56357,-14.5426 14.56357,-14.54261 0.44295,0.62843 c 0.24363,0.34564 1.06229,1.70033 1.81925,3.01044 4.7936,8.29646 5.83532,18.61289 2.83858,28.11114 -0.79427,2.51745 -2.91664,6.92397 -4.21327,8.74771 l -0.92764,1.30476 v -18.45386 c 0,-14.67812 -0.0683,-18.45384 -0.33383,-18.45384 -0.18361,0 -2.20767,1.87659 -4.49792,4.1702 l -4.16409,4.17019 v 18.56481 18.56482 l -1.57086,0.95424 c -1.4157,0.86 -4.82403,2.52365 -5.1702,2.52365 -0.076,0 -0.1381,-7.4414 -0.1381,-16.53646 0,-13.1347 -0.0687,-16.53645 -0.33383,-16.53645 -0.18361,0 -2.20767,1.87659 -4.49792,4.1702 l -4.16409,4.17019 v 13.39374 13.39373 l -0.59531,0.15954 c -0.70805,0.18975 -5.47871,0.18296 -5.953125,-0.008 z m -32.170601,-31.7488 c -0.09402,-0.99568 -0.171795,-2.64478 -0.17283,-3.66467 l -0.0019,-1.85434 5.820833,-5.81632 c 3.201459,-3.19898 5.820833,-5.90663 5.820833,-6.01701 0,-0.68071 -1.236864,0.37892 -6.016907,5.1547 -5.86818,5.86294 -5.689466,5.78684 -4.950585,2.10793 3.916951,-19.50265 23.056688,-32.06771 42.226591,-27.72136 5.07956,1.15168 10.11265,3.48846 13.87667,6.44271 l 1.49944,1.17686 -11.74046,11.74268 -11.74046,11.74268 -1.983919,-1.98392 -1.98392,-1.98392 6.468179,-6.47222 c 5.84325,-5.84691 7.34389,-7.5871 5.50189,-6.38017 -0.35166,0.23042 -0.73827,0.32923 -0.85912,0.21957 -0.12086,-0.10965 -0.13829,-0.0573 -0.0388,0.11627 0.2316,0.40386 -1.6128,2.27293 -2.00422,2.03102 -0.16912,-0.10452 -0.21543,-0.0582 -0.1109,0.11091 0.23419,0.37893 -1.62683,2.23995 -2.00576,2.00576 -0.16912,-0.10453 -0.21543,-0.0582 -0.11091,0.11091 0.23419,0.37892 -1.62683,2.23994 -2.00576,2.00575 -0.16912,-0.10452 -0.21543,-0.0582 -0.11091,0.11091 0.23419,0.37893 -1.62683,2.23995 -2.00576,2.00576 -0.16645,-0.10288 -0.21561,-0.0585 -0.11518,0.10399 0.0964,0.15589 -0.54901,1.02584 -1.434123,1.93322 l -1.609301,1.64978 -2.098137,-2.08583 -2.098138,-2.08583 3.337475,-3.3449 c 2.234544,-2.23952 3.230958,-3.41073 3.015156,-3.5441 -0.207566,-0.12829 -1.488971,0.96464 -3.599221,3.06983 l -3.276902,3.26903 -1.794148,-1.7804 c -0.986782,-0.97922 -1.909678,-1.7804 -2.050881,-1.7804 -0.141204,0 -5.031302,4.77348 -10.866885,10.60773 l -10.610082,10.60772 z m 1.10146,30.77574 c -0.04705,-0.19501 -1.570573,-2.93345 -3.385607,-6.08542 l -3.30006,-5.73086 H 50.76314 39.749432 l -3.347169,5.81364 c -1.840942,3.1975 -3.347168,5.93594 -3.347168,6.08542 0,0.18327 5.778769,0.27177 17.746483,0.27177 14.699394,0 17.731795,-0.0609 17.660937,-0.35455 z m -33.670283,-1.69597 c 0.398225,-0.69122 1.078742,-1.89394 1.51226,-2.67271 l 0.788215,-1.41594 2.611402,2.6016 c 1.436272,1.43088 2.611402,2.6336 2.611402,2.67271 0,0.0391 -1.855647,0.0711 -4.123662,0.0711 h -4.123662 z m 5.705863,-1.75117 -2.99941,-3.00794 1.240945,-2.15144 c 0.68252,-1.18328 1.302328,-2.15143 1.377351,-2.15143 0.07502,0 2.453153,2.32172 5.284731,5.15938 l 5.148325,5.15937 h -3.526266 -3.526266 z m 5.521583,-2.41602 -5.419118,-5.42395 h 3.556447 3.556447 l 5.436966,5.42221 5.436966,5.42221 -3.574295,0.002 -3.574295,0.002 z m 8.202083,0 -5.419117,-5.42395 h 3.439583 3.439583 l 5.419118,5.42395 5.419117,5.42396 h -3.439583 -3.439583 z m 7.672917,-0.26458 -5.154286,-5.15937 h 2.261241 2.261241 l 2.60907,4.56406 c 1.434989,2.51023 2.781463,4.83195 2.992165,5.15937 0.210702,0.32743 0.338491,0.59532 0.283974,0.59532 -0.05452,0 -2.418548,-2.32172 -5.253405,-5.15938 z m 116.681242,-4.34923 c 0,-0.32476 -3.93587,-7.10859 -4.22961,-7.29014 -0.19159,-0.11841 -4.50164,6.95488 -4.50164,7.38771 0,0.0828 1.96454,0.15062 4.36563,0.15062 2.54183,0 4.36562,-0.10369 4.36562,-0.24819 z m -7.42091,-0.78664 c 0.41785,-0.78076 2.97101,-5.18185 3.05801,-5.27134 0.0882,-0.0908 2.91799,4.62176 3.17,5.27916 0.11429,0.29817 -0.46768,0.37014 -3.15717,0.39043 -2.94439,0.0222 -3.27306,-0.0204 -3.07084,-0.39825 z M 60.152371,255.23185 c 0.107943,-0.17466 -2.247029,-4.39506 -7.696861,-13.79374 -0.716907,-1.23636 -1.475983,-2.27595 -1.686837,-2.3102 -0.442177,-0.0718 -9.611507,15.69163 -9.362198,16.09502 0.184816,0.29904 18.561188,0.30778 18.745896,0.009 z m -17.362692,-1.42549 c 0.653654,-1.0865 6.575904,-11.37212 7.311144,-12.69782 0.301985,-0.5445 0.608594,-0.98704 0.681355,-0.98341 0.07276,0.004 1.709314,2.77084 3.636786,6.14938 1.927473,3.37853 3.809455,6.6488 4.182184,7.26726 l 0.677689,1.12448 h -8.503242 -8.503242 z m 104.300831,-7.46607 v -1.4468 l 18.91183,-0.0746 18.91182,-0.0746 0.73349,-0.73362 c 0.69932,-0.69945 0.73348,-0.85146 0.73348,-3.26405 0,-2.44456 -0.0252,-2.55211 -0.74236,-3.16899 l -0.74235,-0.63855 h -18.90296 -18.90295 v -1.19062 -1.19063 h 13.73481 13.73481 l 0.68498,-0.81405 c 0.61719,-0.73348 0.68498,-1.03262 0.68498,-3.0224 0,-1.98979 -0.0678,-2.28893 -0.68498,-3.02241 l -0.68498,-0.81405 h -13.73481 -13.73481 v -1.19063 -1.19062 h 10.4124 10.41241 l 0.70009,-0.64883 c 0.66335,-0.61477 0.7001,-0.78207 0.7001,-3.18763 0,-2.40556 -0.0367,-2.57286 -0.7001,-3.18763 l -0.70009,-0.64883 h -10.41241 -10.4124 v -1.60955 c 0,-1.17007 -0.0903,-1.57943 -0.33073,-1.49925 -0.25955,0.0866 -0.33618,3.69299 -0.35605,16.75695 -0.0139,9.15565 0.0286,16.79547 0.0944,16.97737 0.2868,0.79191 0.59233,0.21622 0.59233,-1.11607 z m 0.058,-5.43652 0.0743,-3.17916 18.78542,-0.002 18.78541,-0.002 0.46302,0.56475 c 0.35332,0.43095 0.46302,1.05477 0.46302,2.63291 0,3.47257 1.94628,3.16489 -20.01986,3.16489 h -18.62559 z m -0.058,-10.11616 v -3.24114 l 13.53413,0.0617 c 12.22346,0.0557 13.58147,0.10452 14.02292,0.50402 0.40029,0.36226 0.48879,0.83864 0.48879,2.6311 0,3.55494 1.20725,3.28548 -14.72005,3.28548 h -13.32578 z m 1e-5,-10.12031 v -3.32508 l 10.30955,0.075 c 12.19365,0.0888 11.25399,-0.18261 11.25399,3.25004 0,3.43265 0.93966,3.16128 -11.25399,3.25004 l -10.30955,0.075 z M 33.241083,246.40698 c 2.298977,-0.99957 3.517451,-2.68978 3.719317,-5.15924 0.115276,-1.41019 0.03358,-1.8507 -0.573261,-3.09104 -0.784554,-1.60357 -2.390286,-2.88368 -3.994767,-3.18468 l -0.924777,-0.17349 v -2.36254 -2.36255 l 4.101642,-0.0729 c 2.509462,-0.0446 4.101641,-0.17557 4.101641,-0.33744 0,-0.16188 -1.592179,-0.29287 -4.101641,-0.33745 l -4.101642,-0.0729 v -1.3162 -1.3162 h 6.085417 c 5.23287,0 6.085416,-0.0556 6.085416,-0.39687 0,-0.34128 -0.852546,-0.39688 -6.085416,-0.39688 h -6.085417 v -1.32292 -1.32291 h 8.398994 8.398994 l 8.402047,-8.39897 8.402047,-8.39897 v 3.1073 c 0,2.61048 0.06462,3.10731 0.40414,3.10731 0.346959,0 0.393753,-0.53234 0.330729,-3.76244 l -0.07341,-3.76243 -3.151456,-0.092 c -3.251197,-0.0949 -4.389169,0.0291 -4.389169,0.47817 0,0.15554 1.2982,0.25954 3.239595,0.25954 h 3.239596 l -8.463566,8.46667 -8.463566,8.46667 h -8.534362 -8.534363 v 6.054 6.05401 l -1.212556,0.30532 c -1.659998,0.418 -3.57899,2.33687 -4.061899,4.06165 -0.826603,2.95234 0.483576,5.7773 3.29008,7.09397 1.21629,0.57062 3.456855,0.66236 4.551613,0.18636 z m -3.53568,-0.58704 c -2.607894,-0.81561 -3.937875,-2.74471 -3.743635,-5.43005 0.191501,-2.64748 2.084899,-4.53237 4.746187,-4.72487 2.76112,-0.19972 4.933653,1.4343 5.549149,4.17367 0.568968,2.53229 -1.234465,5.40673 -3.797051,6.05199 -1.447617,0.36451 -1.355352,0.36688 -2.75465,-0.0707 z m 28.525204,-11.00415 c 1.230272,-0.34172 2.739873,-1.99311 2.976884,-3.25648 0.824752,-4.39631 -5.233103,-6.94059 -7.67002,-3.22138 -1.103265,1.68379 -0.9261,3.72074 0.461023,5.30058 1.12359,1.2797 2.492439,1.66048 4.232113,1.17728 z M 55.65539,234.037 c -0.786627,-0.31823 -1.887844,-1.7105 -2.093494,-2.64682 -0.582745,-2.65323 2.522899,-5.08617 4.872484,-3.81707 1.168106,0.63093 2.137381,2.04829 2.137381,3.12546 0,2.42913 -2.674618,4.24531 -4.916371,3.33843 z m -21.745188,-28.5171 0.07093,-6.28385 h 1.101782 c 0.60598,0 1.195477,-0.0934 1.309994,-0.20756 0.231971,-0.23125 -6.469067,-7.06848 -6.927681,-7.06848 -0.469888,0 -6.784192,6.58102 -6.662861,6.9443 0.06659,0.19938 0.550556,0.32445 1.213012,0.31346 l 1.102212,-0.0183 v 6.30213 6.30214 h 4.360837 4.360836 z m -7.998857,-0.7276 v -6.21771 h -1.119967 -1.119967 l 2.901488,-2.91051 2.901488,-2.91051 2.856366,2.84436 2.856366,2.84437 -0.911022,0.0808 c -0.501063,0.0444 -0.97634,0.25098 -1.056171,0.45902 -0.07983,0.20803 -0.119812,2.99943 -0.08884,6.20311 l 0.05631,5.82486 -3.638021,-2e-5 -3.638021,-3e-5 z m 21.025074,2.79772 4.110342,-4.08145 v -6.9649 -6.96491 h 1.344965 c 0.777566,0 1.307759,-0.11142 1.256771,-0.26412 -0.161273,-0.48296 -6.615524,-7.14414 -6.926368,-7.14843 -0.400639,-0.006 -7.038796,6.95579 -6.879219,7.21411 0.06742,0.10914 0.651336,0.19844 1.297591,0.19844 h 1.17501 v 11.13455 c 0,7.03712 0.09394,11.10209 0.255283,11.04635 0.140405,-0.0485 2.104936,-1.92485 4.365625,-4.16964 z m -3.890353,-7.91183 -0.0691,-10.76089 -0.899716,-0.13229 -0.899716,-0.13229 2.734387,-2.85732 2.734388,-2.85733 2.869535,2.85733 2.869534,2.85732 -1.000039,0.13229 -1.00004,0.13229 -0.07032,7.16924 -0.07033,7.16925 -3.564746,3.59164 -3.564746,3.59164 z m 144.525694,8.02453 c 0,-0.31278 -2.15162,-2.51355 -2.45741,-2.51355 -0.40766,0 -0.15328,0.6692 0.52253,1.37459 l 0.71096,0.74208 h -2.26906 c -1.94289,0 -2.26378,-0.0625 -2.23231,-0.43454 0.0202,-0.239 -0.11208,-0.48705 -0.29398,-0.55122 -0.19609,-0.0692 -0.33073,0.10774 -0.33073,0.43455 0,0.54971 -0.03,0.55121 -10.98021,0.55121 h -10.98021 v -1.19062 c 0,-0.88195 -0.10289,-1.19063 -0.39687,-1.19063 -0.29398,0 -0.39688,0.30868 -0.39688,1.19063 v 1.19062 h -3.89918 -3.89918 l 3.83303,-3.84357 c 3.05876,-3.06716 3.85012,-3.73524 3.91759,-3.30729 0.13661,0.86652 0.84149,0.65231 0.84149,-0.25572 v -0.792 l 0.59531,0.51487 c 1.89983,1.64309 3.78744,2.862 4.06955,2.62787 0.16769,-0.13917 1.41911,-1.73338 2.78095,-3.54269 1.8149,-2.41124 2.49864,-3.15077 2.56061,-2.76952 0.11429,0.7031 0.8415,0.66615 0.8415,-0.0428 0,-0.43278 0.2905,-0.19998 1.25677,1.00714 2.65823,3.32081 3.15236,3.81862 3.43779,3.46332 0.14832,-0.18464 1.6511,-3.18738 3.3395,-6.67277 1.68841,-3.48539 3.2322,-6.42794 3.43065,-6.539 0.4006,-0.22419 0.4281,-1.68839 0.0311,-1.65473 -0.29918,0.0254 -0.87546,1.12871 -4.42831,8.4784 l -2.70186,5.58926 -2.32882,-2.87728 c -1.28084,-1.58251 -2.41194,-2.8717 -2.51354,-2.86488 -0.10159,0.007 -1.22639,1.40581 -2.49954,3.10886 -1.27315,1.70304 -2.59463,3.44525 -2.93663,3.87156 l -0.6218,0.77512 -2.34496,-1.77454 -2.34495,-1.77455 -4.44186,4.43609 -4.44185,4.43609 v -10.1693 -10.16929 l 0.92207,0.89371 c 1.22879,1.19099 1.50502,0.82206 0.37175,-0.49649 -1.31663,-1.53189 -1.69535,-1.58379 -2.90905,-0.39864 -0.93463,0.91264 -1.32393,1.69272 -0.84477,1.69272 0.10222,0 0.5487,-0.35173 0.99219,-0.78163 l 0.80635,-0.78164 v 10.63737 10.63736 l 18.50245,0.068 18.50245,0.068 -0.73813,0.77044 c -0.42283,0.44134 -0.65606,0.90321 -0.54602,1.08127 0.20795,0.33646 2.51154,-1.72928 2.51154,-2.25221 z m -17.59479,-2.46945 c 0,-1.54893 -0.51179,-1.50763 -0.61093,0.0493 -0.0615,0.9663 0.004,1.25546 0.26459,1.16858 0.21151,-0.0705 0.34634,-0.54462 0.34634,-1.21788 z m 11.92548,-0.78975 c 0.0305,-0.78073 -0.0633,-1.10643 -0.31873,-1.10643 -0.25358,0 -0.36196,0.36312 -0.36196,1.21267 0,1.56291 0.61926,1.46625 0.68069,-0.10624 z m -22.64111,-1.65764 c 0,-0.95749 -0.0953,-1.31369 -0.33073,-1.2364 -0.3542,0.11628 -0.59355,1.59498 -0.35767,2.20967 0.31595,0.82337 0.6884,0.2968 0.6884,-0.97327 z m 10.84792,-0.91961 c 0,-0.86807 -0.10368,-1.17501 -0.39688,-1.17501 -0.29172,0 -0.39687,0.30378 -0.39687,1.14653 0,0.63059 0.0761,1.22266 0.16919,1.31572 0.36587,0.36587 0.62456,-0.1673 0.62456,-1.28724 z m 11.66492,0.47863 c 0.14009,-1.19541 0.0532,-2.02455 -0.22169,-2.11641 -0.23255,-0.0777 -0.33073,0.24949 -0.33073,1.10218 0,0.66697 0.11906,1.21267 0.26458,1.21267 0.14552,0 0.27505,-0.0893 0.28784,-0.19844 z m -11.79721,-3.77031 c 0,-0.68204 -0.13399,-1.19119 -0.33073,-1.25677 -0.23614,-0.0787 -0.33073,0.28075 -0.33073,1.25677 0,0.97602 0.0946,1.33548 0.33073,1.25677 0.19674,-0.0656 0.33073,-0.57473 0.33073,-1.25677 z m 11.9019,-0.26624 c -0.003,-0.67144 -0.1398,-1.19292 -0.33073,-1.25656 -0.23071,-0.0769 -0.32638,0.29192 -0.32638,1.25822 0,0.97613 0.0946,1.33543 0.33073,1.25656 0.19776,-0.0661 0.32898,-0.57192 0.32638,-1.25822 z m 0.0239,-3.12426 c 0.0352,-0.78919 -0.0555,-1.10742 -0.31576,-1.10742 -0.25744,0 -0.36521,0.35786 -0.36521,1.21268 0,1.5602 0.61081,1.46579 0.68097,-0.10526 z m -92.75601,-1.6522 c 0,-0.13809 -1.119333,-0.24897 -2.513541,-0.24897 -3.174316,0 -3.337593,0.48136 -0.198438,0.58502 2.471869,0.0816 2.711979,0.0519 2.711979,-0.33605 z m -7.14375,0.0156 c 0,-0.16872 -2.204861,-0.26458 -6.085416,-0.26458 h -6.085417 v -2.91042 -2.91041 h -4.630208 c -3.939352,0 -4.630208,0.0592 -4.630208,0.39687 0,0.33624 0.646759,0.39688 4.233333,0.39688 h 4.233333 v 2.60173 c 0,1.43096 0.07937,2.68111 0.176389,2.77813 0.295208,0.29521 12.788194,0.20905 12.788194,-0.0882 z m 11.1125,0 c 0,-0.14552 -0.469223,-0.26458 -1.042718,-0.26458 -0.573495,0 -1.116303,0.11906 -1.20624,0.26458 -0.09988,0.16161 0.305933,0.26459 1.042718,0.26459 0.663432,0 1.20624,-0.11907 1.20624,-0.26459 z m 41.87859,-1.26444 c 0.83219,-0.84096 1.51308,-1.61487 1.51308,-1.71979 0,-0.53481 -0.82861,-0.0398 -2.11667,1.26444 l -1.43713,1.45521 h -5.36685 c -3.40152,0 -5.36685,0.0969 -5.36685,0.26458 0,0.1681 2.05328,0.26459 5.63067,0.26459 h 5.63068 z m 46.97869,0.3617 c 0.1262,-0.65092 -0.18175,-1.74309 -0.49149,-1.74309 -0.14275,0 -0.25954,0.5457 -0.25954,1.21267 0,0.85248 0.0982,1.17997 0.33073,1.10256 0.1819,-0.0606 0.37104,-0.31803 0.4203,-0.57214 z M 77.745064,190.06189 c 1.041956,-0.65071 1.351105,-2.10751 0.710232,-3.34683 -0.288298,-0.5575 -0.796452,-0.85722 -2.243588,-1.3233 -2.091983,-0.67377 -2.675364,-1.11658 -2.675364,-2.03071 0,-0.756 0.594094,-1.39502 1.510866,-1.62511 1.077928,-0.27054 2.012066,0.20491 2.54582,1.29575 0.600536,1.22733 1.100941,1.31281 0.868036,0.14828 -0.219218,-1.09609 -0.824868,-1.74222 -1.915273,-2.0433 -2.020962,-0.55801 -3.803199,0.5866 -3.803199,2.44254 0,1.08341 0.734889,1.72628 2.612618,2.28549 0.990432,0.29496 1.998394,0.75465 2.239917,1.02153 1.537783,1.69923 -1.276363,3.89692 -3.234113,2.52566 -0.338792,-0.2373 -0.785607,-0.83741 -0.99292,-1.33359 -0.33983,-0.81332 -0.890085,-1.00488 -0.890085,-0.30985 0,0.72271 0.918184,2.07135 1.672427,2.45647 0.924719,0.47216 2.706956,0.39133 3.594626,-0.16303 z m 27.647486,0.20628 c 1.81662,-0.75903 2.28977,-2.56747 1.00729,-3.84995 -0.43184,-0.43185 -1.39333,-0.92826 -2.3151,-1.19528 -1.92168,-0.55669 -2.23798,-0.79857 -2.23798,-1.71143 0,-1.21617 0.59638,-1.73796 1.98642,-1.73796 0.97904,0 1.34027,0.12959 1.74112,0.62462 0.27819,0.34355 0.50579,0.84956 0.50579,1.12448 0,0.28502 0.1848,0.49986 0.42995,0.49986 0.34386,0 0.39555,-0.17199 0.25815,-0.85898 -0.22046,-1.1023 -0.90468,-1.77695 -2.03722,-2.0087 -1.99203,-0.40764 -3.32924,0.29211 -3.58639,1.87674 -0.2402,1.48019 0.34474,2.15352 2.47784,2.85224 2.09323,0.68565 2.72226,1.1543 2.72226,2.02819 0,0.8937 -1.12406,1.93134 -2.09219,1.93134 -1.28931,0 -2.07904,-0.51753 -2.53726,-1.66275 -0.30944,-0.77337 -0.50402,-0.98254 -0.71641,-0.77015 -0.52209,0.5221 0.33626,2.23624 1.38367,2.76322 1.1116,0.55927 1.84278,0.58223 3.01006,0.0945 z m 16.76929,-0.0357 c 1.01976,-0.40803 2.0823,-1.74826 1.77729,-2.24178 -0.24104,-0.39001 -0.66112,-0.32055 -0.66112,0.10932 0,0.71417 -1.56193,1.74331 -2.64583,1.74331 -2.62611,0 -4.01215,-3.7166 -2.48638,-6.66711 0.9044,-1.74892 3.4935,-1.96297 4.7241,-0.39055 0.50388,0.64384 0.72407,0.76211 0.96686,0.51933 0.46251,-0.46251 -1.32071,-2.18004 -2.31823,-2.23282 -3.25152,-0.17204 -4.67501,1.24057 -4.70605,4.67011 -0.021,2.31557 0.74369,3.8643 2.20835,4.47285 1.22802,0.51023 1.89987,0.51394 3.14101,0.0173 z m 7.85025,0.0301 c 1.08228,-0.45221 1.468,-1.10319 1.468,-2.47754 0,-1.31662 -0.524,-1.79968 -2.6802,-2.47076 -2.65313,-0.82575 -3.2461,-1.73956 -1.96203,-3.02363 1.16089,-1.16089 3.28663,-0.54694 3.6915,1.06618 0.22591,0.90008 0.68615,0.84509 0.68615,-0.082 0,-1.93684 -3.26549,-2.98582 -4.948,-1.58947 -1.21497,1.00833 -0.90389,3.06929 0.56875,3.7681 0.48804,0.23159 1.04012,0.42108 1.22685,0.42108 0.18672,0 0.85334,0.24874 1.48136,0.55277 1.00767,0.4878 1.14187,0.65657 1.14187,1.436 0,1.80027 -2.51072,2.66831 -3.84848,1.33055 -0.35719,-0.35719 -0.64943,-0.88595 -0.64943,-1.17501 0,-0.58025 -0.39343,-0.93652 -0.77426,-0.70115 -0.36013,0.22257 0.13146,1.70907 0.80082,2.42157 0.85581,0.91097 2.36986,1.11963 3.7971,0.52329 z m -47.21533,-4.12344 v -4.23334 h 1.322917 c 1.011719,0 1.322917,-0.0953 1.322917,-0.40527 0,-0.34508 -0.458547,-0.3942 -3.087266,-0.33073 -2.179593,0.0526 -3.119542,0.17178 -3.197048,0.40527 -0.07907,0.2382 0.303506,0.33073 1.367473,0.33073 h 1.477257 v 4.23334 c 0,3.58657 0.06063,4.23333 0.396875,4.23333 0.336242,0 0.396875,-0.64676 0.396875,-4.23333 z m 3.256527,2.68751 0.526425,-1.38544 1.982622,0.0766 1.982622,0.0766 0.52696,1.38906 c 0.289829,0.76399 0.68961,1.38907 0.888402,1.38907 0.198793,0 0.356966,-0.0893 0.351494,-0.19844 -0.03877,-0.77333 -3.411153,-8.94319 -3.715164,-9.00027 -0.262197,-0.0492 -0.87622,1.23956 -2.029575,4.25993 -0.909505,2.38179 -1.653646,4.4773 -1.653646,4.6567 0,0.74626 0.649896,0.0257 1.13986,-1.26374 z m 1.129185,-2.75366 c 0.10342,-0.32742 0.45038,-1.29429 0.771022,-2.14859 0.461178,-1.22874 0.624727,-1.44987 0.782774,-1.05833 0.109884,0.27222 0.4843,1.23908 0.832034,2.14859 l 0.632244,1.65364 H 88.59749 c -1.541754,0 -1.595865,-0.0228 -1.415018,-0.59531 z m 8.049705,0.0662 v -4.23333 h 1.322916 c 1.011719,0 1.322917,-0.0953 1.322917,-0.40528 0,-0.34507 -0.458547,-0.3942 -3.087265,-0.33072 -2.179594,0.0526 -3.119542,0.17177 -3.197049,0.40527 -0.07907,0.2382 0.303506,0.33073 1.367474,0.33073 h 1.477257 v 4.23333 c 0,3.58657 0.06063,4.23333 0.396875,4.23333 0.336241,0 0.396875,-0.64676 0.396875,-4.23333 z m 4.233333,-0.41892 c 0,-3.60408 -0.07451,-4.62748 -0.330729,-4.54227 -0.243612,0.081 -0.349799,1.30647 -0.403123,4.65226 -0.06254,3.92414 -0.01754,4.54226 0.330729,4.54226 0.345824,0 0.403123,-0.66126 0.403123,-4.65225 z m 11.58224,0.33102 0.0729,-4.14543 h 1.3162 c 1.00569,0 1.3162,-0.0956 1.3162,-0.40528 0,-0.34507 -0.45855,-0.3942 -3.08727,-0.33072 -2.17959,0.0526 -3.11954,0.17177 -3.19704,0.40527 -0.0791,0.2382 0.3035,0.33073 1.36747,0.33073 h 1.47726 v 4.25538 c 0,3.28655 0.0753,4.23035 0.33073,4.14543 0.24156,-0.0803 0.35037,-1.22753 0.40359,-4.25538 z m 4.29276,-0.33102 c 0,-3.60408 -0.0745,-4.62748 -0.33073,-4.54227 -0.24361,0.081 -0.3498,1.30647 -0.40312,4.65226 -0.0625,3.92414 -0.0175,4.54226 0.33073,4.54226 0.34582,0 0.40312,-0.66126 0.40312,-4.65225 z m 66.56939,3.28506 c -0.0383,-1.58481 -0.68814,-1.68875 -0.68814,-0.11006 0,0.84203 0.10924,1.21267 0.35741,1.21267 0.24725,0 0.34919,-0.33984 0.33073,-1.10261 z"
       id="path4"
       clip-path="url(#clipPath6)"
       transform="translate(10.633454,-7.5953242)"
       inkscape:original-d="m 12.153012,232.97042 v -64.82291 h 92.604168 92.60416 v 64.82291 64.82291 H 104.75718 12.153012 Z M 139.2853,280.19854 v -5.29166 l -3.9026,-0.0732 -3.90261,-0.0732 -9e-5,-2.70491 -1e-4,-2.7049 h 11.37703 11.37702 l 1.6e-4,2.7049 1.5e-4,2.70491 -3.90261,0.0732 -3.9026,0.0732 v 5.29166 5.29167 l 8.27372,0.0699 8.27372,0.0699 -0.0716,-5.36159 -0.0716,-5.36159 -3.90261,-0.0732 -3.9026,-0.0732 -6e-5,-2.70491 -6e-5,-2.7049 h 11.37706 11.37707 l 8e-5,2.7049 7e-5,2.70491 -3.9026,0.0732 -3.9026,0.0732 v 5.29166 5.29167 h 8.20208 8.20208 v -5.29167 -5.29166 l -3.9026,-0.0732 -3.90261,-0.0732 v -3.03564 -3.03563 h -11.77395 -11.77396 v -2.37418 -2.37417 l 3.9026,-0.0732 3.90261,-0.0732 v -5.29167 -5.29167 h -8.20209 -8.20208 v 5.29167 5.29167 l 3.9026,0.0732 3.90261,0.0732 v 2.37417 2.37418 H 142.4603 130.68634 v 3.03563 3.03564 l -3.9026,0.0732 -3.90261,0.0732 -0.0722,5.01893 c -0.0397,2.76042 -0.013,5.17316 0.0593,5.36165 0.10453,0.27241 1.80184,0.32835 8.27428,0.27273 l 8.14277,-0.07 z m -15.74271,3.42502 v -1.20519 l 1.19063,1.11594 c 0.65484,0.61377 1.19062,1.15611 1.19062,1.20519 0,0.0491 -0.53578,0.0892 -1.19062,0.0892 h -1.19063 z m 1.75527,-0.56741 -1.75527,-1.7726 v -1.72931 -1.72931 l 3.43959,3.43195 c 1.89177,1.88757 3.43958,3.46343 3.43958,3.50191 0,0.0385 -0.75794,0.07 -1.68432,0.07 h -1.68432 z m 2.27643,-2.2654 c -4.49376,-4.50078 -4.89677,-5.22241 -2.91653,-5.22241 1.09064,0 1.21758,0.10184 5.77137,4.6302 l 4.6562,4.63021 h -1.73967 -1.73968 z m 3.92465,-0.60611 -4.61136,-4.6163 h 1.83644 1.83643 l 4.0317,4.03799 c 4.57291,4.58007 4.92037,5.23225 2.77492,5.20852 l -1.25677,-0.0139 z m 15.59157,-10e-4 v -4.64542 l 1.12448,0.0814 c 0.61846,0.0447 1.09471,0.17065 1.05833,0.27979 -0.0364,0.10915 -0.0661,2.16297 -0.0661,4.56407 v 4.36562 h -1.05834 -1.05833 z m 2.91042,0.0152 v -4.6302 h 1.32291 1.32292 v 4.6302 4.63021 h -1.32292 -1.32291 z m 3.43958,0 v -4.6302 h 1.19062 1.19063 v 4.6302 4.63021 h -1.19063 -1.19062 z m 3.175,0 v -4.6302 h 1.32291 1.32292 v 4.6302 4.63021 h -1.32292 -1.32291 z m 3.35903,0.0662 0.0517,-4.56408 1.07274,-0.0814 1.07275,-0.0814 v 4.64542 4.64542 l -1.12448,2e-5 -1.12448,2e-5 z m 10.66388,4.03488 c 0,-0.51679 0.17639,-0.52917 7.54063,-0.52917 7.36424,0 7.54062,0.0124 7.54062,0.52917 0,0.51678 -0.17638,0.52916 -7.54062,0.52916 -7.36424,0 -7.54063,-0.0124 -7.54063,-0.52916 z m 0,-1.98438 v -0.66146 h 7.54063 7.54062 v 0.66146 0.66146 h -7.54062 -7.54063 z m -35.52031,-3.1616 c -1.85539,-1.8844 -3.37343,-3.46198 -3.37343,-3.50573 0,-0.0437 0.74733,-0.0795 1.66074,-0.0795 h 1.66074 l 1.79198,1.80582 1.79199,1.80582 -0.0793,1.69991 -0.0793,1.6999 z m 35.52031,1.04493 v -0.66145 h 7.54063 7.54062 v 0.66145 0.66146 h -7.54062 -7.54063 z m 0,-2.11666 v -0.66146 h 7.54063 7.54062 v 0.66146 0.66146 h -7.54062 -7.54063 z m -33.33749,-1.32292 -1.16851,-1.19062 h 1.24571 1.24571 v 1.19062 c 0,0.65484 -0.0347,1.19063 -0.0772,1.19063 -0.0425,0 -0.60303,-0.53579 -1.24571,-1.19063 z m 33.33749,-0.66146 c 0,-0.51679 0.17639,-0.52916 7.54063,-0.52916 7.36424,0 7.54062,0.0124 7.54062,0.52916 0,0.51679 -0.17638,0.52917 -7.54062,0.52917 -7.36424,0 -7.54063,-0.0124 -7.54063,-0.52917 z m -23.54791,-17.59512 v -4.63021 h 7.54062 7.54063 v 4.63021 4.63021 h -7.54063 -7.54062 z m 10.65361,0.19446 c 1.7076,-1.71205 3.10472,-3.20033 3.10472,-3.30729 0,-0.61581 -0.97188,0.12333 -3.57434,2.71842 l -2.92117,2.91287 -1.43956,-1.45766 c -1.45811,-1.47646 -1.85451,-1.71898 -1.85451,-1.13462 0,0.39533 2.91693,3.38111 3.30314,3.38111 0.15235,0 1.67413,-1.40077 3.38172,-3.11283 z m -72.56611,25.87389 c 0,-0.15272 -1.640935,-0.28744 -4.028208,-0.33073 l -4.028209,-0.073 -1.000242,-1.71979 -1.000242,-1.71979 2.666094,-0.0756 c 1.946516,-0.0552 2.637413,-0.16232 2.559828,-0.39687 -0.07084,-0.21418 -1.059922,-0.36537 -2.967081,-0.45356 l -2.860815,-0.13229 -2.238333,-3.90261 -2.238333,-3.9026 H 50.778189 31.513908 l -1.18629,2.05052 c -0.65246,1.12779 -2.270225,3.92387 -3.595032,6.21352 -1.324807,2.28965 -2.408741,4.28395 -2.408741,4.43177 0,0.18041 10.002831,0.26877 30.427083,0.26877 19.565866,0 30.427082,-0.092 30.427082,-0.25769 z m -59.678269,-0.72537 c 0.0958,-0.24965 1.283656,-2.36301 2.639685,-4.69636 1.35603,-2.33335 2.748904,-4.74818 3.095276,-5.36628 l 0.629768,-1.12383 18.913372,0.0655 18.913373,0.0655 3.233711,5.55625 c 1.778541,3.05594 3.239008,5.64555 3.245481,5.75469 0.0065,0.10914 -11.430968,0.19844 -25.416537,0.19844 -23.914054,0 -25.417934,-0.027 -25.254129,-0.4539 z m 9.956957,-3.4945 c 0.619685,-0.61969 0.773397,-1.00403 0.773397,-1.93381 0,-1.23148 -0.261827,-1.71178 -1.315642,-2.41346 -1.905564,-1.26881 -4.536379,0.66525 -4.070883,2.99273 0.407525,2.03762 3.130503,2.83716 4.613128,1.35454 z m -3.440733,-0.71749 c -0.727437,-0.92479 -0.692606,-1.82851 0.101062,-2.62218 1.927852,-1.92785 4.65301,0.80319 2.850141,2.85629 -0.65316,0.74382 -2.283706,0.61447 -2.951203,-0.23411 z m 10.319899,0.71749 c 0.622079,-0.62208 0.773397,-1.00277 0.773397,-1.94574 0,-2.97555 -3.847436,-3.84466 -5.122724,-1.15719 -1.30513,2.75036 2.200724,5.25153 4.349327,3.10293 z m -2.595787,-0.0461 c -0.710957,-0.263 -1.393315,-1.25694 -1.393315,-2.02954 0,-0.33803 0.292244,-0.90686 0.649431,-1.26404 1.308743,-1.30875 3.425152,-0.51308 3.425152,1.28769 0,1.53421 -1.309032,2.51351 -2.681268,2.00589 z m 9.474953,0.0461 c 0.622586,-0.62259 0.773398,-1.0025 0.773398,-1.9483 0,-2.96382 -4.040657,-3.83304 -5.176894,-1.11364 -1.163442,2.78451 2.283866,5.18157 4.403496,3.06194 z m -3.429919,-0.70375 c -0.737778,-0.93793 -0.706936,-1.83874 0.09025,-2.63592 1.20262,-1.20262 3.049545,-0.62579 3.479343,1.08666 0.457091,1.82119 -2.385304,3.05484 -3.569593,1.54926 z m 10.309086,0.70375 c 0.6208,-0.6208 0.771737,-0.99928 0.764983,-1.91823 -0.009,-1.22162 -0.265924,-1.69605 -1.307228,-2.41375 -1.883931,-1.29844 -4.537846,0.64262 -4.070883,2.97744 0.407525,2.03762 3.130504,2.83716 4.613128,1.35454 z m -2.330185,0.0365 c -0.751461,-0.11749 -1.658917,-1.26017 -1.658917,-2.08892 0,-1.5321 2.195912,-2.48122 3.409474,-1.47364 1.637604,1.35963 0.390641,3.89733 -1.750557,3.56256 z m 9.209351,-0.0365 c 0.605887,-0.60589 0.773398,-1.0108 0.773398,-1.86948 0,-0.60284 -0.122592,-1.32514 -0.272427,-1.60511 -0.334006,-0.6241 -1.604521,-1.30861 -2.426413,-1.30728 -1.066489,0.002 -2.272171,0.94435 -2.565161,2.00548 -0.762932,2.76311 2.491671,4.77532 4.490603,2.77639 z m -2.579159,-0.0399 c -0.725736,-0.26847 -1.409943,-1.25633 -1.409943,-2.03569 0,-0.85894 1.132395,-1.91347 2.05475,-1.91347 0.891159,0 1.838615,0.79814 2.077552,1.75014 0.331341,1.32017 -1.374112,2.69777 -2.722359,2.19902 z m 9.458326,0.0399 c 1.958288,-1.95829 0.107991,-5.33728 -2.556445,-4.66854 -0.879622,0.22077 -1.864371,1.28609 -2.040502,2.20747 -0.492821,2.57802 2.746014,4.312 4.596947,2.46107 z m -2.595787,-0.0461 c -0.710957,-0.263 -1.393316,-1.25694 -1.393316,-2.02954 0,-1.51142 2.205806,-2.44981 3.409475,-1.45045 1.725524,1.43263 0.08834,4.25849 -2.016159,3.47999 z m 32.153093,1.61324 0.07662,-1.7198 3.495254,0.0379 3.49526,0.0379 0.62673,1.21046 c 0.45313,0.87516 0.93433,1.35936 1.73718,1.74801 1.39905,0.67727 2.07823,0.6758 3.48977,-0.008 2.27596,-1.10177 2.8161,-4.00807 1.10674,-5.95493 -1.97476,-2.24912 -5.57535,-1.47555 -6.58275,1.41428 l -0.29715,0.85239 h -3.5339 -3.533901 l -0.07823,-1.78594 -0.07823,-1.78594 H 95.49676 91.660302 l -0.07419,3.55853 c -0.04081,1.95719 -0.01352,3.71664 0.06064,3.9099 0.105251,0.27428 0.9633,0.33526 3.910651,0.27793 l 3.775816,-0.0734 z m -7.088076,-2.11667 v -3.175 h 3.175 3.175 v 3.175 3.175 h -3.175 -3.175 z m 16.73019,2.84998 c -0.33001,-0.15907 -0.85064,-0.69472 -1.15695,-1.19035 -0.77102,-1.24754 -0.5535,-2.77857 0.55181,-3.88388 0.69494,-0.69494 1.01657,-0.81846 2.1312,-0.81846 1.11463,0 1.43626,0.12352 2.1312,0.81846 2.07051,2.07051 0.68582,5.44253 -2.2098,5.38134 -0.46609,-0.01 -1.11745,-0.14805 -1.44746,-0.30711 z m -5.9e-4,-12.00539 c 4.72032,-0.89543 9.64246,-2.90911 13.66294,-5.58961 2.94821,-1.9656 7.66323,-6.67943 9.62618,-9.62373 1.61945,-2.42909 3.49523,-6.21909 4.38998,-8.86996 2.32617,-6.89169 2.32844,-15.73281 0.006,-22.71329 -0.76211,-2.29048 -2.88383,-6.62396 -4.14898,-8.47404 l -1.08559,-1.5875 3.29329,-3.3028 3.29329,-3.30281 1.66395,1.64916 c 0.91518,0.90704 1.80958,1.64916 1.98756,1.64916 0.24629,0 0.32362,-1.5489 0.32362,-6.48229 v -6.48229 h -6.4823 c -4.93339,0 -6.48229,0.0773 -6.48229,0.32361 0,0.17798 0.74211,1.07238 1.64914,1.98753 l 1.64913,1.66393 -3.21075,3.21076 -3.21076,3.21075 -1.15036,-0.92531 c -4.45187,-3.58098 -9.96143,-6.07835 -16.00036,-7.25264 -3.06605,-0.59621 -9.126512,-0.60276 -12.437979,-0.0134 -17.73432,3.15604 -30.49642,18.83872 -29.856055,36.68855 0.715054,19.93177 17.45317,35.55533 37.248404,34.76812 1.71772,-0.0683 4.09017,-0.30765 5.27211,-0.53186 z m -9.519704,-0.28024 c -0.258119,-0.10415 -0.330729,-2.91422 -0.330729,-12.79947 v -12.66602 l -4.394774,-4.37515 c -2.417125,-2.40633 -4.500718,-4.30967 -4.630208,-4.22964 -0.133283,0.0824 -0.235435,7.01968 -0.235435,15.98883 v 15.84332 l -1.124479,-0.38785 c -0.618464,-0.21332 -2.13651,-0.95373 -3.373437,-1.64535 l -2.248959,-1.2575 -0.06887,-11.83234 c -0.05379,-9.24156 -0.141158,-11.83233 -0.399017,-11.83233 -0.181581,0 -2.204418,1.8872 -4.495193,4.19377 l -4.165045,4.19378 v 3.25024 c 0,3.22485 -0.0039,3.2453 -0.495497,2.61924 -0.272523,-0.34705 -1.163463,-1.81722 -1.979868,-3.26706 l -1.484371,-2.63605 0.697439,-0.72797 c 0.383591,-0.40039 0.816678,-0.65428 0.962415,-0.56421 0.145737,0.0901 0.191979,0.0456 0.102762,-0.0987 -0.212355,-0.3436 1.76554,-2.27317 2.057768,-2.00749 0.123305,0.1121 0.150502,0.0743 0.06044,-0.0839 -0.208124,-0.3657 1.755107,-2.30652 2.056229,-2.03275 0.123305,0.1121 0.150501,0.0743 0.06044,-0.0839 -0.208123,-0.3657 1.755108,-2.30652 2.05623,-2.03276 0.123304,0.1121 0.150501,0.0743 0.06044,-0.0839 -0.183291,-0.32206 1.728701,-2.31484 2.01381,-2.0989 0.09997,0.0757 0.119817,0.0559 0.0441,-0.0441 -0.208845,-0.27573 1.772541,-2.20143 2.073633,-2.01534 0.144357,0.0892 0.189472,0.0441 0.100254,-0.10026 -0.212355,-0.3436 1.76554,-2.27316 2.057768,-2.00749 0.123305,0.11211 0.150502,0.0743 0.06044,-0.0839 -0.208124,-0.36569 1.755107,-2.30651 2.056229,-2.03275 0.123305,0.1121 0.150918,0.075 0.06136,-0.0824 -0.08956,-0.15743 0.403037,-0.84359 1.094648,-1.5248 l 1.257476,-1.23857 6.412137,6.41012 6.412138,6.41011 14.56357,-14.5426 14.56357,-14.54261 0.44295,0.62843 c 0.24363,0.34564 1.06229,1.70033 1.81925,3.01044 4.7936,8.29646 5.83532,18.61289 2.83858,28.11114 -0.79427,2.51745 -2.91664,6.92397 -4.21327,8.74771 l -0.92764,1.30476 v -18.45386 c 0,-14.67812 -0.0683,-18.45384 -0.33383,-18.45384 -0.18361,0 -2.20767,1.87659 -4.49792,4.1702 l -4.16409,4.17019 v 18.56481 18.56482 l -1.57086,0.95424 c -1.4157,0.86 -4.82403,2.52365 -5.1702,2.52365 -0.076,0 -0.1381,-7.4414 -0.1381,-16.53646 0,-13.1347 -0.0687,-16.53645 -0.33383,-16.53645 -0.18361,0 -2.20767,1.87659 -4.49792,4.1702 l -4.16409,4.17019 v 13.39374 13.39373 l -0.59531,0.15954 c -0.70805,0.18975 -5.47871,0.18296 -5.953125,-0.008 z m -32.170601,-31.7488 c -0.09402,-0.99568 -0.171795,-2.64478 -0.17283,-3.66467 l -0.0019,-1.85434 5.820833,-5.81632 c 3.201459,-3.19898 5.820833,-5.90663 5.820833,-6.01701 0,-0.68071 -1.236864,0.37892 -6.016907,5.1547 -5.86818,5.86294 -5.689466,5.78684 -4.950585,2.10793 3.916951,-19.50265 23.056688,-32.06771 42.226591,-27.72136 5.07956,1.15168 10.11265,3.48846 13.87667,6.44271 l 1.49944,1.17686 -11.74046,11.74268 -11.74046,11.74268 -1.983919,-1.98392 -1.98392,-1.98392 6.468179,-6.47222 c 5.84325,-5.84691 7.34389,-7.5871 5.50189,-6.38017 -0.35166,0.23042 -0.73827,0.32923 -0.85912,0.21957 -0.12086,-0.10965 -0.13829,-0.0573 -0.0388,0.11627 0.2316,0.40386 -1.6128,2.27293 -2.00422,2.03102 -0.16912,-0.10452 -0.21543,-0.0582 -0.1109,0.11091 0.23419,0.37893 -1.62683,2.23995 -2.00576,2.00576 -0.16912,-0.10453 -0.21543,-0.0582 -0.11091,0.11091 0.23419,0.37892 -1.62683,2.23994 -2.00576,2.00575 -0.16912,-0.10452 -0.21543,-0.0582 -0.11091,0.11091 0.23419,0.37893 -1.62683,2.23995 -2.00576,2.00576 -0.16645,-0.10288 -0.21561,-0.0585 -0.11518,0.10399 0.0964,0.15589 -0.54901,1.02584 -1.434123,1.93322 l -1.609301,1.64978 -2.098137,-2.08583 -2.098138,-2.08583 3.337475,-3.3449 c 2.234544,-2.23952 3.230958,-3.41073 3.015156,-3.5441 -0.207566,-0.12829 -1.488971,0.96464 -3.599221,3.06983 l -3.276902,3.26903 -1.794148,-1.7804 c -0.986782,-0.97922 -1.909678,-1.7804 -2.050881,-1.7804 -0.141204,0 -5.031302,4.77348 -10.866885,10.60773 l -10.610082,10.60772 z m 1.10146,30.77574 c -0.04705,-0.19501 -1.570573,-2.93345 -3.385607,-6.08542 l -3.30006,-5.73086 H 50.76314 39.749432 l -3.347169,5.81364 c -1.840942,3.1975 -3.347168,5.93594 -3.347168,6.08542 0,0.18327 5.778769,0.27177 17.746483,0.27177 14.699394,0 17.731795,-0.0609 17.660937,-0.35455 z m -33.670283,-1.69597 c 0.398225,-0.69122 1.078742,-1.89394 1.51226,-2.67271 l 0.788215,-1.41594 2.611402,2.6016 c 1.436272,1.43088 2.611402,2.6336 2.611402,2.67271 0,0.0391 -1.855647,0.0711 -4.123662,0.0711 h -4.123662 z m 5.705863,-1.75117 -2.99941,-3.00794 1.240945,-2.15144 c 0.68252,-1.18328 1.302328,-2.15143 1.377351,-2.15143 0.07502,0 2.453153,2.32172 5.284731,5.15938 l 5.148325,5.15937 h -3.526266 -3.526266 z m 5.521583,-2.41602 -5.419118,-5.42395 h 3.556447 3.556447 l 5.436966,5.42221 5.436966,5.42221 -3.574295,0.002 -3.574295,0.002 z m 8.202083,0 -5.419117,-5.42395 h 3.439583 3.439583 l 5.419118,5.42395 5.419117,5.42396 h -3.439583 -3.439583 z m 7.672917,-0.26458 -5.154286,-5.15937 h 2.261241 2.261241 l 2.60907,4.56406 c 1.434989,2.51023 2.781463,4.83195 2.992165,5.15937 0.210702,0.32743 0.338491,0.59532 0.283974,0.59532 -0.05452,0 -2.418548,-2.32172 -5.253405,-5.15938 z m 116.681242,-4.34923 c 0,-0.32476 -3.93587,-7.10859 -4.22961,-7.29014 -0.19159,-0.11841 -4.50164,6.95488 -4.50164,7.38771 0,0.0828 1.96454,0.15062 4.36563,0.15062 2.54183,0 4.36562,-0.10369 4.36562,-0.24819 z m -7.42091,-0.78664 c 0.41785,-0.78076 2.97101,-5.18185 3.05801,-5.27134 0.0882,-0.0908 2.91799,4.62176 3.17,5.27916 0.11429,0.29817 -0.46768,0.37014 -3.15717,0.39043 -2.94439,0.0222 -3.27306,-0.0204 -3.07084,-0.39825 z M 60.152371,255.23185 c 0.107943,-0.17466 -2.247029,-4.39506 -7.696861,-13.79374 -0.716907,-1.23636 -1.475983,-2.27595 -1.686837,-2.3102 -0.442177,-0.0718 -9.611507,15.69163 -9.362198,16.09502 0.184816,0.29904 18.561188,0.30778 18.745896,0.009 z m -17.362692,-1.42549 c 0.653654,-1.0865 6.575904,-11.37212 7.311144,-12.69782 0.301985,-0.5445 0.608594,-0.98704 0.681355,-0.98341 0.07276,0.004 1.709314,2.77084 3.636786,6.14938 1.927473,3.37853 3.809455,6.6488 4.182184,7.26726 l 0.677689,1.12448 h -8.503242 -8.503242 z m 104.300831,-7.46607 v -1.4468 l 18.91183,-0.0746 18.91182,-0.0746 0.73349,-0.73362 c 0.69932,-0.69945 0.73348,-0.85146 0.73348,-3.26405 0,-2.44456 -0.0252,-2.55211 -0.74236,-3.16899 l -0.74235,-0.63855 h -18.90296 -18.90295 v -1.19062 -1.19063 h 13.73481 13.73481 l 0.68498,-0.81405 c 0.61719,-0.73348 0.68498,-1.03262 0.68498,-3.0224 0,-1.98979 -0.0678,-2.28893 -0.68498,-3.02241 l -0.68498,-0.81405 h -13.73481 -13.73481 v -1.19063 -1.19062 h 10.4124 10.41241 l 0.70009,-0.64883 c 0.66335,-0.61477 0.7001,-0.78207 0.7001,-3.18763 0,-2.40556 -0.0367,-2.57286 -0.7001,-3.18763 l -0.70009,-0.64883 h -10.41241 -10.4124 v -1.60955 c 0,-1.17007 -0.0903,-1.57943 -0.33073,-1.49925 -0.25955,0.0866 -0.33618,3.69299 -0.35605,16.75695 -0.0139,9.15565 0.0286,16.79547 0.0944,16.97737 0.2868,0.79191 0.59233,0.21622 0.59233,-1.11607 z m 0.058,-5.43652 0.0743,-3.17916 18.78542,-0.002 18.78541,-0.002 0.46302,0.56475 c 0.35332,0.43095 0.46302,1.05477 0.46302,2.63291 0,3.47257 1.94628,3.16489 -20.01986,3.16489 h -18.62559 z m -0.058,-10.11616 v -3.24114 l 13.53413,0.0617 c 12.22346,0.0557 13.58147,0.10452 14.02292,0.50402 0.40029,0.36226 0.48879,0.83864 0.48879,2.6311 0,3.55494 1.20725,3.28548 -14.72005,3.28548 h -13.32578 z m 1e-5,-10.12031 v -3.32508 l 10.30955,0.075 c 12.19365,0.0888 11.25399,-0.18261 11.25399,3.25004 0,3.43265 0.93966,3.16128 -11.25399,3.25004 l -10.30955,0.075 z M 33.241083,246.40698 c 2.298977,-0.99957 3.517451,-2.68978 3.719317,-5.15924 0.115276,-1.41019 0.03358,-1.8507 -0.573261,-3.09104 -0.784554,-1.60357 -2.390286,-2.88368 -3.994767,-3.18468 l -0.924777,-0.17349 v -2.36254 -2.36255 l 4.101642,-0.0729 c 2.509462,-0.0446 4.101641,-0.17557 4.101641,-0.33744 0,-0.16188 -1.592179,-0.29287 -4.101641,-0.33745 l -4.101642,-0.0729 v -1.3162 -1.3162 h 6.085417 c 5.23287,0 6.085416,-0.0556 6.085416,-0.39687 0,-0.34128 -0.852546,-0.39688 -6.085416,-0.39688 h -6.085417 v -1.32292 -1.32291 h 8.398994 8.398994 l 8.402047,-8.39897 8.402047,-8.39897 v 3.1073 c 0,2.61048 0.06462,3.10731 0.40414,3.10731 0.346959,0 0.393753,-0.53234 0.330729,-3.76244 l -0.07341,-3.76243 -3.151456,-0.092 c -3.251197,-0.0949 -4.389169,0.0291 -4.389169,0.47817 0,0.15554 1.2982,0.25954 3.239595,0.25954 h 3.239596 l -8.463566,8.46667 -8.463566,8.46667 h -8.534362 -8.534363 v 6.054 6.05401 l -1.212556,0.30532 c -1.659998,0.418 -3.57899,2.33687 -4.061899,4.06165 -0.826603,2.95234 0.483576,5.7773 3.29008,7.09397 1.21629,0.57062 3.456855,0.66236 4.551613,0.18636 z m -3.53568,-0.58704 c -2.607894,-0.81561 -3.937875,-2.74471 -3.743635,-5.43005 0.191501,-2.64748 2.084899,-4.53237 4.746187,-4.72487 2.76112,-0.19972 4.933653,1.4343 5.549149,4.17367 0.568968,2.53229 -1.234465,5.40673 -3.797051,6.05199 -1.447617,0.36451 -1.355352,0.36688 -2.75465,-0.0707 z m 28.525204,-11.00415 c 1.230272,-0.34172 2.739873,-1.99311 2.976884,-3.25648 0.824752,-4.39631 -5.233103,-6.94059 -7.67002,-3.22138 -1.103265,1.68379 -0.9261,3.72074 0.461023,5.30058 1.12359,1.2797 2.492439,1.66048 4.232113,1.17728 z M 55.65539,234.037 c -0.786627,-0.31823 -1.887844,-1.7105 -2.093494,-2.64682 -0.582745,-2.65323 2.522899,-5.08617 4.872484,-3.81707 1.168106,0.63093 2.137381,2.04829 2.137381,3.12546 0,2.42913 -2.674618,4.24531 -4.916371,3.33843 z m -21.745188,-28.5171 0.07093,-6.28385 h 1.101782 c 0.60598,0 1.195477,-0.0934 1.309994,-0.20756 0.231971,-0.23125 -6.469067,-7.06848 -6.927681,-7.06848 -0.469888,0 -6.784192,6.58102 -6.662861,6.9443 0.06659,0.19938 0.550556,0.32445 1.213012,0.31346 l 1.102212,-0.0183 v 6.30213 6.30214 h 4.360837 4.360836 z m -7.998857,-0.7276 v -6.21771 h -1.119967 -1.119967 l 2.901488,-2.91051 2.901488,-2.91051 2.856366,2.84436 2.856366,2.84437 -0.911022,0.0808 c -0.501063,0.0444 -0.97634,0.25098 -1.056171,0.45902 -0.07983,0.20803 -0.119812,2.99943 -0.08884,6.20311 l 0.05631,5.82486 -3.638021,-2e-5 -3.638021,-3e-5 z m 21.025074,2.79772 4.110342,-4.08145 v -6.9649 -6.96491 h 1.344965 c 0.777566,0 1.307759,-0.11142 1.256771,-0.26412 -0.161273,-0.48296 -6.615524,-7.14414 -6.926368,-7.14843 -0.400639,-0.006 -7.038796,6.95579 -6.879219,7.21411 0.06742,0.10914 0.651336,0.19844 1.297591,0.19844 h 1.17501 v 11.13455 c 0,7.03712 0.09394,11.10209 0.255283,11.04635 0.140405,-0.0485 2.104936,-1.92485 4.365625,-4.16964 z m -3.890353,-7.91183 -0.0691,-10.76089 -0.899716,-0.13229 -0.899716,-0.13229 2.734387,-2.85732 2.734388,-2.85733 2.869535,2.85733 2.869534,2.85732 -1.000039,0.13229 -1.00004,0.13229 -0.07032,7.16924 -0.07033,7.16925 -3.564746,3.59164 -3.564746,3.59164 z m 144.525694,8.02453 c 0,-0.31278 -2.15162,-2.51355 -2.45741,-2.51355 -0.40766,0 -0.15328,0.6692 0.52253,1.37459 l 0.71096,0.74208 h -2.26906 c -1.94289,0 -2.26378,-0.0625 -2.23231,-0.43454 0.0202,-0.239 -0.11208,-0.48705 -0.29398,-0.55122 -0.19609,-0.0692 -0.33073,0.10774 -0.33073,0.43455 0,0.54971 -0.03,0.55121 -10.98021,0.55121 h -10.98021 v -1.19062 c 0,-0.88195 -0.10289,-1.19063 -0.39687,-1.19063 -0.29398,0 -0.39688,0.30868 -0.39688,1.19063 v 1.19062 h -3.89918 -3.89918 l 3.83303,-3.84357 c 3.05876,-3.06716 3.85012,-3.73524 3.91759,-3.30729 0.13661,0.86652 0.84149,0.65231 0.84149,-0.25572 v -0.792 l 0.59531,0.51487 c 1.89983,1.64309 3.78744,2.862 4.06955,2.62787 0.16769,-0.13917 1.41911,-1.73338 2.78095,-3.54269 1.8149,-2.41124 2.49864,-3.15077 2.56061,-2.76952 0.11429,0.7031 0.8415,0.66615 0.8415,-0.0428 0,-0.43278 0.2905,-0.19998 1.25677,1.00714 2.65823,3.32081 3.15236,3.81862 3.43779,3.46332 0.14832,-0.18464 1.6511,-3.18738 3.3395,-6.67277 1.68841,-3.48539 3.2322,-6.42794 3.43065,-6.539 0.4006,-0.22419 0.4281,-1.68839 0.0311,-1.65473 -0.29918,0.0254 -0.87546,1.12871 -4.42831,8.4784 l -2.70186,5.58926 -2.32882,-2.87728 c -1.28084,-1.58251 -2.41194,-2.8717 -2.51354,-2.86488 -0.10159,0.007 -1.22639,1.40581 -2.49954,3.10886 -1.27315,1.70304 -2.59463,3.44525 -2.93663,3.87156 l -0.6218,0.77512 -2.34496,-1.77454 -2.34495,-1.77455 -4.44186,4.43609 -4.44185,4.43609 v -10.1693 -10.16929 l 0.92207,0.89371 c 1.22879,1.19099 1.50502,0.82206 0.37175,-0.49649 -1.31663,-1.53189 -1.69535,-1.58379 -2.90905,-0.39864 -0.93463,0.91264 -1.32393,1.69272 -0.84477,1.69272 0.10222,0 0.5487,-0.35173 0.99219,-0.78163 l 0.80635,-0.78164 v 10.63737 10.63736 l 18.50245,0.068 18.50245,0.068 -0.73813,0.77044 c -0.42283,0.44134 -0.65606,0.90321 -0.54602,1.08127 0.20795,0.33646 2.51154,-1.72928 2.51154,-2.25221 z m -17.59479,-2.46945 c 0,-1.54893 -0.51179,-1.50763 -0.61093,0.0493 -0.0615,0.9663 0.004,1.25546 0.26459,1.16858 0.21151,-0.0705 0.34634,-0.54462 0.34634,-1.21788 z m 11.92548,-0.78975 c 0.0305,-0.78073 -0.0633,-1.10643 -0.31873,-1.10643 -0.25358,0 -0.36196,0.36312 -0.36196,1.21267 0,1.56291 0.61926,1.46625 0.68069,-0.10624 z m -22.64111,-1.65764 c 0,-0.95749 -0.0953,-1.31369 -0.33073,-1.2364 -0.3542,0.11628 -0.59355,1.59498 -0.35767,2.20967 0.31595,0.82337 0.6884,0.2968 0.6884,-0.97327 z m 10.84792,-0.91961 c 0,-0.86807 -0.10368,-1.17501 -0.39688,-1.17501 -0.29172,0 -0.39687,0.30378 -0.39687,1.14653 0,0.63059 0.0761,1.22266 0.16919,1.31572 0.36587,0.36587 0.62456,-0.1673 0.62456,-1.28724 z m 11.66492,0.47863 c 0.14009,-1.19541 0.0532,-2.02455 -0.22169,-2.11641 -0.23255,-0.0777 -0.33073,0.24949 -0.33073,1.10218 0,0.66697 0.11906,1.21267 0.26458,1.21267 0.14552,0 0.27505,-0.0893 0.28784,-0.19844 z m -11.79721,-3.77031 c 0,-0.68204 -0.13399,-1.19119 -0.33073,-1.25677 -0.23614,-0.0787 -0.33073,0.28075 -0.33073,1.25677 0,0.97602 0.0946,1.33548 0.33073,1.25677 0.19674,-0.0656 0.33073,-0.57473 0.33073,-1.25677 z m 11.9019,-0.26624 c -0.003,-0.67144 -0.1398,-1.19292 -0.33073,-1.25656 -0.23071,-0.0769 -0.32638,0.29192 -0.32638,1.25822 0,0.97613 0.0946,1.33543 0.33073,1.25656 0.19776,-0.0661 0.32898,-0.57192 0.32638,-1.25822 z m 0.0239,-3.12426 c 0.0352,-0.78919 -0.0555,-1.10742 -0.31576,-1.10742 -0.25744,0 -0.36521,0.35786 -0.36521,1.21268 0,1.5602 0.61081,1.46579 0.68097,-0.10526 z m -92.75601,-1.6522 c 0,-0.13809 -1.119333,-0.24897 -2.513541,-0.24897 -3.174316,0 -3.337593,0.48136 -0.198438,0.58502 2.471869,0.0816 2.711979,0.0519 2.711979,-0.33605 z m -7.14375,0.0156 c 0,-0.16872 -2.204861,-0.26458 -6.085416,-0.26458 h -6.085417 v -2.91042 -2.91041 h -4.630208 c -3.939352,0 -4.630208,0.0592 -4.630208,0.39687 0,0.33624 0.646759,0.39688 4.233333,0.39688 h 4.233333 v 2.60173 c 0,1.43096 0.07937,2.68111 0.176389,2.77813 0.295208,0.29521 12.788194,0.20905 12.788194,-0.0882 z m 11.1125,0 c 0,-0.14552 -0.469223,-0.26458 -1.042718,-0.26458 -0.573495,0 -1.116303,0.11906 -1.20624,0.26458 -0.09988,0.16161 0.305933,0.26459 1.042718,0.26459 0.663432,0 1.20624,-0.11907 1.20624,-0.26459 z m 41.87859,-1.26444 c 0.83219,-0.84096 1.51308,-1.61487 1.51308,-1.71979 0,-0.53481 -0.82861,-0.0398 -2.11667,1.26444 l -1.43713,1.45521 h -5.36685 c -3.40152,0 -5.36685,0.0969 -5.36685,0.26458 0,0.1681 2.05328,0.26459 5.63067,0.26459 h 5.63068 z m 46.97869,0.3617 c 0.1262,-0.65092 -0.18175,-1.74309 -0.49149,-1.74309 -0.14275,0 -0.25954,0.5457 -0.25954,1.21267 0,0.85248 0.0982,1.17997 0.33073,1.10256 0.1819,-0.0606 0.37104,-0.31803 0.4203,-0.57214 z M 77.745064,190.06189 c 1.041956,-0.65071 1.351105,-2.10751 0.710232,-3.34683 -0.288298,-0.5575 -0.796452,-0.85722 -2.243588,-1.3233 -2.091983,-0.67377 -2.675364,-1.11658 -2.675364,-2.03071 0,-0.756 0.594094,-1.39502 1.510866,-1.62511 1.077928,-0.27054 2.012066,0.20491 2.54582,1.29575 0.600536,1.22733 1.100941,1.31281 0.868036,0.14828 -0.219218,-1.09609 -0.824868,-1.74222 -1.915273,-2.0433 -2.020962,-0.55801 -3.803199,0.5866 -3.803199,2.44254 0,1.08341 0.734889,1.72628 2.612618,2.28549 0.990432,0.29496 1.998394,0.75465 2.239917,1.02153 1.537783,1.69923 -1.276363,3.89692 -3.234113,2.52566 -0.338792,-0.2373 -0.785607,-0.83741 -0.99292,-1.33359 -0.33983,-0.81332 -0.890085,-1.00488 -0.890085,-0.30985 0,0.72271 0.918184,2.07135 1.672427,2.45647 0.924719,0.47216 2.706956,0.39133 3.594626,-0.16303 z m 27.647486,0.20628 c 1.81662,-0.75903 2.28977,-2.56747 1.00729,-3.84995 -0.43184,-0.43185 -1.39333,-0.92826 -2.3151,-1.19528 -1.92168,-0.55669 -2.23798,-0.79857 -2.23798,-1.71143 0,-1.21617 0.59638,-1.73796 1.98642,-1.73796 0.97904,0 1.34027,0.12959 1.74112,0.62462 0.27819,0.34355 0.50579,0.84956 0.50579,1.12448 0,0.28502 0.1848,0.49986 0.42995,0.49986 0.34386,0 0.39555,-0.17199 0.25815,-0.85898 -0.22046,-1.1023 -0.90468,-1.77695 -2.03722,-2.0087 -1.99203,-0.40764 -3.32924,0.29211 -3.58639,1.87674 -0.2402,1.48019 0.34474,2.15352 2.47784,2.85224 2.09323,0.68565 2.72226,1.1543 2.72226,2.02819 0,0.8937 -1.12406,1.93134 -2.09219,1.93134 -1.28931,0 -2.07904,-0.51753 -2.53726,-1.66275 -0.30944,-0.77337 -0.50402,-0.98254 -0.71641,-0.77015 -0.52209,0.5221 0.33626,2.23624 1.38367,2.76322 1.1116,0.55927 1.84278,0.58223 3.01006,0.0945 z m 16.76929,-0.0357 c 1.01976,-0.40803 2.0823,-1.74826 1.77729,-2.24178 -0.24104,-0.39001 -0.66112,-0.32055 -0.66112,0.10932 0,0.71417 -1.56193,1.74331 -2.64583,1.74331 -2.62611,0 -4.01215,-3.7166 -2.48638,-6.66711 0.9044,-1.74892 3.4935,-1.96297 4.7241,-0.39055 0.50388,0.64384 0.72407,0.76211 0.96686,0.51933 0.46251,-0.46251 -1.32071,-2.18004 -2.31823,-2.23282 -3.25152,-0.17204 -4.67501,1.24057 -4.70605,4.67011 -0.021,2.31557 0.74369,3.8643 2.20835,4.47285 1.22802,0.51023 1.89987,0.51394 3.14101,0.0173 z m 7.85025,0.0301 c 1.08228,-0.45221 1.468,-1.10319 1.468,-2.47754 0,-1.31662 -0.524,-1.79968 -2.6802,-2.47076 -2.65313,-0.82575 -3.2461,-1.73956 -1.96203,-3.02363 1.16089,-1.16089 3.28663,-0.54694 3.6915,1.06618 0.22591,0.90008 0.68615,0.84509 0.68615,-0.082 0,-1.93684 -3.26549,-2.98582 -4.948,-1.58947 -1.21497,1.00833 -0.90389,3.06929 0.56875,3.7681 0.48804,0.23159 1.04012,0.42108 1.22685,0.42108 0.18672,0 0.85334,0.24874 1.48136,0.55277 1.00767,0.4878 1.14187,0.65657 1.14187,1.436 0,1.80027 -2.51072,2.66831 -3.84848,1.33055 -0.35719,-0.35719 -0.64943,-0.88595 -0.64943,-1.17501 0,-0.58025 -0.39343,-0.93652 -0.77426,-0.70115 -0.36013,0.22257 0.13146,1.70907 0.80082,2.42157 0.85581,0.91097 2.36986,1.11963 3.7971,0.52329 z m -47.21533,-4.12344 v -4.23334 h 1.322917 c 1.011719,0 1.322917,-0.0953 1.322917,-0.40527 0,-0.34508 -0.458547,-0.3942 -3.087266,-0.33073 -2.179593,0.0526 -3.119542,0.17178 -3.197048,0.40527 -0.07907,0.2382 0.303506,0.33073 1.367473,0.33073 h 1.477257 v 4.23334 c 0,3.58657 0.06063,4.23333 0.396875,4.23333 0.336242,0 0.396875,-0.64676 0.396875,-4.23333 z m 3.256527,2.68751 0.526425,-1.38544 1.982622,0.0766 1.982622,0.0766 0.52696,1.38906 c 0.289829,0.76399 0.68961,1.38907 0.888402,1.38907 0.198793,0 0.356966,-0.0893 0.351494,-0.19844 -0.03877,-0.77333 -3.411153,-8.94319 -3.715164,-9.00027 -0.262197,-0.0492 -0.87622,1.23956 -2.029575,4.25993 -0.909505,2.38179 -1.653646,4.4773 -1.653646,4.6567 0,0.74626 0.649896,0.0257 1.13986,-1.26374 z m 1.129185,-2.75366 c 0.10342,-0.32742 0.45038,-1.29429 0.771022,-2.14859 0.461178,-1.22874 0.624727,-1.44987 0.782774,-1.05833 0.109884,0.27222 0.4843,1.23908 0.832034,2.14859 l 0.632244,1.65364 H 88.59749 c -1.541754,0 -1.595865,-0.0228 -1.415018,-0.59531 z m 8.049705,0.0662 v -4.23333 h 1.322916 c 1.011719,0 1.322917,-0.0953 1.322917,-0.40528 0,-0.34507 -0.458547,-0.3942 -3.087265,-0.33072 -2.179594,0.0526 -3.119542,0.17177 -3.197049,0.40527 -0.07907,0.2382 0.303506,0.33073 1.367474,0.33073 h 1.477257 v 4.23333 c 0,3.58657 0.06063,4.23333 0.396875,4.23333 0.336241,0 0.396875,-0.64676 0.396875,-4.23333 z m 4.233333,-0.41892 c 0,-3.60408 -0.07451,-4.62748 -0.330729,-4.54227 -0.243612,0.081 -0.349799,1.30647 -0.403123,4.65226 -0.06254,3.92414 -0.01754,4.54226 0.330729,4.54226 0.345824,0 0.403123,-0.66126 0.403123,-4.65225 z m 11.58224,0.33102 0.0729,-4.14543 h 1.3162 c 1.00569,0 1.3162,-0.0956 1.3162,-0.40528 0,-0.34507 -0.45855,-0.3942 -3.08727,-0.33072 -2.17959,0.0526 -3.11954,0.17177 -3.19704,0.40527 -0.0791,0.2382 0.3035,0.33073 1.36747,0.33073 h 1.47726 v 4.25538 c 0,3.28655 0.0753,4.23035 0.33073,4.14543 0.24156,-0.0803 0.35037,-1.22753 0.40359,-4.25538 z m 4.29276,-0.33102 c 0,-3.60408 -0.0745,-4.62748 -0.33073,-4.54227 -0.24361,0.081 -0.3498,1.30647 -0.40312,4.65226 -0.0625,3.92414 -0.0175,4.54226 0.33073,4.54226 0.34582,0 0.40312,-0.66126 0.40312,-4.65225 z m 66.56939,3.28506 c -0.0383,-1.58481 -0.68814,-1.68875 -0.68814,-0.11006 0,0.84203 0.10924,1.21267 0.35741,1.21267 0.24725,0 0.34919,-0.33984 0.33073,-1.10261 z"
       inkscape:path-effect="#path-effect6" /><rect
       style="fill:#000400;fill-opacity:1;stroke:none;stroke-width:1.35248;stroke-linecap:round;stroke-opacity:0.221805"
       id="rect7"
       width="82.406174"
       height="28.423748"
       x="69.609993"
       y="160.56261" /></g></svg>
