<?xml version="1.0" encoding="UTF-8" standalone="no"?>
<!-- Created with Inkscape (http://www.inkscape.org/) -->

<svg
   width="56.611774mm"
   height="35.544003mm"
   viewBox="0 0 56.611774 35.544003"
   version="1.1"
   id="svg1"
   xml:space="preserve"
   xmlns:inkscape="http://www.inkscape.org/namespaces/inkscape"
   xmlns:sodipodi="http://sodipodi.sourceforge.net/DTD/sodipodi-0.dtd"
   xmlns="http://www.w3.org/2000/svg"
   xmlns:svg="http://www.w3.org/2000/svg"><sodipodi:namedview
     id="namedview1"
     pagecolor="#ffffff"
     bordercolor="#000000"
     borderopacity="0.25"
     inkscape:showpageshadow="2"
     inkscape:pageopacity="0.0"
     inkscape:pagecheckerboard="0"
     inkscape:deskcolor="#d1d1d1"
     inkscape:document-units="mm"
     inkscape:zoom="2.7868023"
     inkscape:cx="601.40614"
     inkscape:cy="253.15754"
     inkscape:window-width="1366"
     inkscape:window-height="705"
     inkscape:window-x="-8"
     inkscape:window-y="-8"
     inkscape:window-maximized="1"
     inkscape:current-layer="layer1"><inkscape:page
       x="0"
       y="0"
       width="56.611774"
       height="35.544003"
       id="page2"
       margin="0"
       bleed="0" /></sodipodi:namedview><defs
     id="defs1" /><g
     inkscape:label="Capa 1"
     inkscape:groupmode="layer"
     id="layer1"
     transform="translate(-234.03198,-139.72793)"><path
       style="fill:#ffffff;stroke:#ffffff;stroke-width:0.915027;stroke-linecap:round;stroke-opacity:0.221805"
       d="m 1097.8956,609.37697 c -0.1,-1.29935 -0.6619,-4.08313 -1.2114,-5.99724 -3.8268,-13.33124 -15.4442,-23.33353 -29.3779,-25.29362 -2.5169,-0.35406 -3.1518,-1.02164 -3.1733,-3.33664 -0.056,-6.00502 -4.566,-16.66913 -9.5555,-22.59332 -6.9981,-8.30912 -15.8644,-13.26492 -26.6969,-14.92221 -2.8233,-0.43195 -9.1265,-0.43419 -12.0314,-0.004 -4.5443,0.67254 -8.6686,1.93953 -12.6551,3.88771 -3.125,1.52718 -5.65946,3.20791 -8.83877,5.86148 -1.34632,1.12369 -2.62672,2.09024 -2.84535,2.14789 -0.56288,0.14843 -1.16397,-0.38182 -2.628,-2.31828 -1.84394,-2.43896 -3.88557,-4.75021 -5.39079,-6.10272 -6.85081,-6.15579 -14.82554,-9.27598 -23.69467,-9.2708 -5.95889,0.003 -10.74998,1.13771 -16.06254,3.80256 -9.99521,5.01374 -16.73674,14.02541 -18.96499,25.35125 -0.25349,1.28841 -0.31766,2.53941 -0.31755,6.18989 1.3e-4,3.96842 0.0533,4.86329 0.40136,6.74807 0.59758,3.23636 0.52368,3.74685 -0.5913,4.08512 -0.30953,0.0939 -5.72819,0.46814 -6.38908,0.65126 -2.63883,0.73115 -13.26439,6.87882 -18.66704,8.76926 -3.21982,1.12665 -2.91673,-1.37935 -2.56952,-1.60691 l 11.34453,-7.43509 6.92481,-2.40628 4.59695,-0.50017 c 1.12933,-0.12288 2.13277,-0.30839 2.23053,-0.40615 0.11739,-0.11739 0.10539,-0.80334 -0.0354,-2.01999 -0.2674,-2.31155 -0.27484,-8.49967 -0.0132,-10.94061 0.67969,-6.34009 3.89946,-13.8114 8.14877,-18.90879 7.85222,-9.41937 17.93304,-14.24556 29.75577,-14.24556 4.55947,0 7.93024,0.53031 12.15861,1.91287 7.27739,2.37952 13.87916,7.05823 18.27628,12.9525 0.74009,0.99209 1.42636,1.80734 1.52504,1.81168 0.0987,0.004 0.94643,-0.61182 1.88388,-1.36923 2.5152,-2.03215 5.11596,-3.67153 8.34287,-5.25891 3.3535,-1.64965 6.0812,-2.67264 9.3286,-3.49852 3.4267,-0.87152 5.5618,-1.07414 11.2147,-1.06429 5.4293,0.009 6.4956,0.13186 10.8804,1.249 14.5415,3.70479 26.7121,14.90159 31.5859,29.05861 0.8154,2.36877 1.372,4.61747 1.9538,7.89435 0.2628,1.48019 0.4943,2.71084 0.5145,2.73478 0.02,0.0239 0.9993,0.2425 2.176,0.48571 4.0458,0.83623 6.8319,1.76746 10.1125,3.38003 7.4801,3.67691 13.6429,9.80506 17.4228,17.32496 l 1.0731,2.13487 -0.05,5.80862 c -0.028,3.19475 -0.069,5.56046 -0.092,5.25714 z"
       id="path20164"
       transform="scale(0.26458333)"
       sodipodi:nodetypes="scsssscssssscssssssssccsssssssscssscsssssssccss" /><path
       style="fill:#ffffff;stroke:#ffffff;stroke-width:0.915027;stroke-linecap:round;stroke-opacity:0.221805"
       d="m 960.18564,655.56886 c -11.09841,-1.06902 -21.2362,-8.33167 -26.26167,-18.81368 -0.99782,-2.08123 -2.17172,-5.54042 -2.49639,-7.35625 -0.35712,-1.99729 -0.51645,-8.12721 -0.27757,-10.67904 0.32196,-3.43932 1.509,-7.12457 3.57773,-11.10728 2.39163,-4.60437 5.59784,-8.22178 10.22128,-11.53223 3.98727,-2.85493 9.14562,-4.96232 13.31775,-5.44083 2.02875,-0.23268 9.2186,-0.22606 11.12857,0.0103 0.85628,0.10594 2.56332,0.53541 3.90821,0.98324 2.61889,0.87206 6.58439,2.68754 7.18733,3.29048 0.46235,0.46235 0.50408,1.38486 0.0894,1.97687 -0.40722,0.58139 -0.98013,0.45677 -3.87972,-0.84395 -4.01241,-1.79993 -6.28321,-2.39255 -10.53165,-2.7485 -5.5705,-0.46672 -11.05494,0.52845 -15.7573,2.85924 -8.21398,4.07135 -14.02811,11.64774 -16.04518,20.90847 -0.34474,1.58275 -0.39771,2.36879 -0.401,5.95026 -0.004,4.55138 0.20226,5.99234 1.35597,9.46407 1.48841,4.4789 3.47121,7.59139 7.23683,11.35994 3.21233,3.21482 4.49294,4.19357 7.36244,5.62701 5.12932,2.56231 10.0173,3.48948 16.12609,3.05889 4.25746,-0.3001 6.51197,-0.87022 10.61362,-2.68395 2.66945,-1.18042 3.32164,-1.36457 3.84357,-1.08524 0.5547,0.29687 0.5199,1.66557 -0.057,2.24249 -1.01878,1.01878 -6.70693,3.32689 -9.74573,3.95457 -3.32431,0.68666 -7.29643,0.91525 -10.51558,0.60517 z"
       id="path20165"
       transform="scale(0.26458333)" /><path
       style="fill:#ffffff;stroke:#ffffff;stroke-width:0.915027;stroke-linecap:round;stroke-opacity:0.221805"
       d="m 1012.5404,655.57218 c -7.0927,-0.73933 -14.05462,-4.00288 -19.25984,-9.02851 -4.94009,-4.76965 -8.08063,-10.4654 -9.56031,-17.33882 -0.35089,-1.62994 -0.4046,-2.41996 -0.414,-6.08924 -0.01,-3.72972 0.0374,-4.45441 0.40662,-6.2796 0.91334,-4.51469 2.91503,-9.26757 5.36492,-12.73861 1.71707,-2.43277 5.74456,-6.40477 8.12249,-8.01059 3.97022,-2.68112 8.01272,-4.41301 12.53812,-5.37169 3.0364,-0.64324 9.589,-0.49948 13.5233,0.29668 6.4829,1.31193 13.5925,5.71377 17.9474,11.11201 3.3032,4.09464 5.8749,9.43976 6.8493,14.23609 0.7452,3.66797 0.7432,9.09611 0,13.0392 -0.9917,5.22814 -3.9481,11.04288 -7.843,15.42598 -4.4128,4.96588 -10.6547,8.68219 -17.0201,10.13332 -3.0602,0.69764 -7.4297,0.94946 -10.6501,0.61378 z m 6.5349,-3.03733 c 11.6031,-0.88512 22.0697,-9.55686 25.3848,-21.03179 0.938,-3.24655 1.0872,-4.43832 1.0837,-8.65657 0,-3.42403 -0.057,-4.19686 -0.4107,-5.83106 -1.3404,-6.19588 -3.8418,-10.83659 -8.179,-15.17371 -5.5087,-5.50873 -11.992,-8.3423 -19.7498,-8.6318 -4.2111,-0.15714 -7.4302,0.28054 -11.0332,1.50008 -7.8517,2.65771 -14.85336,9.29927 -17.91909,16.99756 -3.00158,7.53722 -2.8889,15.57963 0.32449,23.15987 1.05354,2.48528 1.99024,4.07504 3.54142,6.01048 1.5697,1.95854 4.82509,5.20533 6.43177,6.41478 2.39581,1.80345 8.23501,4.34581 11.24841,4.89745 1.0743,0.19668 4.0469,0.44679 5.9719,0.50247 0.4934,0.0143 1.9808,-0.0567 3.3053,-0.15776 z"
       id="path20166"
       transform="scale(0.26458333)" /><path
       style="fill:#ffffff;stroke:#ffffff;stroke-width:0.915027;stroke-linecap:round;stroke-opacity:0.221805"
       d="m 1048.6838,661.89836 c -1.4671,-0.12816 -2.2092,-0.47921 -2.5378,-1.20047 -0.2603,-0.57114 0.092,-1.02035 4.7555,-6.06867 8.0232,-8.68478 7.8422,-8.45178 7.8349,-10.08505 -0.01,-1.193 -0.4908,-2.18359 -1.5096,-3.08042 -1.0245,-0.90182 -2.3292,-1.36898 -3.7915,-1.35759 -1.2268,0.01 -2.1875,0.37254 -3.9764,1.50232 -0.7245,0.45754 -1.2651,0.6844 -1.4734,0.61829 -0.5882,-0.18668 -1.2661,-0.9549 -1.2661,-1.43473 0,-0.65871 1.3862,-1.97904 2.7457,-2.61524 1.4257,-0.66715 2.6154,-0.88723 4.7959,-0.88723 1.671,0 1.8113,0.0308 3.0622,0.67281 1.6477,0.84561 3.0778,2.22165 3.6831,3.54382 0.4319,0.94337 0.4572,1.14908 0.3926,3.19523 -0.053,1.67924 -0.1457,2.33273 -0.3996,2.81491 -0.5465,1.03757 -2.0193,2.75129 -6.0053,6.98728 -2.084,2.21479 -3.7892,4.08399 -3.7892,4.15377 0,0.0698 2.079,0.15864 4.62,0.19745 3.7795,0.0577 4.7413,0.12407 5.2864,0.36468 1.2779,0.56397 0.995,1.93213 -0.5041,2.43807 -0.7905,0.26679 -9.5912,0.4445 -11.9233,0.24077 z"
       id="path20167"
       transform="scale(0.26458333)" /><path
       style="fill:#ffffff;stroke:#ffffff;stroke-width:0.457514;stroke-linecap:round;stroke-opacity:0.221805"
       d="m 919.64724,651.45755 c -6.94974,-0.56505 -14.43618,-3.52982 -20.15574,-7.98206 -3.11456,-2.42444 -6.19702,-5.84124 -8.61553,-9.55 -3.42197,-5.24756 -5.29236,-10.62603 -6.00535,-17.26889 -0.1647,-1.5345 -0.13891,-5.58103 0.0462,-7.25212 0.49718,-4.48795 1.63514,-8.54471 3.52766,-12.576 l 3.549,-6.21209 4.58597,-5.07468 5.35376,-1.81033 -9.8915,12.67351 c -1.02281,1.31047 -1.74732,3.57563 -2.46488,5.67407 -0.85005,2.48588 -1.34715,4.90135 -1.56001,7.58037 -0.13206,1.66207 -0.0526,6.22672 0.13903,7.98406 0.56123,5.14748 1.91935,9.22842 4.50332,13.53174 1.58138,2.63363 2.81441,4.15565 5.72118,7.06209 2.75526,2.75494 4.047,3.79967 6.50982,5.26495 2.09945,1.24909 5.36731,2.71257 7.75979,3.47516 3.05761,0.97458 6.62709,1.61146 9.06057,1.61661 1.81934,0.004 2.78908,0.53408 2.77469,1.51716 -0.007,0.48622 -0.22698,0.92607 -0.60302,1.20637 -0.22782,0.16981 -0.38598,0.18821 -1.74932,0.2035 -0.82437,0.009 -1.94291,-0.0193 -2.48565,-0.0634 z"
       id="path20168"
       transform="scale(0.26458333)"
       sodipodi:nodetypes="sssssscccssssssssssscss" /></g></svg>
