<?xml version="1.0" encoding="UTF-8" standalone="no"?>
<!-- Created with Inkscape (http://www.inkscape.org/) -->

<svg
   width="50.329372mm"
   height="44.428383mm"
   viewBox="0 0 50.329372 44.428383"
   version="1.1"
   id="svg1"
   xml:space="preserve"
   xmlns:inkscape="http://www.inkscape.org/namespaces/inkscape"
   xmlns:sodipodi="http://sodipodi.sourceforge.net/DTD/sodipodi-0.dtd"
   xmlns="http://www.w3.org/2000/svg"
   xmlns:svg="http://www.w3.org/2000/svg"><sodipodi:namedview
     id="namedview1"
     pagecolor="#ffffff"
     bordercolor="#000000"
     borderopacity="0.25"
     inkscape:showpageshadow="2"
     inkscape:pageopacity="0.0"
     inkscape:pagecheckerboard="0"
     inkscape:deskcolor="#d1d1d1"
     inkscape:document-units="mm"
     inkscape:zoom="2.7868023"
     inkscape:cx="601.40614"
     inkscape:cy="253.15754"
     inkscape:window-width="1366"
     inkscape:window-height="705"
     inkscape:window-x="-8"
     inkscape:window-y="-8"
     inkscape:window-maximized="1"
     inkscape:current-layer="layer1"><inkscape:page
       x="0"
       y="-1.7197357e-13"
       width="50.329372"
       height="44.428387"
       id="page2"
       margin="0"
       bleed="0" /></sodipodi:namedview><defs
     id="defs1" /><g
     inkscape:label="Capa 1"
     inkscape:groupmode="layer"
     id="layer1"
     transform="translate(-236.88033,-82.610187)"><path
       style="fill:#ffffff;stroke:#ffffff;stroke-width:1.83005;stroke-linecap:round;stroke-opacity:0.221805"
       d="m 987.09778,453.47674 c -0.24381,-0.44817 -0.50876,-2.68856 -0.59553,-5.03569 l -0.1563,-4.22831 -0.94215,0.62431 c -2.08484,1.38152 -4.57228,2.61658 -5.28224,2.62271 -0.8419,0.007 -1.93949,-1.02886 -1.93949,-1.83092 0,-0.64222 2.28989,-2.86048 5.28225,-5.11703 2.74723,-2.07169 3.05392,-2.93709 2.90235,-8.1898 l -0.11083,-3.84098 -5.19096,3.40419 c -6.5149,4.27244 -9.12086,5.13455 -10.08348,3.33586 -0.2416,-0.45143 -0.24011,-0.89706 0.005,-1.3542 0.54762,-1.02324 4.24585,-3.84154 10.1565,-7.73996 l 5.29281,-3.49091 v -9.42891 c 0,-9.73714 -0.14518,-11.67161 -0.87593,-11.67161 -1.02052,0 -16.27044,9.4096 -16.89949,10.42742 -0.13499,0.21843 -0.62742,4.11965 -1.09427,8.66939 -0.46686,4.54974 -0.94405,8.57227 -1.06044,8.93896 -0.35792,1.1277 -1.23777,1.74747 -2.48079,1.74747 -0.92912,0 -1.23565,-0.17617 -1.40481,-0.80738 -0.119,-0.44406 -0.22104,-3.79467 -0.22676,-7.44581 -0.006,-3.65114 -0.16536,-6.88065 -0.35475,-7.17669 -0.29604,-0.46272 -0.61725,-0.39638 -2.28918,0.47278 -4.79973,2.49514 -5.60276,3.65099 -5.60666,8.07006 -0.003,2.98744 -0.593,5.20759 -1.64838,6.19907 -1.73905,1.63375 -3.58354,-0.4056 -4.03038,-4.45616 -0.21478,-1.94701 -0.34265,-2.22596 -1.0675,-2.32875 -0.46862,-0.0665 -1.55104,0.34964 -2.51184,0.9656 -2.93532,1.88179 -6.12682,2.06976 -6.45224,0.38001 -0.19351,-1.00481 1.52,-3.00715 3.8719,-4.52456 4.02862,-2.5992 3.88914,-2.2089 1.49153,-4.17376 -1.15981,-0.95047 -2.45791,-2.34939 -2.88467,-3.10869 -0.72645,-1.29256 -0.73751,-1.41896 -0.17345,-1.98302 0.80445,-0.80445 1.90508,-0.55474 6.3493,1.44054 1.97422,0.88635 4.06275,1.61155 4.64118,1.61155 1.0419,0 4.9947,-1.89178 6.71393,-3.21323 l 0.89246,-0.68598 -0.78466,-0.83136 c -0.43157,-0.45725 -2.97748,-2.03074 -5.65759,-3.49664 -4.77954,-2.6142 -7.36361,-4.5783 -7.36361,-5.59691 0,-0.28199 0.4054,-0.77834 0.9009,-1.103 0.84693,-0.55493 1.04979,-0.54242 3.38612,0.20881 1.36688,0.43951 5.42013,2.23543 9.00724,3.99095 3.58711,1.75551 6.65727,3.19184 6.82258,3.19184 0.33651,0 14.67318,-8.3105 16.21512,-9.39938 0.54274,-0.38327 0.98679,-0.85125 0.98679,-1.03995 0,-0.62101 -4.52374,-3.6398 -10.99286,-7.33579 l -6.36559,-3.63684 -6.13168,2.96061 c -3.37243,1.62834 -7.43773,3.41104 -9.034,3.96155 -2.8005,0.96582 -2.93552,0.97919 -3.84848,0.38099 -0.52038,-0.34096 -0.94614,-0.84471 -0.94614,-1.11942 0,-0.92143 3.20515,-3.3329 7.19918,-5.41648 6.87766,-3.58788 7.11012,-4.1208 2.85143,-6.53698 -3.46471,-1.96572 -4.48722,-1.97045 -8.7473,-0.0405 -1.8023,0.81649 -3.82037,1.50276 -4.4846,1.52505 -2.78735,0.0935 -2.23622,-2.6086 0.9668,-4.74013 1.09057,-0.72574 2.04363,-1.50701 2.11793,-1.73615 0.19945,-0.61514 -1.24707,-1.84239 -3.55562,-3.01666 -2.32994,-1.18515 -3.16568,-2.17553 -3.16568,-3.75148 0,-2.33474 1.6742,-2.56198 5.22804,-0.70959 2.3394,1.21938 3.86795,1.56552 4.24183,0.96057 0.1004,-0.16244 0.34577,-1.30891 0.54527,-2.54772 0.44774,-2.78018 0.82548,-3.25711 2.57973,-3.25711 1.91014,0 2.35494,0.84436 2.64637,5.02368 0.28081,4.02696 0.64629,5.37721 1.7241,6.36965 0.67506,0.6216 6.54326,4.03654 6.93635,4.03654 0.0722,0 0.0279,-3.43628 -0.0984,-7.63618 -0.25528,-8.48537 -0.12257,-9.22903 1.64687,-9.22903 0.56326,0 1.36048,0.28258 1.77158,0.62796 0.86656,0.72802 1.19152,2.97795 1.87872,13.00774 0.23664,3.45378 0.58423,6.47738 0.77242,6.71913 0.35236,0.45262 12.3989,7.28256 15.42212,8.74376 0.93312,0.45101 1.82124,0.69557 1.97359,0.54348 0.15235,-0.15209 0.33019,-4.83147 0.3952,-10.39862 l 0.1182,-10.12209 -5.3213,-3.53849 c -6.24311,-4.15146 -9.19914,-6.40571 -9.99734,-7.62391 -0.52773,-0.80542 -0.52818,-0.95388 -0.005,-1.7519 1.18015,-1.80113 3.94357,-0.7977 10.93525,3.97071 2.17165,1.4811 4.03468,2.6929 4.14008,2.6929 0.41581,0 0.17138,-8.45171 -0.26964,-9.32333 -0.24787,-0.48991 -1.90055,-1.87189 -3.6726,-3.07107 -1.77206,-1.19919 -3.58725,-2.72244 -4.03375,-3.38502 -0.71556,-1.06181 -0.75329,-1.29337 -0.3181,-1.95261 0.85125,-1.28952 2.63985,-1.14713 5.73961,0.45692 l 2.74611,1.42105 0.01,-0.95412 c 0.0264,-2.58991 0.70581,-7.69585 1.08481,-8.15252 0.23735,-0.286 1.04597,-0.51653 1.8118,-0.51653 1.99639,0 2.38194,0.80729 2.68259,5.61692 l 0.25017,4.00217 2.65943,-1.40062 c 1.53312,-0.80743 3.16056,-1.40062 3.84269,-1.40062 1.24345,0 2.37105,0.8917 2.37105,1.87497 0,0.71387 -1.77753,2.27706 -4.90624,4.31476 -3.9001,2.54008 -3.86639,2.47405 -4.00349,7.84132 -0.065,2.54558 -0.0199,4.62833 0.10029,4.62833 0.12018,0 2.17197,-1.30873 4.55954,-2.9083 6.9464,-4.65376 9.8873,-5.67659 10.7675,-3.74483 0.7767,1.70474 -0.7268,3.09804 -9.84715,9.12545 l -5.64137,3.72824 v 7.61061 c 0,9.91884 0.25865,13.1014 1.06474,13.1014 0.78943,0 8.36218,-4.35059 13.06588,-7.50646 4.2918,-2.87942 3.868,-1.92151 4.696,-10.61467 0.8292,-8.70556 1.1819,-10.51257 2.1797,-11.16635 1.1833,-0.77532 2.4138,-0.51222 2.716,0.58074 0.1364,0.4934 0.2642,4.2477 0.2838,8.3429 0.02,4.09519 0.1321,7.44581 0.2499,7.44581 0.7129,0 6.364,-4.12567 6.9333,-5.06177 0.3779,-0.62143 0.7913,-2.11851 0.9187,-3.32685 0.6228,-5.90801 1.235,-7.40515 3.0237,-7.39459 1.903,0.0112 2.6611,1.35997 2.4896,4.42913 l -0.1231,2.20381 1.1346,-0.0495 c 0.624,-0.0272 2.3473,-0.63274 3.8294,-1.34563 1.4822,-0.71288 3.0996,-1.29615 3.5943,-1.29615 1.3372,0 2.1379,0.97187 1.8767,2.2779 -0.2866,1.43312 -1.0107,2.18197 -3.414,3.53051 -3.6399,2.04251 -4.1598,3.07558 -2.0966,4.16593 0.6362,0.3362 1.6964,1.13056 2.3561,1.76524 0.964,0.92752 1.1771,1.38524 1.086,2.33243 -0.1079,1.12206 -0.182,1.17715 -1.5487,1.15136 -0.8905,-0.0168 -2.6459,-0.59564 -4.6248,-1.52505 -4.2564,-1.99905 -5.3249,-1.98402 -8.9287,0.12556 -2.8973,1.69601 -3.3509,2.43042 -2.1455,3.47348 0.3454,0.29886 2.6236,1.62087 5.0627,2.93778 5.0195,2.71013 6.7401,3.91318 7.0663,4.94083 0.2686,0.84648 -0.7251,2.09543 -1.6673,2.09543 -1.275,0 -6.0091,-1.94777 -11.9236,-4.90571 l -6.037,-3.01925 -7.0368,4.04931 c -8.74932,5.03486 -9.77531,5.76175 -9.77531,6.92574 0,1.19291 1.38498,2.1601 9.79191,6.83812 l 6.8335,3.80249 6.6686,-3.2188 c 3.6678,-1.77034 7.7833,-3.56132 9.1457,-3.97996 2.2614,-0.6949 2.5504,-0.71312 3.3192,-0.20936 2.164,1.4179 0.806,2.64594 -8.9408,8.08502 -1.5321,0.855 -3.0478,1.84414 -3.3681,2.19808 -0.5415,0.59831 -0.5222,0.69317 0.2739,1.34979 1.5518,1.2799 5.753,3.25575 6.9226,3.25575 0.6316,0 2.4683,-0.63833 4.0816,-1.4185 4.0148,-1.9415 5.6396,-2.40755 6.347,-1.82046 1.3386,1.11088 0.2359,3.23113 -2.5203,4.8464 -2.068,1.2119 -2.022,2.05175 0.1993,3.64601 4.3973,3.15594 5.7321,4.95691 4.55,6.13902 -0.9229,0.92296 -2.8892,0.58573 -5.9756,-1.02487 -3.4787,-1.81539 -3.8096,-1.67888 -4.0222,1.65924 -0.1497,2.35042 -0.8373,3.78674 -2.2172,4.6312 -1.5376,0.94097 -3.1,-2.86089 -3.1,-7.54325 0,-1.40857 -0.2211,-2.76016 -0.5582,-3.41197 -0.8171,-1.58012 -6.5756,-5.14765 -7.2387,-4.48456 -0.1311,0.13111 -0.3303,3.50345 -0.4427,7.49411 -0.1124,3.99066 -0.3325,7.45759 -0.489,7.70429 -0.4181,0.65887 -2.1983,0.54622 -2.8355,-0.17941 -0.8364,-0.95258 -0.9217,-1.43187 -1.8553,-10.43361 -0.732,-7.05797 -0.9712,-8.44793 -1.5288,-8.88215 -1.7465,-1.36001 -9.4874,-6.12172 -12.81452,-7.88265 -3.34331,-1.76952 -3.75997,-1.90856 -4.00906,-1.33785 -0.15288,0.35029 -0.35095,5.08087 -0.44016,10.5124 l -0.16219,9.8755 6.2294,4.11903 c 5.98403,3.95678 9.63833,6.922 9.63833,7.82083 0,0.92034 -1.4156,1.87819 -2.4276,1.64256 -1.7412,-0.40543 -5.1939,-2.30536 -9.12894,-5.02333 -2.11288,-1.4594 -3.94532,-2.65345 -4.07209,-2.65345 -0.12678,0 -0.17429,2.16711 -0.10558,4.81581 0.14222,5.48333 0.22293,5.65423 3.73826,7.91638 3.10252,1.99649 4.46045,3.37144 4.46045,4.5164 0,2.10138 -2.5033,2.25512 -5.34625,0.32835 -1.11959,-0.75879 -1.70596,-0.96396 -2.01707,-0.70577 -0.24123,0.20021 -0.62764,1.83802 -0.85867,3.63959 -0.59281,4.62241 -1.02439,5.31027 -3.33782,5.31981 -1.01634,0.004 -1.43734,-0.1863 -1.77223,-0.80188 z"
       id="path20161"
       transform="scale(0.26458333)" /><path
       style="fill:#ffffff;stroke:#ffffff;stroke-width:1.83005;stroke-linecap:round;stroke-opacity:0.221805"
       d="m 1066.4255,390.26036 c -6.6254,-6.13191 -9.4193,-9.0538 -9.1201,-9.53781 0.3862,-0.62493 2.1971,-0.38729 3.2704,0.42918 0.5694,0.43309 2.2463,1.92907 3.7265,3.32438 4.0021,3.77259 5.3657,4.74628 5.7645,4.11611 0.4202,-0.66394 0.4214,-0.63369 -0.1923,-4.70497 -3.3007,-21.89714 -16.5459,-42.40737 -35.5349,-55.02611 -10.3375,-6.8696 -21.8746,-11.32961 -31.9088,-12.33532 -4.97476,-0.49861 -18.00821,-0.50828 -22.86508,-0.017 -13.12515,1.32772 -26.15427,6.65566 -37.94177,15.51534 -12.11695,9.10731 -21.81932,22.25692 -27.12991,36.76919 -2.01825,5.51526 -3.74767,9.1531 -4.45095,9.36258 -0.80332,0.23928 -0.30218,-4.66019 0.82017,-8.01848 1.2613,-3.77401 6.40587,-14.11828 9.31806,-18.73594 5.02937,-7.97473 9.74825,-13.52872 15.67412,-18.44799 5.45364,-4.52724 11.32804,-8.30043 18.10532,-11.6292 12.41514,-6.09791 21.51594,-8.13199 36.60109,-8.18055 8.90048,-0.0287 12.80845,0.41257 20.12095,2.27172 23.7147,6.02925 43.0214,21.66908 54.0416,43.77752 3.6378,7.29813 6.2166,15.05147 8.0263,24.1316 0.5408,2.71368 1.0924,4.93397 1.2258,4.93397 0.1333,0 1.7394,-1.93539 3.5691,-4.30086 3.3847,-4.37594 5.0756,-6.10533 5.9692,-6.10533 0.6897,0 1.3782,1.36907 0.959,1.90681 -2.0712,2.65694 -9.0184,11.36999 -10.5459,13.22651 l -1.9703,2.39471 z"
       id="path20162"
       transform="scale(0.26458333)" /><path
       style="fill:#ffffff;stroke:#ffffff;stroke-width:1.83005;stroke-linecap:round;stroke-opacity:0.221805"
       d="m 984.46167,479.03502 c -25.8948,-1.87714 -49.84227,-15.9567 -64.02399,-37.64194 -6.02639,-9.21496 -9.35475,-17.38829 -12.14933,-29.8347 -0.73418,-3.26988 -1.49635,-5.93575 -1.69371,-5.92415 -0.19736,0.0116 -1.79038,1.87957 -3.54004,4.15106 -4.68778,6.08588 -5.86372,7.1658 -6.79203,6.23749 -0.64644,-0.64644 6.20843,-10.64976 10.40478,-15.18371 l 1.72146,-1.85996 3.89832,3.13744 c 5.4424,4.38015 9.89206,8.39504 10.5606,9.52874 0.46496,0.78846 0.48356,1.05866 0.10434,1.51559 -0.6462,0.77862 -1.63727,0.21407 -6.01111,-3.4241 -3.71451,-3.08974 -5.38772,-4.25056 -6.13002,-4.25278 -2.10051,-0.006 2.88816,17.16422 7.83932,26.98216 5.72238,11.34722 15.5637,22.65249 25.44256,29.22728 5.75263,3.82862 13.62183,7.88282 20.09608,10.35349 11.89703,4.54008 30.63772,5.4369 44.4941,2.12924 13.902,-3.31857 26.0989,-10.08674 36.9978,-20.53045 9.2896,-8.90172 15.5359,-18.18633 19.4868,-28.96543 2.6235,-7.15791 4.6186,-12.01724 5.0968,-12.41407 1.5366,-1.27529 0.8485,3.74892 -1.4606,10.66489 -3.8844,11.63372 -9.9525,21.57769 -18.6528,30.56658 -7.1261,7.36253 -13.9971,12.35018 -23.3469,16.94746 -13.4431,6.60999 -28.24142,9.61207 -42.34243,8.58987 z"
       id="path20163"
       transform="scale(0.26458333)" /></g></svg>
