<?xml version="1.0" encoding="UTF-8" standalone="no"?>
<!-- Created with Inkscape (http://www.inkscape.org/) -->

<svg
   width="398.76675mm"
   height="349.23245mm"
   viewBox="0 0 398.76675 349.23245"
   version="1.1"
   id="svg1"
   inkscape:version="1.3.2 (091e20e, 2023-11-25, custom)"
   sodipodi:docname="aletas.svg"
   xmlns:inkscape="http://www.inkscape.org/namespaces/inkscape"
   xmlns:sodipodi="http://sodipodi.sourceforge.net/DTD/sodipodi-0.dtd"
   xmlns="http://www.w3.org/2000/svg"
   xmlns:svg="http://www.w3.org/2000/svg">
  <sodipodi:namedview
     id="namedview1"
     pagecolor="#ffffff"
     bordercolor="#000000"
     borderopacity="0.25"
     inkscape:showpageshadow="2"
     inkscape:pageopacity="0.0"
     inkscape:pagecheckerboard="0"
     inkscape:deskcolor="#d1d1d1"
     inkscape:document-units="mm"
     inkscape:zoom="0.11313709"
     inkscape:cx="7941.693"
     inkscape:cy="260.74563"
     inkscape:window-width="1366"
     inkscape:window-height="705"
     inkscape:window-x="-8"
     inkscape:window-y="-8"
     inkscape:window-maximized="1"
     inkscape:current-layer="layer1" />
  <defs
     id="defs1">
    <marker
       style="overflow:visible"
       id="DartArrow"
       refX="0"
       refY="0"
       orient="auto-start-reverse"
       inkscape:stockid="Dart arrow"
       markerWidth="1"
       markerHeight="1"
       viewBox="0 0 1 1"
       inkscape:isstock="true"
       inkscape:collect="always"
       preserveAspectRatio="xMidYMid">
      <path
         style="fill:context-stroke;fill-rule:evenodd;stroke:none"
         d="M 0,0 5,-5 -12.5,0 5,5 Z"
         transform="scale(-0.5)"
         id="path6" />
    </marker>
    <inkscape:path-effect
       effect="spiro"
       id="path-effect1"
       is_visible="true"
       lpeversion="1" />
  </defs>
  <g
     inkscape:label="Capa 1"
     inkscape:groupmode="layer"
     id="layer1"
     transform="translate(-1733.0389,-963.33512)">
    <path
       id="polygon1-3-3-1"
       clip-path="url(#border_clip)"
       d="m 1739.0392,1222.5674 -3.0003,3.0003 3.0003,2.9998 -3.0003,3.0004 3.0003,2.9998 -3.0003,2.9998 3.0003,3.0003 2.9998,-3.0003 2.9999,3.0003 3.0003,-3.0003 2.9998,3.0003 -2.9998,2.9999 2.9998,2.9998 -2.9998,3.0003 -3.0003,-3.0003 -2.9999,3.0003 -2.9998,-3.0003 -3.0003,3.0003 3.0003,2.9998 -3.0003,2.9998 3.0003,3.0004 -3.0003,2.9998 3.0003,2.9998 2.9998,-2.9998 2.9999,2.9998 3.0003,-2.9998 2.9998,2.9998 2.9998,-2.9998 -2.9998,-2.9998 2.9998,-3.0004 -2.9998,-2.9998 2.9998,-2.9998 3.0004,2.9998 2.9998,-2.9998 2.9998,2.9998 -2.9998,2.9998 2.9998,3.0004 -2.9998,2.9998 2.9998,2.9998 3.0003,-2.9998 2.9998,2.9998 2.9999,-2.9998 3.0003,2.9998 -3.0003,3.0003 3.0003,2.9999 -3.0003,3.0003 -2.9999,-3.0003 -2.9998,3.0003 -3.0003,-3.0003 -2.9998,3.0003 2.9998,2.9998 -2.9998,2.9998 2.9998,3.0004 -2.9998,2.9998 -2.9998,-2.9998 -3.0004,2.9998 -2.9998,-2.9998 2.9998,-3.0004 -2.9998,-2.9998 2.9998,-2.9998 -2.9998,-3.0003 -2.9998,3.0003 -3.0003,-3.0003 -2.9999,3.0003 -2.9998,-3.0003 -3.0003,3.0003 3.0003,2.9998 -3.0003,2.9998 3.0003,3.0004 -3.0003,2.9998 3.0003,2.9998 2.9998,-2.9998 2.9999,2.9998 3.0003,-2.9998 2.9998,2.9998 -2.9998,3.0003 2.9998,2.9998 -2.9998,2.9999 -3.0003,-2.9999 -2.9999,2.9999 -2.9998,-2.9999 -3.0003,2.9999 3.0003,3.0003 -3.0003,2.9998 3.0003,2.9998 -3.0003,3.0004 3.0003,2.9998 2.9998,-2.9998 2.9999,2.9998 3.0003,-2.9998 2.9998,2.9998 2.9998,-2.9998 -2.9998,-3.0004 2.9998,-2.9998 -2.9998,-2.9998 2.9998,-3.0003 3.0004,3.0003 2.9998,-3.0003 2.9998,3.0003 -2.9998,2.9998 2.9998,2.9998 -2.9998,3.0004 2.9998,2.9998 3.0003,-2.9998 2.9998,2.9998 2.9999,-2.9998 3.0003,2.9998 2.9998,-2.9998 -2.9998,-3.0004 2.9998,-2.9998 -2.9998,-2.9998 2.9998,-3.0003 -2.9998,-2.9999 -3.0003,2.9999 -2.9999,-2.9999 -2.9998,2.9999 -3.0003,-2.9999 3.0003,-2.9998 -3.0003,-3.0003 3.0003,-2.9998 2.9998,2.9998 2.9999,-2.9998 3.0003,2.9998 2.9998,-2.9998 -2.9998,-2.9998 2.9998,-3.0004 -2.9998,-2.9998 2.9998,-2.9998 3.0003,2.9998 2.9942,-2.9941 2.9946,2.9941 -3.0003,2.9998 3.0003,3.0004 -3.0003,2.9998 3.0003,2.9998 v -0.01 l 0.01,0.01 2.9947,-2.9942 2.9941,2.9942 0.01,-0.01 0.01,0.01 2.9941,-2.9942 2.9947,2.9942 -2.9998,3.0003 2.9998,2.9998 -2.9947,2.9947 -2.9941,-2.9947 -0.01,0.01 -0.01,-0.01 -2.9941,2.9942 -2.9947,-2.9942 -0.01,0.01 v -0.01 l -3.0003,2.9999 3.0003,3.0003 -3.0003,2.9998 3.0003,2.9998 -3.0003,3.0004 3.0003,2.9998 v -0.01 l 0.01,0.01 2.9947,-2.9942 2.9941,2.9942 0.01,-0.01 0.01,0.01 2.9941,-2.9947 2.9947,2.9947 0.01,-0.01 0.01,0.01 2.9998,-2.9998 -2.9998,-3.0004 2.9998,-2.9998 -2.9998,-2.9998 2.9941,-2.9947 2.9947,2.9947 0.01,-0.01 0.01,0.01 2.9946,-2.9947 2.9941,2.9947 -2.9998,2.9998 2.9998,2.9998 -2.9998,3.0004 2.9998,2.9998 0.01,-0.01 0.01,0.01 2.9942,-2.9947 2.9946,2.9947 0.01,-0.01 0.01,0.01 2.9942,-2.9942 2.9946,2.9942 v -0.01 l 0.01,0.01 3.0003,-2.9998 -3.0003,-3.0004 3.0003,-2.9998 -3.0003,-2.9998 3.0003,-3.0003 -3.0003,-2.9999 -0.01,0.01 v -0.01 l -2.9946,2.9942 -2.9942,-2.9942 -0.01,0.01 -0.01,-0.01 -2.9946,2.9947 -2.9942,-2.9946 2.9999,-2.9999 -2.9999,-3.0003 2.9942,-2.9941 2.9946,2.9941 0.01,-0.01 0.01,0.01 2.9942,-2.9941 2.9946,2.9941 v -0.01 l 0.01,0.01 3.0003,-2.9998 -3.0003,-2.9998 3.0003,-3.0004 -3.0003,-2.9998 2.9947,-2.9941 2.9946,2.9941 2.9854,-2.9853 2.9848,2.9853 -2.9998,2.9998 2.9998,3.0004 -2.9998,2.9998 2.9998,2.9998 0.015,-0.014 0.014,0.014 2.9853,-2.9853 2.9854,2.9853 0.015,-0.014 0.014,0.014 2.9853,-2.9853 2.9854,2.9853 -3.0003,3.0003 3.0003,2.9998 -2.9854,2.9854 -2.9853,-2.9854 -0.014,0.015 -0.015,-0.015 -2.9854,2.9854 -2.9853,-2.9854 -0.014,0.014 -0.015,-0.014 -2.9998,2.9999 2.9998,3.0003 -2.9998,2.9998 2.9998,2.9998 -2.9998,3.0004 2.9998,2.9998 0.015,-0.014 0.014,0.014 2.9853,-2.9854 2.9854,2.9854 0.015,-0.015 0.014,0.015 2.9853,-2.9854 2.9854,2.9854 0.014,-0.014 0.015,0.014 2.9998,-2.9998 -2.9998,-3.0004 2.9998,-2.9998 -2.9998,-2.9998 2.9853,-2.9853 2.9848,2.9853 0.015,-0.015 0.014,0.015 2.9854,-2.9854 2.9853,2.9854 -2.9998,2.9998 2.9998,2.9998 -2.9998,3.0003 2.9998,2.9999 0.015,-0.014 0.015,0.014 2.9854,-2.9854 2.9853,2.9854 0.014,-0.014 0.015,0.014 2.9854,-2.9854 2.9854,2.9854 0.014,-0.014 0.015,0.014 2.9998,-2.9999 -2.9998,-3.0003 2.9998,-2.9998 -2.9998,-2.9998 2.9998,-3.0004 -2.9998,-2.9998 -0.015,0.014 -0.014,-0.014 -2.9854,2.9854 -2.9854,-2.9854 -0.015,0.014 -0.014,-0.014 -2.9853,2.9854 -2.9853,-2.9853 2.9998,-2.9999 -2.9998,-3.0003 2.9853,-2.9853 2.9853,2.9853 0.014,-0.014 0.015,0.014 2.9854,-2.9854 2.9854,2.9854 0.014,-0.014 0.015,0.014 2.9998,-2.9998 -2.9998,-2.9999 2.9998,-3.0003 -2.9998,-2.9998 2.9848,-2.9854 2.9853,2.9854 3.0004,-2.9998 2.9998,2.9998 -2.9998,2.9998 2.9998,3.0003 -2.9998,2.9999 2.9998,2.9998 2.9998,-2.9998 3.0003,2.9998 2.9999,-2.9998 2.9998,2.9998 -2.9998,3.0003 2.9998,2.9998 -2.9998,2.9999 -2.9999,-2.9999 -3.0003,2.9999 -2.9998,-2.9999 -2.9998,2.9999 2.9998,3.0003 -2.9998,2.9998 2.9998,2.9998 -2.9998,3.0004 2.9998,2.9998 2.9998,-2.9998 3.0003,2.9998 2.9999,-2.9998 2.9998,2.9998 3.0003,-2.9998 -3.0003,-3.0004 3.0003,-2.9998 -3.0003,-2.9998 3.0003,-3.0003 2.9998,3.0003 3.0004,-3.0003 2.9998,3.0003 -2.9998,2.9998 2.9998,2.9998 -2.9998,3.0004 2.9998,2.9998 2.9998,-2.9998 3.0003,2.9998 2.9999,-2.9998 2.9998,2.9998 3.0003,-2.9998 -3.0003,-3.0004 3.0003,-2.9998 -3.0003,-2.9998 3.0003,-3.0003 -3.0003,-2.9999 -2.9998,2.9999 -2.9999,-2.9999 -3.0003,2.9999 -2.9998,-2.9999 2.9998,-2.9998 -2.9998,-3.0003 2.9998,-2.9998 3.0003,2.9998 2.9999,-2.9998 2.9998,2.9998 3.0003,-2.9998 -3.0003,-2.9998 3.0003,-3.0004 -3.0003,-2.9998 3.0003,-2.9998 -3.0003,-3.0003 -2.9998,3.0003 -2.9999,-3.0003 -3.0003,3.0003 -2.9998,-3.0003 -2.9998,3.0003 2.9998,2.9998 -2.9998,2.9998 2.9998,3.0004 -2.9998,2.9998 -3.0004,-2.9998 -2.9998,2.9998 -3.0003,-2.9998 3.0003,-3.0004 -3.0003,-2.9998 3.0003,-2.9998 -3.0003,-3.0003 -2.9998,3.0003 -2.9999,-3.0003 -3.0003,3.0003 -2.9998,-3.0003 2.9998,-2.9999 -2.9998,-3.0003 2.9998,-2.9998 3.0003,2.9998 2.9999,-2.9998 2.9998,2.9998 3.0003,-2.9998 -3.0003,-2.9998 3.0003,-3.0004 -3.0003,-2.9998 3.0003,-2.9998 2.9998,2.9998 3.0004,-2.9998 2.9998,2.9998 -2.9998,2.9998 2.9998,3.0004 -2.9998,2.9998 2.9998,2.9998 2.9998,-2.9998 3.0003,2.9998 2.9999,-2.9998 2.9998,2.9998 3.0003,-2.9998 -3.0003,-2.9998 3.0003,-3.0004 -3.0003,-2.9998 3.0003,-2.9998 -3.0003,-3.0003 -2.9998,3.0003 -2.9999,-3.0003 -3.0003,3.0003 -2.9998,-3.0003 2.9998,-2.9999 -2.9998,-2.9998 2.9998,-3.0003 3.0003,3.0003 2.9999,-3.0003 2.9998,3.0003 3.0003,-3.0003 -3.0003,-2.9998 3.0003,-2.9998 -3.0003,-3.0004 3.0003,-2.9998 -3.0003,-3.0003 -2.9998,3.0003 -2.9999,-3.0003 -3.0003,3.0003 -2.9998,-3.0003 -2.9998,3.0003 2.9998,2.9998 -2.9998,3.0004 2.9998,2.9998 -2.9998,2.9998 -3.0004,-2.9998 -2.9998,2.9998 -3.0003,-2.9998 3.0003,-2.9998 -3.0003,-3.0004 3.0003,-2.9998 -3.0003,-3.0003 -2.9998,3.0003 -2.9999,-3.0003 -3.0003,3.0003 -2.9998,-3.0003 -2.9998,3.0003 2.9998,2.9998 -2.9998,3.0004 2.9998,2.9998 -2.9998,2.9998 2.9998,3.0003 2.9998,-3.0003 3.0003,3.0003 2.9999,-3.0003 2.9998,3.0003 -2.9998,2.9998 2.9998,2.9999 -2.9998,3.0003 -2.9999,-3.0003 -3.0003,3.0003 -2.9998,-3.0003 -2.9998,3.0003 2.9998,2.9998 -2.9998,2.9998 2.9998,3.0004 -2.9998,2.9998 -3.0004,-2.9998 -2.9853,2.9853 -2.9848,-2.9853 2.9998,-3.0004 -2.9998,-2.9998 2.9998,-2.9998 -2.9998,-3.0003 -0.015,0.015 -0.014,-0.015 -2.9854,2.9853 -2.9854,-2.9854 -0.015,0.015 -0.014,-0.015 -2.9853,2.9859 -2.9853,-2.9859 2.9998,-2.9998 -2.9998,-2.9998 2.9853,-2.9859 2.9853,2.9859 0.014,-0.015 0.015,0.015 2.9854,-2.9853 2.9854,2.9853 0.014,-0.015 0.015,0.015 2.9998,-3.0003 -2.9998,-2.9998 2.9998,-2.9999 -2.9998,-3.0003 2.9998,-2.9998 -2.9998,-3.0003 -0.015,0.015 -0.014,-0.015 -2.9854,2.9853 -2.9854,-2.9853 -0.015,0.015 -0.014,-0.015 -2.9853,2.9858 -2.9854,-2.9858 -0.015,0.015 -0.015,-0.015 -2.9998,3.0003 2.9998,2.9998 -2.9998,3.0003 2.9998,2.9999 -2.9853,2.9853 -2.9854,-2.9853 -0.014,0.014 -0.015,-0.014 -2.9848,2.9848 -2.9853,-2.9848 2.9998,-2.9999 -2.9998,-3.0003 2.9998,-2.9998 -2.9998,-3.0003 -0.015,0.015 -0.014,-0.015 -2.9854,2.9853 -2.9853,-2.9853 -0.014,0.015 -0.015,-0.015 -2.9854,2.9853 -2.9853,-2.9853 -0.014,0.015 -0.015,-0.015 -2.9998,3.0003 2.9998,2.9998 -2.9998,3.0003 2.9998,2.9999 -2.9998,2.9998 2.9998,3.0003 0.015,-0.015 0.014,0.015 2.9853,-2.9853 2.9854,2.9853 0.015,-0.015 0.014,0.015 2.9853,-2.9853 2.9854,2.9853 -3.0003,2.9998 3.0003,2.9998 -2.9854,2.9854 -2.9853,-2.9854 -0.014,0.015 -0.015,-0.015 -2.9854,2.9854 -2.9853,-2.9854 -0.014,0.015 -0.015,-0.015 -2.9998,3.0004 2.9998,2.9998 -2.9998,2.9998 2.9998,3.0003 -2.9848,2.9854 -2.9854,-2.9854 -2.9946,2.9942 -2.9947,-2.9942 3.0004,-3.0003 -3.0004,-2.9998 3.0004,-2.9998 -3.0004,-3.0004 -0.01,0.01 v -0.01 l -2.9946,2.9947 -2.9942,-2.9947 -0.01,0.01 -0.01,-0.01 -2.9946,2.9947 -2.9941,-2.9947 2.9998,-2.9998 -2.9998,-2.9998 2.9941,-2.9947 2.9946,2.9947 0.01,-0.01 0.01,0.01 2.9942,-2.9947 2.9946,2.9947 v -0.01 l 0.01,0.01 3.0003,-3.0003 -3.0003,-2.9999 3.0004,-2.9998 -3.0004,-3.0003 3.0003,-2.9998 -3.0003,-3.0004 -0.01,0.01 v -0.01 l -2.9946,2.9947 -2.9942,-2.9947 -0.01,0.01 -0.01,-0.01 -2.9946,2.9947 -2.9941,-2.9947 -0.01,0.01 -0.01,-0.01 -2.9999,3.0004 2.9999,2.9998 -2.9999,3.0003 2.9999,2.9998 -2.9942,2.9942 -2.9946,-2.9942 h -0.01 -0.01 l -2.9947,2.9942 -2.9941,-2.9942 2.9998,-2.9998 -2.9998,-3.0003 2.9998,-2.9998 -2.9998,-3.0004 -0.01,0.01 -0.01,-0.01 -2.9947,2.9947 -2.9941,-2.9947 -0.01,0.01 -0.01,-0.01 -2.9941,2.9947 -2.9947,-2.9947 -0.01,0.01 v -0.01 l -3.0003,3.0004 3.0003,2.9998 -3.0003,3.0003 3.0003,2.9998 -3.0003,2.9999 3.0003,3.0003 v -0.01 l 0.01,0.01 2.9947,-2.9947 2.9941,2.9947 0.01,-0.01 0.01,0.01 2.9941,-2.9947 2.9947,2.9947 -2.9998,2.9998 2.9998,2.9998 -2.9946,2.9947 -2.9942,-2.9947 -0.01,0.01 -0.01,-0.01 -2.9941,2.9947 -2.9947,-2.9947 -0.01,0.01 v -0.01 l -3.0003,3.0004 3.0003,2.9998 -3.0003,2.9998 3.0003,3.0003 -2.9946,2.9942 -2.9942,-2.9942 -3.0003,2.9998 -2.9998,-2.9998 2.9998,-3.0003 -2.9998,-2.9998 2.9998,-2.9998 -2.9998,-3.0004 -3.0003,3.0004 -2.9999,-3.0004 -2.9998,3.0004 -3.0003,-3.0004 3.0003,-2.9998 -3.0003,-2.9998 3.0003,-3.0003 2.9998,3.0003 2.9999,-3.0003 3.0003,3.0003 2.9998,-3.0003 -2.9998,-2.9999 2.9998,-2.9998 -2.9998,-3.0003 2.9998,-2.9998 -2.9998,-3.0004 -3.0003,3.0004 -2.9998,-3.0004 -2.9999,3.0004 -3.0003,-3.0004 -2.9998,3.0004 2.9998,2.9998 -2.9998,3.0003 2.9998,2.9998 -2.9998,2.9999 -2.9998,-2.9999 -3.0004,2.9999 -2.9998,-2.9999 2.9998,-2.9998 -2.9998,-3.0003 2.9998,-2.9998 -2.9998,-3.0004 -2.9998,3.0004 -3.0003,-3.0004 -2.9999,3.0004 z m 62.9941,27.0061 2.9947,2.9941 v -0.01 l 0.01,0.01 2.9946,-2.9941 2.9941,2.9941 -2.9998,2.9999 2.9998,3.0003 -2.9998,2.9998 2.9998,2.9998 0.01,-0.01 0.01,0.01 2.9942,-2.9946 2.9946,2.9946 0.01,-0.01 0.01,0.01 2.9941,-2.9941 2.9947,2.9941 -3.0003,3.0004 3.0003,2.9998 -2.9947,2.9946 -2.9941,-2.9946 -0.01,0.01 -0.01,-0.01 -2.9946,2.9946 -2.9942,-2.9946 -0.01,0.01 -0.01,-0.01 -2.9998,3.0003 2.9998,2.9998 -2.9998,2.9998 2.9998,3.0004 -2.9941,2.9941 -2.9946,-2.9941 -0.01,0.01 v -0.01 l -2.9947,2.9941 -2.9941,-2.9941 2.9998,-3.0004 -2.9998,-2.9998 2.9998,-2.9998 -2.9998,-3.0003 -0.01,0.01 -0.01,-0.01 -2.9947,2.9946 -2.9941,-2.9946 -0.01,0.01 -0.01,-0.01 -2.9941,2.9946 -2.9947,-2.9946 3.0003,-2.9998 -3.0003,-3.0004 2.9947,-2.9941 2.9941,2.9941 0.01,-0.01 0.01,0.01 2.9941,-2.9946 2.9947,2.9946 0.01,-0.01 0.01,0.01 2.9998,-2.9998 -2.9998,-2.9998 2.9998,-3.0004 -2.9998,-2.9998 z m 53.9797,0.01 2.9853,2.9853 -2.9998,2.9999 2.9998,3.0003 -2.9998,2.9998 2.9998,2.9998 0.015,-0.014 0.014,0.014 2.9853,-2.9853 2.9854,2.9853 0.014,-0.014 0.015,0.014 2.9853,-2.9853 2.9854,2.9853 -3.0003,3.0004 3.0003,2.9998 -2.9854,2.9853 -2.9853,-2.9853 -0.015,0.015 -0.014,-0.015 -2.9854,2.9858 -2.9853,-2.9858 -0.014,0.015 -0.015,-0.015 -2.9998,3.0003 2.9998,2.9998 -2.9998,2.9998 2.9998,3.0004 -2.9853,2.9853 -2.9854,-2.9853 -0.014,0.014 -0.015,-0.014 -2.9848,2.9848 -2.9854,-2.9848 2.9999,-3.0004 -2.9999,-2.9998 2.9999,-2.9998 -2.9999,-3.0003 -0.015,0.015 -0.014,-0.015 -2.9853,2.9853 -2.9854,-2.9853 -0.014,0.015 -0.015,-0.015 -2.9853,2.9853 -2.9854,-2.9853 3.0004,-2.9998 -3.0004,-3.0004 2.9854,-2.9853 2.9853,2.9853 0.015,-0.015 0.014,0.015 2.9854,-2.9853 2.9853,2.9853 0.014,-0.014 0.015,0.014 2.9999,-2.9998 -2.9999,-2.9998 2.9999,-3.0003 -2.9999,-2.9999 2.9854,-2.9848 2.9848,2.9848 0.015,-0.014 0.014,0.014 z"
       style="fill:#ffffff;fill-opacity:1;stroke-width:0.424264"
       inkscape:export-filename="..\propuestaTesisDefrost\imagenes\euclidiana-fractal.svg"
       inkscape:export-xdpi="96"
       inkscape:export-ydpi="96" />
    <path
       id="polygon1-0-3-1-9-3-5-3-8-3"
       clip-path="url(#border_clip)"
       d="m 1944.8826,1114.7546 v 3.4613 3.4618 h 3.4618 3.4613 v 3.4613 3.4618 h -3.4613 v -3.4618 h -3.4618 v 3.4618 3.4613 h 3.4618 3.4613 v 3.4618 3.4613 h -3.4613 v -3.4613 h -3.4618 v 3.4613 3.4618 h 3.4618 3.4613 3.4618 3.4613 v -3.4618 h -3.4613 v -3.4613 h 3.4613 3.4619 v 3.4613 3.4618 h 3.4612 3.4618 v -3.4618 h -3.4618 v -3.4613 h 3.4618 3.4613 v 3.4613 3.4618 3.4613 3.4618 h -3.4613 v -3.4618 h -3.4618 v 3.4618 3.4613 h 3.4618 3.4613 v 3.4618 h -3.4613 v 3.4613 h 3.4613 v 3.4617 h -3.4613 -3.4618 v -3.4617 -3.4613 h -3.4612 -3.4619 v 3.4613 h 3.4619 v 3.4617 h -3.4619 -3.4613 v -3.4617 -3.4613 -3.4618 -3.4613 h 3.4613 v 3.4613 h 3.4619 v -3.4613 -3.4618 h -3.4619 -3.4613 -3.4618 v 3.4618 h -3.4613 v -3.4618 h -3.4618 v 3.4618 3.4613 h 3.4618 3.4613 v 3.4618 3.4613 h -3.4613 v -3.4613 h -3.4618 v 3.4613 3.4617 h 3.4618 3.4613 v 3.4614 3.4612 h -3.4613 v -3.4612 h -3.4618 v 3.4612 3.4618 h 3.4618 3.4613 3.4618 3.4613 v -3.4618 h -3.4613 v -3.4612 h 3.4613 3.4619 v 3.4612 3.4618 h 3.4612 3.4618 v -3.4618 h -3.4618 v -3.4612 h 3.4618 3.4613 v 3.4612 3.4618 3.4613 3.4618 h -3.4613 v -3.4618 h -3.4618 v 3.4618 3.4612 h 3.4618 3.4613 v 3.4618 h -3.4613 v 3.4613 h 3.4613 v 3.4618 h -3.4613 -3.4618 v -3.4618 -3.4613 h -3.4612 -3.4619 v 3.4613 h 3.4619 v 3.4618 h -3.4619 -3.4613 v -3.4618 -3.4613 -3.4618 -3.4612 h 3.4613 v 3.4612 h 3.4619 v -3.4612 -3.4618 h -3.4619 -3.4613 -3.4618 v 3.4618 h -3.4613 v -3.4618 h -3.4618 v 3.4618 3.4612 h 3.4618 3.4613 v 3.4618 3.4613 h -3.4613 v -3.4613 h -3.4618 v 3.4613 3.4618 h 3.4618 3.4613 v 3.4613 3.4618 h -3.4613 v -3.4618 h -3.4618 v 3.4618 3.4613 h 3.4618 3.4613 3.4618 3.4613 v -3.4613 h -3.4613 v -3.4618 h 3.4613 3.4619 v 3.4618 3.4613 h 3.4612 3.4618 v -3.4613 h -3.4618 v -3.4618 h 3.4618 3.4613 v 3.4618 3.4613 h 3.4618 3.4613 v -3.4613 h -3.4613 v -3.4618 h 3.4613 3.4618 v 3.4618 3.4613 h 3.4613 v -3.4613 h 3.4613 v 3.4613 h 3.4618 v -3.4613 -3.4618 h -3.4618 -3.4613 v -3.4613 -3.4618 h 3.4613 v 3.4618 h 3.4618 v -3.4618 -3.4613 h -3.4618 -3.4613 -3.4613 -3.4618 v 3.4613 h 3.4618 v 3.4618 h -3.4618 -3.4613 v -3.4618 -3.4613 -3.4618 h 3.4613 v -3.4612 h -3.4613 v -3.4618 h 3.4613 3.4618 v 3.4618 3.4612 h 3.4613 3.4613 v -3.4612 h -3.4613 v -3.4618 h 3.4613 3.4618 v 3.4618 3.4612 h 3.4613 3.4618 v -3.4612 h -3.4618 v -3.4618 h 3.4618 3.4612 v 3.4618 3.4612 3.4618 3.4613 h -3.4612 v -3.4613 h -3.4618 v 3.4613 3.4618 h 3.4618 3.4612 v 3.4613 3.4618 h -3.4612 v -3.4618 h -3.4618 v 3.4618 3.4613 h 3.4618 3.4612 3.4618 3.4613 v -3.4613 h -3.4613 v -3.4618 h 3.4613 3.4618 v 3.4618 3.4613 h 3.4613 v -3.4613 h 3.4618 v 3.4613 h 3.4613 v -3.4613 -3.4618 h -3.4613 -3.4618 v -3.4613 -3.4618 h 3.4618 v 3.4618 h 3.4613 v -3.4618 -3.4613 h -3.4613 -3.4618 -3.4613 -3.4618 v 3.4613 h 3.4618 v 3.4618 h -3.4618 -3.4613 v -3.4618 -3.4613 -3.4618 h 3.4613 v -3.4612 h -3.4613 v -3.4618 h 3.4613 3.4618 v 3.4618 3.4612 h 3.4613 3.4618 v -3.4612 h -3.4618 v -3.4618 h 3.4618 3.4613 v 3.4618 3.4612 h 3.4618 3.4613 v -3.4612 h -3.4613 v -3.4618 h 3.4613 3.4618 v 3.4618 3.4612 3.4618 3.4613 h -3.4618 v -3.4613 h -3.4613 v 3.4613 3.4618 h 3.4613 3.4618 v 3.4613 3.4618 h -3.4618 v -3.4618 h -3.4613 v 3.4618 3.4613 h 3.4613 3.4618 3.4613 3.4618 3.4613 3.4618 v -3.4613 -3.4618 h -3.4618 v 3.4618 h -3.4613 v -3.4618 -3.4613 h 3.4613 3.4618 v -3.4618 -3.4613 h -3.4618 v 3.4613 h -3.4613 v -3.4613 -3.4618 -3.4612 -3.4618 h 3.4613 3.4618 v 3.4618 h -3.4618 v 3.4612 h 3.4618 3.4612 v -3.4612 -3.4618 h 3.4618 3.4613 v 3.4618 h -3.4613 v 3.4612 h 3.4613 3.4618 v -3.4612 -3.4618 h 3.4613 3.4618 v 3.4618 h -3.4618 v 3.4612 h 3.4618 v 3.4618 3.4613 3.4618 h -3.4618 -3.4613 v -3.4618 h 3.4613 v -3.4613 h -3.4613 -3.4618 -3.4613 -3.4618 v 3.4613 3.4618 h 3.4618 v -3.4618 h 3.4613 v 3.4618 3.4613 h -3.4613 -3.4618 v 3.4618 3.4613 h 3.4618 v -3.4613 h 3.4613 v 3.4613 h 3.4618 v -3.4613 -3.4618 h 3.4613 3.4618 v 3.4618 h -3.4618 v 3.4613 h 3.4618 3.4613 3.4618 3.4613 v -3.4613 -3.4618 h -3.4613 v 3.4618 h -3.4618 v -3.4618 -3.4613 h 3.4618 3.4613 v -3.4618 -3.4613 h -3.4613 v 3.4613 h -3.4618 v -3.4613 -3.4618 -3.4612 -3.4618 h 3.4618 3.4613 v 3.4618 h -3.4613 v 3.4612 h 3.4613 3.4618 v -3.4612 -3.4618 h 3.4613 3.4618 v 3.4618 h -3.4618 v 3.4612 h 3.4618 3.4613 v -3.4612 -3.4618 h 3.4618 3.4613 v 3.4618 h -3.4613 v 3.4612 h 3.4613 v 3.4618 3.4613 3.4618 h -3.4613 -3.4618 v -3.4618 h 3.4618 v -3.4613 h -3.4618 -3.4613 -3.4618 -3.4613 v 3.4613 3.4618 h 3.4613 v -3.4618 h 3.4618 v 3.4618 3.4613 h -3.4618 -3.4613 v 3.4618 3.4613 h 3.4613 v -3.4613 h 3.4618 v 3.4613 h 3.4613 v -3.4613 -3.4618 h 3.4618 3.4613 v 3.4618 h -3.4613 v 3.4613 h 3.4613 3.4618 v -3.4613 -3.4618 h 3.4613 3.4613 v 3.4618 h -3.4613 v 3.4613 h 3.4613 3.4618 v -3.4613 -3.4618 h 3.4613 3.4618 v 3.4618 h -3.4618 v 3.4613 h 3.4618 3.4612 3.4619 3.4612 v -3.4613 -3.4618 h -3.4612 v 3.4618 h -3.4619 v -3.4618 -3.4613 h 3.4619 3.4612 v -3.4618 -3.4613 h -3.4612 v 3.4613 h -3.4619 v -3.4613 -3.4618 h 3.4619 3.4612 v -3.4612 -3.4618 h -3.4612 v 3.4618 h -3.4619 v -3.4618 h -3.4612 -3.4618 -3.4613 v 3.4618 3.4612 h 3.4613 v -3.4612 h 3.4618 v 3.4612 3.4618 3.4613 3.4618 h -3.4618 -3.4613 v -3.4618 h 3.4613 v -3.4613 h -3.4613 -3.4618 v 3.4613 3.4618 h -3.4613 -3.4613 v -3.4618 h 3.4613 v -3.4613 h -3.4613 v -3.4618 h 3.4613 3.4613 v -3.4612 -3.4618 h -3.4613 v 3.4618 h -3.4613 v -3.4618 -3.4613 -3.4618 -3.4612 h 3.4613 3.4613 v 3.4612 h -3.4613 v 3.4618 h 3.4613 3.4618 v -3.4618 -3.4612 h 3.4613 3.4618 v 3.4612 h -3.4618 v 3.4618 h 3.4618 3.4612 3.4619 3.4612 v -3.4618 -3.4612 h -3.4612 v 3.4612 h -3.4619 v -3.4612 -3.4614 h 3.4619 3.4612 v -3.4617 -3.4613 h -3.4612 v 3.4613 h -3.4619 v -3.4613 -3.4618 h 3.4619 3.4612 v -3.4613 -3.4618 h -3.4612 v 3.4618 h -3.4619 v -3.4618 h -3.4612 -3.4618 -3.4613 v 3.4618 3.4613 h 3.4613 v -3.4613 h 3.4618 v 3.4613 3.4618 3.4613 3.4617 h -3.4618 -3.4613 v -3.4617 h 3.4613 v -3.4613 h -3.4613 -3.4618 v 3.4613 3.4617 h -3.4613 -3.4613 v -3.4617 h 3.4613 v -3.4613 h -3.4613 v -3.4618 h 3.4613 3.4613 v -3.4613 -3.4618 h -3.4613 v 3.4618 h -3.4613 v -3.4618 -3.4613 -3.4618 -3.4613 h 3.4613 3.4613 v 3.4613 h -3.4613 v 3.4618 h 3.4613 3.4618 v -3.4618 -3.4613 h 3.4613 3.4618 v 3.4613 h -3.4618 v 3.4618 h 3.4618 3.4612 3.4619 3.4612 v -3.4618 -3.4613 h -3.4612 v 3.4613 h -3.4619 v -3.4613 -3.4618 h 3.4619 3.4612 v -3.4613 -3.4618 h -3.4612 v 3.4618 h -3.4619 v -3.4618 -3.4613 h 3.4619 3.4612 v -3.4618 -3.4613 h -3.4612 v 3.4613 h -3.4619 v -3.4613 h -3.4612 -3.4618 -3.4613 v 3.4613 3.4618 h 3.4613 v -3.4618 h 3.4618 v 3.4618 3.4613 3.4618 3.4613 h -3.4618 -3.4613 v -3.4613 h 3.4613 v -3.4618 h -3.4613 -3.4618 v 3.4618 3.4613 h -3.4613 -3.4613 v -3.4613 h 3.4613 v -3.4618 h -3.4613 v -3.4613 h 3.4613 3.4613 v -3.4618 -3.4613 h -3.4613 v 3.4613 h -3.4613 v -3.4613 h -3.4618 v 3.4613 3.4618 h -3.4613 -3.4618 v -3.4618 h 3.4618 v -3.4613 h -3.4618 -3.4613 v 3.4613 3.4618 h -3.4618 -3.4613 v -3.4618 h 3.4613 v -3.4613 h -3.4613 -3.4618 -3.4613 -3.4618 v 3.4613 3.4618 h 3.4618 v -3.4618 h 3.4613 v 3.4618 3.4613 h -3.4613 -3.4618 v 3.4618 3.4613 h 3.4618 v -3.4613 h 3.4613 v 3.4613 3.4618 h -3.4613 -3.4618 v 3.4613 3.4618 h 3.4618 v -3.4618 h 3.4613 v 3.4618 h 3.4618 3.4613 3.4618 v -3.4618 -3.4613 h -3.4618 v 3.4613 h -3.4613 v -3.4613 -3.4618 -3.4613 -3.4618 h 3.4613 3.4618 v 3.4618 h -3.4618 v 3.4613 h 3.4618 3.4613 v -3.4613 -3.4618 h 3.4618 3.4613 v 3.4618 h -3.4613 v 3.4613 h 3.4613 v 3.4618 h -3.4613 -3.4618 v 3.4613 3.4618 h 3.4618 v -3.4618 h 3.4613 v 3.4618 3.4613 h -3.4613 -3.4618 v 3.4618 3.4613 h 3.4618 v -3.4613 h 3.4613 v 3.4613 3.4618 h -3.4613 -3.4618 v 3.4613 3.4617 h 3.4618 v -3.4617 h 3.4613 v 3.4617 3.4614 3.4612 3.4618 h -3.4613 -3.4618 v -3.4618 h 3.4618 v -3.4612 h -3.4618 -3.4613 v 3.4612 3.4618 h -3.4618 -3.4613 v -3.4618 h 3.4613 v -3.4612 h -3.4613 -3.4618 v 3.4612 3.4618 h -3.4613 -3.4618 v -3.4618 h 3.4618 v -3.4612 h -3.4618 v -3.4614 -3.4617 -3.4613 h 3.4618 3.4613 v 3.4613 h -3.4613 v 3.4617 h 3.4613 3.4618 3.4613 3.4618 v -3.4617 -3.4613 h -3.4618 v 3.4613 h -3.4613 v -3.4613 -3.4618 h 3.4613 3.4618 v -3.4613 -3.4618 h -3.4618 v 3.4618 h -3.4613 v -3.4618 h -3.4618 v 3.4618 3.4613 h -3.4613 -3.4618 v -3.4613 h 3.4618 v -3.4618 h -3.4618 -3.4613 -3.4618 -3.4613 v 3.4618 3.4613 h 3.4613 v -3.4613 h 3.4618 v 3.4613 3.4618 h -3.4618 -3.4613 v 3.4613 3.4617 h 3.4613 v -3.4617 h 3.4618 v 3.4617 3.4614 3.4612 3.4618 h -3.4618 -3.4613 v -3.4618 h 3.4613 v -3.4612 h -3.4613 -3.4618 v 3.4612 3.4618 h -3.4613 -3.4618 v -3.4618 h 3.4618 v -3.4612 h -3.4618 -3.4612 v 3.4612 3.4618 h -3.4618 -3.4613 v -3.4618 h 3.4613 v -3.4612 h -3.4613 v -3.4614 -3.4617 -3.4613 h 3.4613 3.4618 v 3.4613 h -3.4618 v 3.4617 h 3.4618 3.4612 3.4618 3.4613 v -3.4617 -3.4613 h -3.4613 v 3.4613 h -3.4618 v -3.4613 -3.4618 h 3.4618 3.4613 v -3.4613 -3.4618 h -3.4613 v 3.4618 h -3.4618 v -3.4618 h -3.4612 v 3.4618 3.4613 h -3.4618 -3.4613 v -3.4613 h 3.4613 v -3.4618 h -3.4613 v -3.4613 -3.4618 -3.4613 h 3.4613 3.4618 v 3.4613 h -3.4618 v 3.4618 h 3.4618 3.4612 v -3.4618 -3.4613 h 3.4618 3.4613 v 3.4613 h -3.4613 v 3.4618 h 3.4613 3.4618 3.4613 3.4618 v -3.4618 -3.4613 h -3.4618 v 3.4613 h -3.4613 v -3.4613 -3.4618 h 3.4613 3.4618 v -3.4613 -3.4618 h -3.4618 v 3.4618 h -3.4613 v -3.4618 -3.4613 h 3.4613 3.4618 v -3.4618 -3.4613 h -3.4618 v 3.4613 h -3.4613 v -3.4613 h -3.4618 -3.4613 -3.4618 v 3.4613 3.4618 h 3.4618 v -3.4618 h 3.4613 v 3.4618 3.4613 3.4618 3.4613 h -3.4613 -3.4618 v -3.4613 h 3.4618 v -3.4618 h -3.4618 -3.4612 v 3.4618 3.4613 h -3.4618 -3.4613 v -3.4613 h 3.4613 v -3.4618 h -3.4613 v -3.4613 h 3.4613 3.4618 v -3.4618 -3.4613 h -3.4618 v 3.4613 h -3.4613 v -3.4613 h -3.4618 -3.4613 v 3.4613 h -3.4618 v -3.4613 h -3.4613 v 3.4613 3.4618 h 3.4613 3.4618 v 3.4613 h -3.4618 v 3.4618 h 3.4618 v 3.4613 h -3.4618 -3.4613 v -3.4613 -3.4618 h -3.4618 -3.4613 v 3.4618 h 3.4613 v 3.4613 h -3.4613 -3.4618 v -3.4613 -3.4618 -3.4613 -3.4618 h 3.4618 v 3.4618 h 3.4613 v -3.4618 -3.4613 h -3.4613 -3.4618 -3.4613 v 3.4613 h -3.4618 v -3.4613 h -3.4613 v 3.4613 3.4618 h 3.4613 3.4618 v 3.4613 3.4618 h -3.4618 v -3.4618 h -3.4613 v 3.4618 3.4613 h 3.4613 3.4618 v 3.4618 3.4613 h -3.4618 v -3.4613 h -3.4613 v 3.4613 3.4618 h 3.4613 3.4618 3.4613 3.4618 v -3.4618 h -3.4618 v -3.4613 h 3.4618 3.4613 v 3.4613 3.4618 h 3.4618 3.4613 v -3.4618 h -3.4613 v -3.4613 h 3.4613 3.4618 v 3.4613 3.4618 3.4613 h -3.4618 v 3.4618 h 3.4618 v 3.4613 h -3.4618 -3.4613 v -3.4613 -3.4618 h -3.4618 v 3.4618 h -3.4613 v -3.4618 h -3.4618 v 3.4618 3.4613 h 3.4618 3.4613 v 3.4618 3.4613 h -3.4613 v -3.4613 h -3.4618 v 3.4613 3.4617 h 3.4618 3.4613 3.4618 3.4613 v -3.4617 h -3.4613 v -3.4613 h 3.4613 3.4618 v 3.4613 3.4617 3.4614 h -3.4618 v 3.4612 h 3.4618 v 3.4618 h -3.4618 -3.4613 v -3.4618 -3.4612 h -3.4618 -3.4613 v 3.4612 h 3.4613 v 3.4618 h -3.4613 -3.4618 v -3.4618 -3.4612 h -3.4613 -3.4618 v 3.4612 h 3.4618 v 3.4618 h -3.4618 -3.4613 v -3.4618 -3.4612 -3.4614 -3.4617 h 3.4613 v 3.4617 h 3.4618 v -3.4617 -3.4613 h -3.4618 -3.4613 v -3.4618 -3.4613 h 3.4613 v 3.4613 h 3.4618 v -3.4613 -3.4618 h -3.4618 -3.4613 -3.4618 -3.4612 v 3.4618 h 3.4612 v 3.4613 h -3.4612 -3.4618 v -3.4613 -3.4618 h -3.4613 v 3.4618 h -3.4618 v -3.4618 h -3.4613 v 3.4618 3.4613 h 3.4613 3.4618 v 3.4618 3.4613 h -3.4618 v -3.4613 h -3.4613 v 3.4613 3.4617 h 3.4613 3.4618 3.4613 3.4618 v -3.4617 h -3.4618 v -3.4613 h 3.4618 3.4612 v 3.4613 3.4617 3.4614 h -3.4612 v 3.4612 h 3.4612 v 3.4618 h -3.4612 -3.4618 v -3.4618 -3.4612 h -3.4613 -3.4618 v 3.4612 h 3.4618 v 3.4618 h -3.4618 -3.4613 v -3.4618 -3.4612 h -3.4613 -3.4618 v 3.4612 h 3.4618 v 3.4618 h -3.4618 -3.4613 v -3.4618 -3.4612 -3.4614 -3.4617 h 3.4613 v 3.4617 h 3.4618 v -3.4617 -3.4613 h -3.4618 -3.4613 v -3.4618 -3.4613 h 3.4613 v 3.4613 h 3.4618 v -3.4613 -3.4618 h -3.4618 -3.4613 v -3.4613 -3.4618 h 3.4613 v 3.4618 h 3.4618 v -3.4618 -3.4613 h -3.4618 -3.4613 v -3.4618 h 3.4613 v -3.4613 h -3.4613 v -3.4618 h 3.4613 3.4618 v 3.4618 3.4613 h 3.4613 3.4613 v -3.4613 h -3.4613 v -3.4618 h 3.4613 3.4618 v 3.4618 3.4613 3.4618 3.4613 h -3.4618 v -3.4613 h -3.4613 v 3.4613 3.4618 h 3.4613 3.4618 3.4613 v -3.4618 h 3.4618 v 3.4618 h 3.4612 v -3.4618 -3.4613 h -3.4612 -3.4618 v -3.4618 -3.4613 h 3.4618 v 3.4613 h 3.4612 v -3.4613 -3.4618 h -3.4612 -3.4618 v -3.4613 -3.4618 h 3.4618 v 3.4618 h 3.4612 v -3.4618 -3.4613 h -3.4612 -3.4618 -3.4613 -3.4618 v 3.4613 h 3.4618 v 3.4618 h -3.4618 -3.4613 v -3.4618 -3.4613 h -3.4613 -3.4618 v 3.4613 h 3.4618 v 3.4618 h -3.4618 -3.4613 v -3.4618 -3.4613 h -3.4618 v 3.4613 h -3.4613 v -3.4613 h -3.4618 v 3.4613 3.4618 h 3.4618 3.4613 v 3.4613 h -3.4613 v 3.4618 h 3.4613 v 3.4613 h -3.4613 -3.4618 v -3.4613 -3.4618 h -3.4612 -3.4619 v 3.4618 h 3.4619 v 3.4613 h -3.4619 -3.4613 v -3.4613 -3.4618 -3.4613 -3.4618 h 3.4613 v 3.4618 h 3.4619 v -3.4618 -3.4613 h -3.4619 -3.4613 -3.4618 v 3.4613 h -3.4613 v -3.4613 z"
       style="fill:#ffffff;fill-opacity:1;stroke-width:0.576923" />
    <path
       id="polygon1-1-7-3"
       clip-path="url(#border_clip)"
       d="m 1733.0388,1114.7546 v 6.0001 h 5.9997 v 5.9997 h -5.9997 v 6.0001 h 5.9997 6.0001 v -6.0001 h 6.0002 v 6.0001 6.0002 5.9996 h -6.0002 v -5.9996 h -6.0001 -5.9997 v 5.9996 h 5.9997 v 6.0002 h -5.9997 v 6.0001 h 5.9997 6.0001 v -6.0001 h 6.0002 v 6.0001 h 5.9996 6.0002 v -6.0001 h -6.0002 v -6.0002 -5.9996 h 6.0002 v 5.9996 h 6.0001 v -5.9996 h 6.0002 v 5.9996 6.0002 h -6.0002 v 6.0001 h 6.0002 v 6.0001 h -6.0002 v 5.9997 h 6.0002 v 6.0001 6.0001 h -6.0002 v -6.0001 h -6.0001 v 6.0001 h -6.0002 v -6.0001 -6.0001 h 6.0002 v -5.9997 h -6.0002 -5.9996 v 5.9997 h -6.0002 v -5.9997 h -6.0001 -5.9997 v 5.9997 h 5.9997 v 6.0001 h -5.9997 v 6.0001 h 5.9997 6.0001 v -6.0001 h 6.0002 v 6.0001 5.9996 6.0002 h -6.0002 v -6.0002 h -6.0001 -5.9997 v 6.0002 h 5.9997 v 6.0001 h -5.9997 v 6.0002 h 5.9997 6.0001 v -6.0002 h 6.0002 v 6.0002 h 5.9996 6.0002 v -6.0002 h -6.0002 v -6.0001 -6.0002 h 6.0002 v 6.0002 h 6.0001 v -6.0002 h 6.0002 v 6.0002 6.0001 h -6.0002 v 6.0002 h 6.0002 5.9996 v -6.0002 h 6.0001 v 6.0002 h 6.0002 5.9996 v -6.0002 h -5.9996 v -6.0001 h 5.9996 v -6.0002 h -5.9996 -6.0002 v 6.0002 h -6.0001 v -6.0002 -5.9996 h 6.0001 v -6.0001 h -6.0001 v -6.0001 -5.9997 h 6.0001 v 5.9997 h 6.0002 v -5.9997 h 5.9996 v 5.9997 6.0001 h -5.9996 v 6.0001 h 5.9996 6.0002 6.0001 v -6.0001 h -6.0001 v -6.0001 -5.9997 h 6.0001 v 5.9997 h 6.0002 v -5.9997 h 5.9996 v 5.9997 6.0001 h -5.9996 v 6.0001 h 5.9996 v 5.9996 6.0002 h -5.9996 v -6.0002 h -6.0002 -6.0001 v 6.0002 h 6.0001 v 6.0001 h -6.0001 v 6.0002 h 6.0001 6.0002 v -6.0002 h 5.9996 v 6.0002 h 6.0002 6.0001 v -6.0002 h 5.9996 v 6.0002 h 6.0002 6.0001 v -6.0002 h -6.0001 v -6.0001 h 6.0001 v -6.0002 h -6.0001 -6.0002 v 6.0002 h -5.9996 v -6.0002 -5.9996 h 5.9996 v -6.0001 h -5.9996 v -6.0001 -5.9997 h 5.9996 v 5.9997 h 6.0002 v -5.9997 h 6.0001 v 5.9997 6.0001 h -6.0001 v 6.0001 h 6.0001 5.9997 6.0001 v -6.0001 h -6.0001 v -6.0001 -5.9997 h 6.0001 v 5.9997 h 6.0002 v -5.9997 h 6.0001 v 5.9997 6.0001 h -6.0001 v 6.0001 h 6.0001 v 5.9996 6.0002 h -6.0001 v -6.0002 h -6.0002 -6.0001 v 6.0002 h 6.0001 v 6.0001 h -6.0001 v 6.0002 h 6.0001 6.0002 v -6.0002 h 6.0001 v 6.0002 h 5.9997 6.0001 v -6.0002 h -6.0001 v -6.0001 -6.0002 h 6.0001 v 6.0002 h 6.0002 v -6.0002 h 5.9996 v 6.0002 6.0001 h -5.9996 v 6.0002 h 5.9996 6.0002 v -6.0002 h 6.0001 v 6.0002 h 6.0002 5.9996 v -6.0002 h -5.9996 v -6.0001 h 5.9996 v -6.0002 h -5.9996 -6.0002 v 6.0002 h -6.0001 v -6.0002 -5.9996 -6.0001 h 6.0001 v 6.0001 h 6.0002 5.9996 v -6.0001 h -5.9996 v -6.0001 h 5.9996 v -5.9997 h -5.9996 -6.0002 v 5.9997 h -6.0001 v -5.9997 h -6.0002 -5.9996 v 5.9997 h 5.9996 v 6.0001 6.0001 h -5.9996 v -6.0001 h -6.0002 v 6.0001 h -6.0001 v -6.0001 -6.0001 h 6.0001 v -5.9997 h -6.0001 v -6.0001 h 6.0001 v -6.0001 h -6.0001 v -6.0002 -5.9996 h 6.0001 v 5.9996 h 6.0002 v -5.9996 h 5.9996 v 5.9996 6.0002 h -5.9996 v 6.0001 h 5.9996 6.0002 v -6.0001 h 6.0001 v 6.0001 h 6.0002 5.9996 v -6.0001 h -5.9996 v -6.0002 h 5.9996 v -5.9996 h -5.9996 -6.0002 v 5.9996 h -6.0001 v -5.9996 -6.0002 -6.0001 h 6.0001 v 6.0001 h 6.0002 5.9996 v -6.0001 h -5.9996 v -5.9997 h 5.9996 v -6.0001 h -5.9996 -6.0002 v 6.0001 h -6.0001 v -6.0001 h -6.0002 -5.9996 v 6.0001 h 5.9996 v 5.9997 6.0001 h -5.9996 v -6.0001 h -6.0002 v 6.0001 h -6.0001 v -6.0001 -5.9997 h 6.0001 v -6.0001 h -6.0001 -5.9997 v 6.0001 h -6.0001 v -6.0001 h -6.0002 -6.0001 v 6.0001 h 6.0001 v 5.9997 h -6.0001 v 6.0001 h 6.0001 6.0002 v -6.0001 h 6.0001 v 6.0001 6.0002 h -6.0001 v 5.9996 h 6.0001 v 6.0002 6.0001 h -6.0001 v -6.0001 h -6.0002 v 6.0001 h -6.0001 v -6.0001 -6.0002 h 6.0001 v -5.9996 h -6.0001 -5.9997 -6.0001 v 5.9996 h 6.0001 v 6.0002 6.0001 h -6.0001 v -6.0001 h -6.0002 v 6.0001 h -5.9996 v -6.0001 -6.0002 h 5.9996 v -5.9996 h -5.9996 v -6.0002 -6.0001 h 5.9996 v 6.0001 h 6.0002 6.0001 v -6.0001 h -6.0001 v -5.9997 h 6.0001 v -6.0001 h -6.0001 -6.0002 v 6.0001 h -5.9996 v -6.0001 h -6.0001 -6.0002 v 6.0001 h -5.9996 v -6.0001 h -6.0002 -6.0001 v 6.0001 h 6.0001 v 5.9997 h -6.0001 v 6.0001 h 6.0001 6.0002 v -6.0001 h 5.9996 v 6.0001 6.0002 h -5.9996 v 5.9996 h 5.9996 v 6.0002 6.0001 h -5.9996 v -6.0001 h -6.0002 v 6.0001 h -6.0001 v -6.0001 -6.0002 h 6.0001 v -5.9996 h -6.0001 -6.0002 -5.9996 v 5.9996 h 5.9996 v 6.0002 6.0001 h -5.9996 v -6.0001 h -6.0002 v 6.0001 h -6.0001 v -6.0001 -6.0002 h 6.0001 v -5.9996 h -6.0001 v -6.0002 -6.0001 h 6.0001 v 6.0001 h 6.0002 5.9996 v -6.0001 h -5.9996 v -5.9997 h 5.9996 v -6.0001 h -5.9996 -6.0002 v 6.0001 h -6.0001 v -6.0001 h -5.9996 -6.0002 v 6.0001 h 6.0002 v 5.9997 6.0001 h -6.0002 v -6.0001 h -6.0001 v 6.0001 h -6.0002 v -6.0001 -5.9997 h 6.0002 v -6.0001 h -6.0002 -5.9996 v 6.0001 h -6.0002 v -6.0001 h -6.0001 z"
       style="fill:#ffffff;fill-opacity:1;stroke-width:1.2" />
    <path
       id="polygon1-29-1-5-1"
       clip-path="url(#border_clip)"
       d="m 1955.4054,1222.5673 v 3.5998 h -3.5998 -3.6003 -3.5998 v 3.6003 h 3.5998 3.6003 v 3.5998 h -3.6003 v 3.5998 h 3.6003 v 3.6003 h -3.6003 -3.5998 v 3.5998 3.6003 h 3.5998 v -3.6003 h 3.6003 v 3.6003 h 3.5998 v -3.6003 -3.5998 h 3.6002 v 3.5998 3.6003 3.5997 h 3.5998 v 3.6003 h -3.5998 -3.6002 v -3.6003 h -3.5998 -3.6003 v 3.6003 h 3.6003 v 3.5998 h -3.6003 -3.5998 v 3.5998 3.6003 h 3.5998 v -3.6003 h 3.6003 v 3.6003 3.5998 h -3.6003 v 3.6003 3.5997 h 3.6003 v -3.5997 h 3.5998 3.6002 3.5998 v -3.6003 h -3.5998 -3.6002 v -3.5998 h 3.6002 v -3.6003 h -3.6002 v -3.5998 h 3.6002 3.5998 v 3.5998 3.6003 h 3.6003 v -3.6003 h 3.5998 v 3.6003 h 3.5998 v -3.6003 -3.5998 h 3.6003 v 3.5998 3.6003 3.5998 h 3.5998 v 3.6003 h -3.5998 -3.6003 v -3.6003 h -3.5998 -3.5998 v 3.6003 h 3.5998 v 3.5997 h -3.5998 -3.6003 -3.5998 -3.6002 v 3.6003 h 3.6002 v 3.5998 h -3.6002 -3.5998 v -3.5998 h -3.6003 -3.5998 v 3.5998 h 3.5998 v 3.5998 3.6003 3.5998 h 3.6003 v -3.5998 -3.6003 h 3.5998 v 3.6003 h 3.6002 v -3.6003 h 3.5998 v 3.6003 3.5998 h -3.5998 -3.6002 v 3.6003 h 3.6002 v 3.5998 h -3.6002 -3.5998 v -3.5998 h -3.6003 -3.5998 v 3.5998 h 3.5998 v 3.6003 3.5997 3.5998 h 3.6003 v -3.5998 -3.5997 h 3.5998 v 3.5997 h 3.6002 v -3.5997 h 3.5998 v 3.5997 3.5998 h 3.6003 3.5998 v -3.5998 h -3.5998 v -3.5997 h 3.5998 v -3.6003 h -3.5998 -3.6003 v -3.5998 h 3.6003 3.5998 3.5998 v -3.6003 h 3.6003 v 3.6003 3.5998 h -3.6003 v 3.6003 3.5997 h 3.6003 v -3.5997 h 3.5998 v 3.5997 3.5998 h 3.6003 3.5997 v -3.5998 h -3.5997 v -3.5997 h 3.5997 3.6004 v 3.5997 h 3.5997 3.5998 v -3.5997 h -3.5998 v -3.6003 -3.5998 -3.6003 h -3.5997 v 3.6003 3.5998 h -3.6004 v -3.5998 h -3.5997 v 3.5998 h -3.6003 v -3.5998 -3.6003 -3.5998 -3.6003 h -3.5998 v 3.6003 h -3.6003 v -3.6003 h -3.5998 v 3.6003 3.5998 h -3.5998 v -3.5998 -3.6003 -3.5998 h -3.6003 v -3.5998 h 3.6003 3.5998 v 3.5998 h 3.5998 3.6003 v -3.5998 h -3.6003 v -3.6003 h 3.6003 3.5998 3.6003 3.5997 v -3.5997 h -3.5997 v -3.6003 h 3.5997 v -3.5998 h -3.5997 -3.6003 v -3.6003 h 3.6003 3.5997 3.6004 v -3.5998 h 3.5997 v 3.5998 3.6003 h -3.5997 v 3.5998 3.6003 h 3.5997 v -3.6003 h 3.5998 v 3.6003 3.5997 h -3.5998 -3.5997 v 3.6003 h 3.5997 v 3.5998 h -3.5997 -3.6004 v -3.5998 h -3.5997 -3.6003 v 3.5998 h 3.6003 v 3.5998 3.6003 3.5998 h 3.5997 v -3.5998 -3.6003 h 3.6004 v 3.6003 h 3.5997 v -3.6003 h 3.5998 v 3.6003 3.5998 3.6003 3.5998 h 3.6003 v -3.5998 h 3.5998 v 3.5998 3.6003 h -3.5998 v 3.5997 3.5998 h 3.5998 v -3.5998 h 3.6004 3.5997 3.6004 v -3.5997 h -3.6004 -3.5997 v -3.6003 h 3.5997 v -3.5998 h -3.5997 v -3.6003 h 3.5997 3.6004 v -3.5998 -3.6003 h -3.6004 v 3.6003 h -3.5997 v -3.6003 h -3.6004 v 3.6003 3.5998 h -3.5998 v -3.5998 -3.6003 -3.5998 h -3.6003 v -3.5998 h 3.6003 3.5998 v 3.5998 h 3.6004 3.5997 v -3.5998 h -3.5997 v -3.6003 h 3.5997 3.6004 3.5997 3.5997 v -3.5997 h -3.5997 v -3.6003 h 3.5997 v -3.5998 h -3.5997 -3.5997 v -3.6003 h 3.5997 3.5997 3.6004 v -3.5998 h 3.5997 v 3.5998 3.6003 h -3.5997 v 3.5998 3.6003 h 3.5997 v -3.6003 h 3.6004 v 3.6003 3.5997 h -3.6004 -3.5997 v 3.6003 h 3.5997 v 3.5998 h -3.5997 -3.6004 v -3.5998 h -3.5997 -3.5997 v 3.5998 h 3.5997 v 3.5998 3.6003 3.5998 h 3.5997 v -3.5998 -3.6003 h 3.6004 v 3.6003 h 3.5997 v -3.6003 h 3.6004 v 3.6003 3.5998 h -3.6004 -3.5997 v 3.6003 h 3.5997 v 3.5998 h -3.5997 -3.6004 v -3.5998 h -3.5997 -3.5997 v 3.5998 h 3.5997 v 3.6003 3.5997 3.5998 h 3.5997 v -3.5998 -3.5997 h 3.6004 v 3.5997 h 3.5997 v -3.5997 h 3.6004 v 3.5997 3.5998 h 3.5998 3.5996 v -3.5998 -3.5997 h 3.6004 v 3.5997 h 3.5998 v -3.5997 h 3.6003 v 3.5997 3.5998 h 3.5998 v -3.5998 -3.5997 -3.6003 h 3.6003 v -3.5998 h -3.6003 -3.5998 v 3.5998 h -3.6003 -3.5998 v -3.5998 h 3.5998 v -3.6003 h -3.5998 -3.6004 v -3.5998 -3.6003 h 3.6004 v 3.6003 h 3.5998 v -3.6003 h 3.6003 v 3.6003 3.5998 h 3.5998 v -3.5998 -3.6003 -3.5998 h 3.6003 v -3.5998 h -3.6003 -3.5998 v 3.5998 h -3.6003 -3.5998 v -3.5998 h 3.5998 v -3.6003 h -3.5998 -3.6004 v -3.5997 -3.6003 h 3.6004 v 3.6003 h 3.5998 v -3.6003 -3.5998 h -3.5998 v -3.6003 -3.5998 h 3.5998 v 3.5998 h 3.6003 3.5998 3.6003 v 3.6003 h -3.6003 -3.5998 v 3.5998 h 3.5998 v 3.6003 h -3.5998 v 3.5997 h 3.5998 3.6003 3.5998 3.5998 v 3.6003 h -3.5998 v 3.5998 h 3.5998 3.6003 v -3.5998 h 3.5997 3.6003 v 3.5998 h -3.6003 v 3.5998 3.6003 3.5998 h -3.5997 v -3.5998 -3.6003 h -3.6003 v 3.6003 h -3.5998 v -3.6003 h -3.5998 v 3.6003 3.5998 h 3.5998 3.5998 v 3.6003 h -3.5998 v 3.5998 h 3.5998 v 3.6003 h -3.5998 -3.5998 v 3.5997 h 3.5998 3.5998 3.6003 v 3.5998 h 3.5997 v -3.5998 -3.5997 h -3.5997 v -3.6003 -3.5998 h 3.5997 v 3.5998 h 3.6003 v -3.5998 -3.6003 -3.5998 -3.6003 h 3.5998 v 3.6003 h 3.6003 v -3.6003 h 3.5998 v 3.6003 3.5998 h 3.5998 v -3.5998 -3.6003 -3.5998 h 3.6003 v -3.5998 h -3.6003 -3.5998 v 3.5998 h -3.5998 -3.6003 v -3.5998 h 3.6003 v -3.6003 h -3.6003 -3.5998 v -3.5997 -3.6003 h 3.5998 v 3.6003 h 3.6003 v -3.6003 -3.5998 h -3.6003 v -3.6003 -3.5998 h 3.6003 v 3.5998 h 3.5998 3.5998 3.6003 v 3.6003 h -3.6003 -3.5998 v 3.5998 h 3.5998 v 3.6003 h -3.5998 v 3.5997 h 3.5998 3.6003 3.5997 3.6003 v 3.6003 h -3.6003 v 3.5998 h 3.6003 3.5998 v -3.5998 h 3.6003 3.5998 v 3.5998 h -3.5998 v 3.5998 3.6003 3.5998 h -3.6003 v -3.5998 -3.6003 h -3.5998 v 3.6003 h -3.6003 v -3.6003 h -3.5997 v 3.6003 3.5998 3.6003 3.5998 h -3.6003 v -3.5998 h -3.5998 v 3.5998 h -3.5998 v -3.5998 -3.6003 h -3.6003 v 3.6003 3.5998 3.6003 h -3.5998 v 3.5997 h 3.5998 3.6003 v -3.5997 h 3.5998 3.5998 v 3.5997 h -3.5998 v 3.5998 h 3.5998 3.6003 v -3.5998 -3.5997 h 3.5997 v 3.5997 h 3.6003 v -3.5997 -3.6003 h -3.6003 v -3.5998 -3.6003 h 3.6003 v 3.6003 h 3.5998 3.6003 3.5998 v 3.5998 h -3.5998 -3.6003 v 3.6003 h 3.6003 v 3.5997 h -3.6003 v 3.5998 h 3.6003 3.5998 v -3.5998 -3.5997 h 3.5998 v 3.5997 h 3.6003 v -3.5997 h 3.5998 v 3.5997 3.5998 h 3.6003 v -3.5998 -3.5997 -3.6003 h 3.5997 v -3.5998 h -3.5997 -3.6003 v 3.5998 h -3.5998 -3.6003 v -3.5998 h 3.6003 v -3.6003 h -3.6003 -3.5998 v -3.5998 -3.6003 h 3.5998 v 3.6003 h 3.6003 v -3.6003 h 3.5998 v 3.6003 3.5998 h 3.6003 v -3.5998 -3.6003 -3.5998 h 3.5997 v -3.5998 h -3.5997 -3.6003 v 3.5998 h -3.5998 -3.6003 v -3.5998 h 3.6003 v -3.6003 h -3.6003 -3.5998 -3.5998 -3.6003 v -3.5997 h 3.6003 v -3.6003 h -3.6003 -3.5998 v 3.6003 h -3.6003 -3.5997 v -3.6003 h 3.5997 v -3.5998 -3.6003 -3.5998 h 3.6003 v 3.5998 3.6003 h 3.5998 v -3.6003 h 3.6003 v 3.6003 h 3.5998 v -3.6003 -3.5998 h 3.5998 3.6003 v 3.5998 h -3.6003 v 3.6003 h 3.6003 v 3.5998 h -3.6003 -3.5998 v 3.6003 h 3.5998 3.6003 3.5998 v 3.5997 h 3.6003 v -3.5997 -3.6003 h -3.6003 v -3.5998 -3.6003 h 3.6003 v 3.6003 h 3.5997 v -3.6003 -3.5998 h -3.5997 -3.6003 v -3.5998 h 3.6003 v -3.6003 h -3.6003 -3.5998 v 3.6003 h -3.6003 -3.5998 v -3.6003 h 3.5998 v -3.5997 -3.6003 -3.5998 h 3.6003 v 3.5998 3.6003 h 3.5998 v -3.6003 h 3.6003 v 3.6003 h 3.5997 v -3.6003 -3.5998 h -3.5997 -3.6003 v -3.6003 h 3.6003 v -3.5998 h -3.6003 v -3.5998 h 3.6003 3.5997 v -3.6003 h -3.5997 -3.6003 -3.5998 v -3.5998 h -3.6003 v 3.5998 3.6003 h 3.6003 v 3.5998 3.5998 h -3.6003 v -3.5998 h -3.5998 v 3.5998 3.6003 h -3.5998 -3.6003 v -3.6003 h 3.6003 v -3.5998 h -3.6003 v -3.5998 h 3.6003 3.5998 v -3.6003 h -3.5998 -3.6003 -3.5998 v -3.5998 h -3.6003 v 3.5998 3.6003 h 3.6003 v 3.5998 3.5998 h -3.6003 v -3.5998 h -3.5997 v 3.5998 3.6003 h 3.5997 3.6003 v 3.5998 h -3.6003 v 3.6003 h 3.6003 3.5998 v -3.6003 h 3.6003 3.5998 v 3.6003 h -3.5998 v 3.5997 3.6003 3.5998 h -3.6003 v -3.5998 -3.6003 h -3.5998 v 3.6003 h -3.6003 v -3.6003 h -3.5997 v 3.6003 3.5998 h -3.6003 -3.5998 v -3.5998 h 3.5998 v -3.6003 h -3.5998 v -3.5997 h 3.5998 3.6003 v -3.6003 h -3.6003 -3.5998 -3.5998 v -3.5998 h -3.6003 v 3.5998 3.6003 h 3.6003 v 3.5997 3.6003 h -3.6003 v -3.6003 h -3.5998 v 3.6003 3.5998 3.5998 3.6003 h -3.6003 v -3.6003 h -3.5997 v 3.6003 3.5998 h 3.5997 v 3.6003 3.5997 h -3.5997 v -3.5997 h -3.6003 -3.5998 -3.5998 v -3.6003 h 3.5998 3.5998 v -3.5998 h -3.5998 v -3.6003 h 3.5998 v -3.5998 h -3.5998 -3.5998 -3.6003 -3.5998 v -3.5998 h 3.5998 v -3.6003 h -3.5998 -3.6003 v 3.6003 h -3.5998 -3.6004 v -3.6003 h 3.6004 v -3.5997 -3.6003 -3.5998 h 3.5998 v 3.5998 3.6003 h 3.6003 v -3.6003 h 3.5998 v 3.6003 h 3.6003 v -3.6003 -3.5998 h 3.5998 3.5998 v 3.5998 h -3.5998 v 3.6003 h 3.5998 v 3.5997 h -3.5998 -3.5998 v 3.6003 h 3.5998 3.5998 3.6003 v 3.5998 h 3.5997 v -3.5998 -3.6003 h -3.5997 v -3.5997 -3.6003 h 3.5997 v 3.6003 h 3.6003 v -3.6003 -3.5998 -3.6003 -3.5998 h 3.5998 v 3.5998 h 3.6003 v -3.5998 h 3.5998 v 3.5998 3.6003 h 3.5998 v -3.6003 -3.5998 -3.5998 h 3.6003 v -3.6003 h -3.6003 -3.5998 v 3.6003 h -3.5998 -3.6003 v -3.6003 h 3.6003 v -3.5998 h -3.6003 -3.5998 v 3.5998 3.6003 h -3.6003 v -3.6003 h -3.5997 v 3.6003 3.5998 h 3.5997 v 3.5998 3.6003 h -3.5997 v -3.6003 h -3.6003 -3.5998 -3.5998 v -3.5998 h 3.5998 3.5998 v -3.5998 h -3.5998 v -3.6003 h 3.5998 v -3.5998 h -3.5998 -3.5998 v 3.5998 3.6003 h -3.6003 v -3.6003 h -3.5998 v 3.6003 3.5998 h 3.5998 v 3.5998 3.6003 h -3.5998 v -3.6003 h -3.6003 -3.5998 -3.6004 v -3.5998 h 3.6004 3.5998 v -3.5998 h -3.5998 v -3.6003 h 3.5998 v -3.5998 h -3.5998 -3.6004 -3.5996 -3.5998 -3.6004 -3.5997 v 3.5998 h 3.5997 v 3.6003 h -3.5997 v 3.5998 h 3.5997 3.6004 v 3.5998 h -3.6004 -3.5997 -3.6004 v 3.6003 h -3.5997 v -3.6003 -3.5998 h 3.5997 v -3.5998 -3.6003 h -3.5997 v 3.6003 h -3.5997 v -3.6003 -3.5998 h -3.6004 -3.5997 v 3.5998 h 3.5997 v 3.6003 h -3.5997 v 3.5998 h 3.5997 3.6004 v 3.5998 h -3.6004 -3.5997 -3.6004 v 3.6003 h -3.5998 v -3.6003 -3.5998 h 3.5998 v -3.5998 -3.6003 h -3.5998 v 3.6003 h -3.6003 v -3.6003 -3.5998 h -3.5998 -3.5997 v 3.5998 h 3.5997 v 3.6003 h -3.5997 -3.6004 v -3.6003 h -3.5997 -3.6003 v 3.6003 h 3.6003 v 3.5998 3.5998 3.6003 h 3.5997 v -3.6003 -3.5998 h 3.6004 v 3.5998 h 3.5997 v -3.5998 h 3.5998 v 3.5998 3.6003 3.5998 3.6003 h 3.6003 v -3.6003 h 3.5998 v 3.6003 3.5997 h -3.5998 v 3.6003 3.5998 h 3.5998 v -3.5998 h 3.6004 3.5997 3.6004 v -3.6003 h -3.6004 -3.5997 v -3.5997 h 3.5997 v -3.6003 h -3.5997 v -3.5998 h 3.5997 3.6004 v 3.5998 3.6003 h 3.5997 v -3.6003 h 3.5997 v 3.6003 h 3.6004 v -3.6003 -3.5998 h 3.5997 v 3.5998 3.6003 3.5997 h 3.6004 v 3.6003 h -3.6004 -3.5997 v -3.6003 h -3.6004 -3.5997 v 3.6003 h 3.5997 v 3.5998 h -3.5997 -3.5997 -3.6004 -3.5997 v 3.5998 h 3.5997 v 3.6003 h -3.5997 v 3.5998 h 3.5997 3.6004 v 3.6003 h -3.6004 -3.5997 -3.6004 v 3.5997 h -3.5998 v -3.5997 -3.6003 h 3.5998 v -3.5998 -3.6003 h -3.5998 v 3.6003 h -3.6003 v -3.6003 -3.5998 -3.5998 -3.6003 h -3.5998 v 3.6003 h -3.5997 v -3.6003 -3.5997 h 3.5997 v -3.6003 -3.5998 h -3.5997 v 3.5998 h -3.6004 -3.5997 -3.6003 v 3.6003 h 3.6003 3.5997 v 3.5997 h -3.5997 v 3.6003 h 3.5997 v 3.5998 h -3.5997 -3.6003 v -3.5998 -3.6003 h -3.5998 v 3.6003 h -3.6003 v -3.6003 h -3.5998 v 3.6003 3.5998 h -3.5998 v -3.5998 -3.6003 -3.5997 h -3.6003 v -3.6003 h 3.6003 3.5998 v 3.6003 h 3.5998 3.6003 v -3.6003 h -3.6003 v -3.5998 h 3.6003 3.5998 v -3.6003 -3.5998 h -3.5998 v 3.5998 h -3.6003 v -3.5998 -3.5998 h 3.6003 v -3.6003 -3.5998 h -3.6003 v 3.5998 h -3.5998 -3.5998 -3.6003 v 3.6003 h 3.6003 3.5998 v 3.5998 h -3.5998 v 3.5998 h 3.5998 v 3.6003 h -3.5998 -3.6003 v -3.6003 -3.5998 h -3.5998 v 3.5998 h -3.6002 v -3.5998 -3.5998 h 3.6002 v -3.6003 -3.5998 z"
       style="fill:#ffffff;fill-opacity:1;stroke-width:0.36" />
    <rect
       style="fill:#ffffff;fill-opacity:1;stroke-width:0.169615"
       id="rect1-2-9-3-9"
       width="94.992767"
       height="284.694"
       x="963.33514"
       y="-2077.2422"
       ry="0"
       rx="0"
       transform="rotate(90)" />
    <path
       style="fill:#ffffff;fill-opacity:1;stroke:#ffffff;stroke-width:5.27;stroke-dasharray:none;stroke-opacity:1;marker-end:url(#DartArrow)"
       d="m 921.08066,1064.224 72.09119,0.1211"
       id="path1"
       inkscape:path-effect="#path-effect1"
       inkscape:original-d="m 921.08066,1064.224 72.09119,0.1211"
       transform="matrix(0,0.32405724,-1,0,2999.2182,768.72151)"
       sodipodi:nodetypes="cc" />
  </g>
</svg>
