<?xml version="1.0" encoding="UTF-8" standalone="no"?>
<!-- Created with Inkscape (http://www.inkscape.org/) -->

<svg
   width="734.71381mm"
   height="539.75391mm"
   viewBox="0 0 734.71381 539.75391"
   version="1.1"
   id="svg1"
   inkscape:version="1.3.2 (091e20e, 2023-11-25, custom)"
   sodipodi:docname="aletas.svg"
   xml:space="preserve"
   xmlns:inkscape="http://www.inkscape.org/namespaces/inkscape"
   xmlns:sodipodi="http://sodipodi.sourceforge.net/DTD/sodipodi-0.dtd"
   xmlns="http://www.w3.org/2000/svg"
   xmlns:svg="http://www.w3.org/2000/svg"><sodipodi:namedview
     id="namedview1"
     pagecolor="#ffffff"
     bordercolor="#000000"
     borderopacity="0.25"
     inkscape:showpageshadow="2"
     inkscape:pageopacity="0.0"
     inkscape:pagecheckerboard="0"
     inkscape:deskcolor="#d1d1d1"
     inkscape:document-units="mm"
     inkscape:zoom="0.056568545"
     inkscape:cx="6797.0636"
     inkscape:cy="2890.2988"
     inkscape:window-width="1366"
     inkscape:window-height="705"
     inkscape:window-x="-8"
     inkscape:window-y="-8"
     inkscape:window-maximized="1"
     inkscape:current-layer="layer1" /><defs
     id="defs1"><marker
       style="overflow:visible"
       id="DartArrow-3"
       refX="0"
       refY="0"
       orient="auto-start-reverse"
       inkscape:stockid="Dart arrow"
       markerWidth="1"
       markerHeight="1"
       viewBox="0 0 1 1"
       inkscape:isstock="true"
       inkscape:collect="always"
       preserveAspectRatio="xMidYMid"><path
         style="fill:context-stroke;fill-rule:evenodd;stroke:none"
         d="M 0,0 5,-5 -12.5,0 5,5 Z"
         transform="scale(-0.5)"
         id="path6-9" /></marker><inkscape:path-effect
       effect="spiro"
       id="path-effect1-4"
       is_visible="true"
       lpeversion="1" /><marker
       style="overflow:visible"
       id="DartArrow-3-4"
       refX="0"
       refY="0"
       orient="auto-start-reverse"
       inkscape:stockid="Dart arrow"
       markerWidth="1"
       markerHeight="1"
       viewBox="0 0 1 1"
       inkscape:isstock="true"
       inkscape:collect="always"
       preserveAspectRatio="xMidYMid"><path
         style="fill:context-stroke;fill-rule:evenodd;stroke:none"
         d="M 0,0 5,-5 -12.5,0 5,5 Z"
         transform="scale(-0.5)"
         id="path6-9-3" /></marker><inkscape:path-effect
       effect="spiro"
       id="path-effect1-4-2"
       is_visible="true"
       lpeversion="1" /></defs><g
     inkscape:label="Capa 1"
     inkscape:groupmode="layer"
     id="layer1"
     transform="translate(-2390.4935,266.84121)"><path
       id="polygon1-9-0-9"
       clip-path="url(#border_clip)"
       style="fill:#ffffff;fill-opacity:1;stroke-width:0.899954"
       d="m 2950.5689,-168.30667 -6.3634,-6.3639 -6.3639,6.3639 -6.3635,-6.3639 -6.3634,6.3639 -6.364,-6.3639 -6.3639,6.3639 6.3639,6.364 -6.3639,6.3634 6.3639,6.3634 -6.3639,6.364 -6.3635,-6.364 -6.3634,6.3635 -5e-4,5e-4 -6.3629,-6.364 6.3629,-6.3634 -6.3629,-6.3634 6.3629,-6.364 -6.3629,-6.3634 v -5e-4 h -5e-4 l -6.363,6.3639 -5e-4,-5e-4 -6.3634,-6.3629 v -5e-4 h -5e-4 l -6.3629,6.3639 -6e-4,-5e-4 -6.3629,-6.3634 -5e-4,5e-4 -6.364,6.3634 6.364,6.364 -6.364,6.3634 6.364,6.3634 -6.364,6.364 -6.3634,-6.364 -6.3634,6.364 -6.364,-6.364 6.364,-6.3634 -6.364,-6.3634 6.364,-6.364 -6.364,-6.3639 -6.3634,6.3639 -6.3635,-6.3639 -6.3639,6.3639 -6.3634,-6.3639 -6.364,6.3639 6.364,6.364 -6.364,6.3634 6.364,6.3634 -6.364,6.364 6.364,6.3634 6.3634,-6.3634 6.3634,6.3634 6.364,-6.3634 6.3634,6.3634 -6.3634,6.3635 6.3634,6.3639 -6.3634,6.3635 -6.364,-6.3635 -6.3634,6.3635 -6.3634,-6.3635 -6.364,6.3635 6.364,6.3634 -6.364,6.3639 6.364,6.363505 -6.364,6.3634 6.364,6.363996 6.3634,-6.363996 6.3639,6.363996 6.3635,-6.363996 6.3634,6.363996 -6.3634,6.3634 6.3634,6.3634 -6.3634,6.364 -6.364,-6.364 -6.3634,6.364 -6.3634,-6.364 -6.364,6.364 6.364,6.3634 -6.364,6.3635 6.364,6.3639 -6.364,6.3635 6.364,6.3644 6.3634,-6.3644 6.3634,6.3644 6.364,-6.3644 6.3634,6.3644 6.364,-6.3644 -6.364,-6.3635 6.364,-6.3639 -6.364,-6.3635 6.364,-6.3634 6.3634,6.3634 6.3634,-6.3634 6.364,6.3634 -6.364,6.3635 6.364,6.3639 -6.364,6.3635 6.364,6.3639 5e-4,5e-4 6.3629,-6.3639 6e-4,-5e-4 6.3629,6.3644 h 5e-4 v -5e-4 l 6.3634,-6.3634 5e-4,-5e-4 6.363,6.3644 h 5e-4 v -5e-4 l 6.3629,-6.3639 -6.3629,-6.3635 6.3629,-6.3639 -6.3629,-6.3635 6.3629,-6.3634 h 5e-4 l 6.3634,6.3634 6.3635,-6.3634 6.3639,6.3634 -6.3639,6.3635 6.3639,6.3639 -6.3639,6.3635 6.3639,6.3644 6.364,-6.3644 6.3634,6.3644 6.3635,-6.3644 6.3639,6.3644 6.3634,-6.3644 -6.3634,-6.3635 6.3634,-6.3639 -6.3634,-6.3635 6.3634,-6.3634 -6.3634,-6.364 -6.3639,6.364 -6.3635,-6.364 -6.3634,6.364 -6.364,-6.364 6.364,-6.3634 -6.364,-6.3634 6.364,-6.363996 6.3634,6.363996 6.3635,-6.363996 6.3639,6.363996 6.3634,-6.363496 -6.3634,-6.3639 6.3634,-6.363505 -6.3634,-6.3639 6.3634,-6.3634 -6.3634,-6.3635 -6.3639,6.3635 -6.3635,-6.3635 -6.3634,6.3635 -6.364,-6.3635 6.364,-6.3639 -6.364,-6.3635 6.364,-6.3634 6.3634,6.3634 6.3635,-6.3634 6.3639,6.3634 6.3634,-6.3634 -6.3634,-6.364 6.3634,-6.3634 -6.3634,-6.3634 z m -31.8182,57.2725 -6.3639,6.3639 6.3639,6.363505 -6.3639,6.3634 -6.3635,-6.3634 -6.3634,6.3634 h -5e-4 l -6.3629,-6.3634 6.3629,-6.363505 -6.3629,-6.3639 6.3629,-6.3634 h 5e-4 l 6.3634,6.3634 6.3635,-6.3634 z m -25.4547,-25.4543 -6.3635,6.3635 6.3635,6.3639 -6.363,6.3635 h -5e-4 l -6.3634,-6.3635 h -5e-4 l -6.3629,6.3635 -6e-4,-6e-4 -6.3629,-6.3629 6.3635,-6.3639 -6.3635,-6.3635 6.3629,-6.3634 h 6e-4 l 6.3634,6.3634 6.3634,-6.3634 h 5e-4 z m 0,50.909101 -6.3635,6.3634 6.3635,6.3634 -6.363,6.364 -5e-4,-5e-4 -6.3634,-6.3629 -5e-4,-6e-4 -6.3629,6.364 -6e-4,-5e-4 -6.3629,-6.3635 6.3635,-6.3634 -6.3635,-6.3634 6.3629,-6.363496 6e-4,-5e-4 6.3629,6.363996 h 5e-4 l 6.3634,-6.363496 z m -25.4543,-25.454801 -6.364,6.3639 6.364,6.363505 -3.1817,3.1817 -3.1823,3.1817 -6.3634,-6.3634 -6.3634,6.3634 -6.364,-6.3634 6.364,-6.363505 -6.364,-6.3639 6.364,-6.3634 6.3634,6.3634 6.3634,-6.3634 z"
       inkscape:export-filename="..\propuestaTesisDefrost\imagenes\fin-design_vertical.svg"
       inkscape:export-xdpi="110"
       inkscape:export-ydpi="110" /><path
       id="polygon1-3-0-9-0"
       clip-path="url(#border_clip)"
       style="fill:#ffffff;fill-opacity:1;stroke-width:0.430412"
       d="m 2950.5689,77.881172 -3.0432,-3.0432 -3.0438,3.0432 -3.0432,-3.0432 -3.0432,3.0432 -3.0443,-3.0432 -3.0432,3.0432 3.0432,3.0437 -3.0432,3.0432 3.0432,3.0443 -3.0432,3.0432 -3.0437,-3.0432 -3.0433,3.0432 -3.0432,-3.0432 3.0432,-3.0443 -3.0432,-3.0432 3.0432,-3.0437 -3.0432,-3.0432 -3.0437,3.0432 -3.0433,-3.0432 -3.0432,3.0432 -3.0442,-3.0432 -3.0433,3.0432 3.0433,3.0437 -3.0433,3.0432 3.0433,3.0443 -3.0433,3.0432 3.0433,3.0433 3.0442,-3.0433 3.0432,3.0433 3.0433,-3.0433 3.0437,3.0433 -3.0437,3.0437 3.0437,3.0432 -3.0437,3.043198 -3.0433,-3.043198 -3.0432,3.043198 -3.0442,-3.043198 -3.0433,3.043198 3.0433,3.0438 -3.0433,3.0432 3.0433,3.0432 -3.0433,3.0443 -3.0432,-3.0443 -3.0437,3.0443 -3.0433,-3.0437 3.0433,-3.0438 -3.0433,-3.0432 3.0433,-3.0438 -3.0433,-3.043198 -3.0432,3.043198 -3.0437,-3.043198 -3.0432,3.043198 -3.0443,-3.043198 3.0443,-3.0432 -3.0443,-3.0437 3.0443,-3.0433 3.0432,3.0433 3.0432,-3.0433 h 5e-4 l 3.0432,3.0433 3.0433,-3.0433 -3.0433,-3.0432 3.0433,-3.0443 -3.0433,-3.0432 3.0433,-3.0437 -3.0433,-3.0432 -3.0432,3.0432 h -5e-4 l -3.0432,-3.0432 -3.0432,3.0432 -3.0443,-3.0432 -3.0432,3.0432 3.0432,3.0437 -3.0432,3.0432 3.0432,3.0438 v 5e-4 l -3.0432,3.0432 -3.0433,-3.0432 -5e-4,-5e-4 -3.0432,3.0437 -3.0432,-3.0432 3.0432,-3.0443 -3.0432,-3.0432 3.0432,-3.0437 -3.0432,-3.0432 -3.0432,3.0432 h -6e-4 l -3.0432,-3.0432 -3.0432,3.0432 -3.0432,-3.0432 h -6e-4 l -3.0437,3.0432 3.0437,3.0437 -3.0437,3.0432 3.0437,3.0438 -3.0437,3.0437 3.0437,3.0433 3.0438,-3.0433 3.0432,3.0433 3.0432,-3.0433 h 6e-4 l 3.0432,3.0433 -3.0432,3.0437 3.0432,3.0432 -3.0432,3.043198 -3.0438,-3.043198 -3.0432,3.043198 -3.0432,-3.043198 h -6e-4 l -3.0437,3.043198 3.0437,3.0438 -3.0437,3.0432 3.0437,3.0438 -3.0437,3.0437 -3.0432,-3.0437 -3.0438,3.0437 -3.0432,-3.0437 3.0432,-3.0438 -3.0432,-3.0432 3.0432,-3.0438 -3.0432,-3.043198 -3.0432,3.043198 -3.0438,-3.043198 -3.0432,3.043198 -3.0437,-3.043198 3.0437,-3.0432 -3.0437,-3.0437 3.0437,-3.0433 3.0432,3.0433 3.0438,-3.0433 3.0432,3.0433 3.0432,-3.0433 -3.0432,-3.0437 3.0432,-3.0438 -3.0432,-3.0432 3.0432,-3.0437 -3.0432,-3.0432 -3.0432,3.0432 -3.0438,-3.0432 -3.0432,3.0432 -3.0437,-3.0432 -3.0438,3.0432 3.0438,3.0437 -3.0438,3.0432 3.0438,3.0438 -3.0438,3.0437 -3.0432,-3.0437 -3.0437,3.0437 -3.0433,-3.0437 3.0433,-3.0438 -3.0433,-3.0432 3.0433,-3.0437 -3.0433,-3.0432 -3.0432,3.0432 -3.0437,-3.0432 -3.0432,3.0432 -3.0433,-3.0432 -3.0442,3.0432 3.0442,3.0437 -3.0442,3.0432 3.0442,3.0438 -3.0442,3.0437 3.0442,3.0433 3.0433,-3.0433 3.0432,3.0433 3.0437,-3.0433 3.0432,3.0433 -3.0432,3.0437 3.0432,3.0432 -3.0432,3.043198 -3.0437,-3.043198 -3.0432,3.043198 -3.0433,-3.043198 -3.0442,3.043198 3.0442,3.0438 -3.0442,3.0432 3.0442,3.0438 -3.0442,3.0437 3.0442,3.0432 3.0433,-3.0432 3.0432,3.0432 3.0437,-3.0432 3.0432,3.0432 3.0433,-3.0432 -3.0433,-3.0437 3.0433,-3.0438 -3.0433,-3.0432 3.0433,-3.0438 3.0437,3.0438 3.0432,-3.0438 3.0438,3.0438 -3.0438,3.0432 3.0438,3.0438 -3.0438,3.0437 3.0438,3.0432 3.0437,-3.0432 3.0432,3.0432 3.0438,-3.0432 3.0432,3.0432 -3.0432,3.0432 3.0432,3.0438 -3.0432,3.0432 -3.0438,-3.0432 -3.0432,3.0432 -3.0437,-3.0432 -3.0438,3.0432 3.0438,3.0432 -3.0438,3.0438 3.0438,3.0432 -3.0438,3.0437 -3.0432,-3.0437 -3.0437,3.0437 -3.0433,-3.0437 3.0433,-3.0432 -3.0433,-3.0438 3.0433,-3.0432 -3.0433,-3.0432 -3.0432,3.0432 -3.0437,-3.0432 -3.0432,3.0432 -3.0433,-3.0432 -3.0442,3.0432 3.0442,3.0432 -3.0442,3.0438 3.0442,3.0432 -3.0442,3.0437 3.0442,3.0438 3.0433,-3.0438 3.0432,3.0438 3.0437,-3.0438 3.0432,3.0438 -3.0432,3.0432 3.0432,3.0438 -3.0432,3.0432 -3.0437,-3.0432 -3.0432,3.0432 -3.0433,-3.0432 -3.0442,3.0432 3.0442,3.0432 -3.0442,3.0437 3.0442,3.0433 -3.0442,3.0432 3.0442,3.0443 3.0433,-3.0443 3.0432,3.0443 3.0437,-3.0443 3.0432,3.0443 3.0433,-3.0443 -3.0433,-3.0432 3.0433,-3.0433 -3.0433,-3.0437 3.0433,-3.0432 3.0437,3.0432 3.0432,-3.0432 3.0438,3.0432 -3.0438,3.0437 3.0438,3.0433 -3.0438,3.0432 3.0438,3.0443 3.0437,-3.0443 3.0432,3.0443 3.0438,-3.0443 3.0432,3.0443 -3.0432,3.0432 3.0432,3.0432 -3.0432,3.0437 -3.0438,-3.0437 -3.0432,3.0437 -3.0437,-3.0437 -3.0438,3.0437 3.0438,3.0433 -3.0438,3.0432 3.0438,3.0437 -3.0438,3.0433 -3.0432,-3.0433 -3.0437,3.0433 -3.0433,-3.0433 3.0433,-3.0437 -3.0433,-3.0432 3.0433,-3.0433 -3.0433,-3.0437 -3.0432,3.0437 -3.0437,-3.0437 -3.0432,3.0437 -3.0433,-3.0437 -3.0442,3.0437 3.0442,3.0433 -3.0442,3.0432 3.0442,3.0437 -3.0442,3.0433 3.0442,3.0442 3.0433,-3.0442 3.0432,3.0442 3.0437,-3.0442 3.0432,3.0442 -3.0432,3.0432 3.0432,3.0433 -3.0432,3.0437 -3.0437,-3.0437 -3.0432,3.0437 -3.0433,-3.0437 -3.0442,3.0437 3.0442,3.0432 -3.0442,3.0433 3.0442,3.0437 -3.0442,3.0432 3.0442,3.0433 3.0433,-3.0433 3.0432,3.0433 3.0437,-3.0433 3.0432,3.0433 3.0433,-3.0433 -3.0433,-3.0432 3.0433,-3.0437 -3.0433,-3.0433 3.0433,-3.0432 3.0437,3.0432 3.0432,-3.0432 3.0438,3.0432 -3.0438,3.0433 3.0438,3.0437 -3.0438,3.0432 3.0438,3.0433 3.0437,-3.0433 3.0432,3.0433 3.0438,-3.0433 3.0432,3.0433 3.0432,-3.0433 -3.0432,-3.0432 3.0432,-3.0437 -3.0432,-3.0433 3.0432,-3.0432 -3.0432,-3.0437 -3.0432,3.0437 -3.0438,-3.0437 -3.0432,3.0437 -3.0437,-3.0437 3.0437,-3.0433 -3.0437,-3.0432 3.0437,-3.0442 3.0432,3.0442 3.0438,-3.0442 3.0432,3.0442 3.0432,-3.0442 -3.0432,-3.0433 3.0432,-3.0437 -3.0432,-3.0432 3.0432,-3.0433 3.0438,3.0433 3.0432,-3.0433 3.0437,3.0433 -3.0437,3.0432 3.0437,3.0437 -3.0437,3.0433 3.0437,3.0437 6e-4,5e-4 3.0432,-3.0442 3.0432,3.0442 3.0432,-3.0437 6e-4,-5e-4 3.0432,3.0442 -3.0432,3.0432 3.0432,3.0433 -3.0432,3.0437 -6e-4,-5e-4 -3.0432,-3.0432 -3.0432,3.0437 -3.0432,-3.0437 h -6e-4 l -3.0437,3.0437 3.0437,3.0432 -3.0437,3.0433 3.0437,3.0437 -3.0432,3.0432 h -5e-4 v 6e-4 l 1.5224,1.5213 1.5219,1.5214 3.0432,-3.0427 3.0432,3.0427 3.0438,-3.0427 3.0432,3.0427 3.0432,-3.0427 v -6e-4 l -3.0432,-3.0432 3.0432,-3.0437 -3.0432,-3.0433 3.0432,-3.0432 3.0437,3.0432 3.0433,-3.0432 3.0432,3.0432 -3.0432,3.0433 3.0432,3.0437 -3.0432,3.0438 3.0432,3.0427 3.0443,-3.0427 3.0432,3.0427 3.0437,-3.0427 3.0432,3.0427 3.0433,-3.0427 v -6e-4 l -3.0433,-3.0432 3.0433,-3.0437 -3.0433,-3.0433 3.0433,-3.0432 -3.0433,-3.0437 -3.0432,3.0437 -5e-4,-5e-4 -3.0432,-3.0432 -3.0432,3.0437 -3.0443,-3.0437 3.0443,-3.0433 -3.0443,-3.0432 3.0443,-3.0442 3.0432,3.0442 3.0432,-3.0437 5e-4,-5e-4 3.0432,3.0442 3.0433,-3.0442 -3.0433,-3.0433 3.0433,-3.0437 -3.0433,-3.0432 3.0433,-3.0433 3.0437,3.0433 3.0432,-3.0433 3.0433,3.0433 -3.0433,3.0432 3.0433,3.0437 -3.0433,3.0433 3.0433,3.0442 3.0442,-3.0442 3.0432,3.0442 3.0433,-3.0442 3.0437,3.0442 -3.0437,3.0432 3.0437,3.0433 -3.0437,3.0437 -3.0433,-3.0437 -3.0432,3.0437 -3.0442,-3.0437 -3.0433,3.0437 3.0433,3.0432 -3.0433,3.0433 3.0433,3.0437 -3.0433,3.0438 3.0433,3.0427 3.0442,-3.0427 3.0432,3.0427 3.0433,-3.0427 3.0437,3.0427 3.0432,-3.0427 -3.0432,-3.0438 3.0432,-3.0437 -3.0432,-3.0433 3.0432,-3.0432 3.0433,3.0432 3.0437,-3.0432 3.0432,3.0432 -3.0432,3.0433 3.0432,3.0437 -3.0432,3.0438 3.0432,3.0427 3.0443,-3.0427 3.0432,3.0427 3.0432,-3.0427 3.0438,3.0427 3.0432,-3.0427 -3.0432,-3.0438 3.0432,-3.0437 -3.0432,-3.0433 3.0432,-3.0432 -3.0432,-3.0437 -3.0438,3.0437 -3.0432,-3.0437 -3.0432,3.0437 -3.0443,-3.0437 3.0443,-3.0433 -3.0443,-3.0432 3.0443,-3.0442 3.0432,3.0442 3.0432,-3.0442 3.0438,3.0442 3.0432,-3.0442 -3.0432,-3.0433 3.0432,-3.0437 -3.0432,-3.0432 3.0432,-3.0433 -3.0432,-3.0437 -3.0438,3.0437 -3.0432,-3.0437 -3.0432,3.0437 -3.0443,-3.0437 -3.0432,3.0437 3.0432,3.0433 -3.0432,3.0432 3.0432,3.0437 -3.0432,3.0433 -3.0437,-3.0433 -3.0433,3.0433 -3.0432,-3.0433 3.0432,-3.0437 -3.0432,-3.0432 3.0432,-3.0433 -3.0432,-3.0437 -3.0437,3.0437 -3.0433,-3.0437 -3.0432,3.0437 -3.0442,-3.0437 3.0442,-3.0432 -3.0442,-3.0432 3.0442,-3.0443 3.0432,3.0443 3.0433,-3.0443 3.0437,3.0443 3.0432,-3.0443 -3.0432,-3.0432 3.0432,-3.0433 -3.0432,-3.0437 3.0432,-3.0432 3.0433,3.0432 3.0437,-3.0432 3.0432,3.0432 -3.0432,3.0437 3.0432,3.0433 -3.0432,3.0432 3.0432,3.0443 3.0443,-3.0443 3.0432,3.0443 3.0432,-3.0443 3.0438,3.0443 3.0432,-3.0443 -3.0432,-3.0432 3.0432,-3.0433 -3.0432,-3.0437 3.0432,-3.0432 -3.0432,-3.0432 -3.0438,3.0432 -3.0432,-3.0432 -3.0432,3.0432 -3.0443,-3.0432 3.0443,-3.0438 -3.0443,-3.0432 3.0443,-3.0438 3.0432,3.0438 3.0432,-3.0438 3.0438,3.0438 3.0432,-3.0438 -3.0432,-3.0437 3.0432,-3.0432 -3.0432,-3.0438 3.0432,-3.0432 -3.0432,-3.0432 -3.0438,3.0432 -3.0432,-3.0432 -3.0432,3.0432 -3.0443,-3.0432 -3.0432,3.0432 3.0432,3.0432 -3.0432,3.0438 3.0432,3.0432 -3.0432,3.0437 -3.0437,-3.0437 -3.0433,3.0437 -3.0432,-3.0437 3.0432,-3.0432 -3.0432,-3.0438 3.0432,-3.0432 -3.0432,-3.0432 -3.0437,3.0432 -3.0433,-3.0432 -3.0432,3.0432 -3.0442,-3.0432 3.0442,-3.0438 -3.0442,-3.0432 3.0442,-3.0432 3.0432,3.0432 3.0433,-3.0432 3.0437,3.0432 3.0432,-3.0432 -3.0432,-3.0443 3.0432,-3.0432 -3.0432,-3.0432 3.0432,-3.0438 3.0433,3.0438 3.0437,-3.0438 3.0432,3.0438 -3.0432,3.0432 3.0432,3.0432 -3.0432,3.0443 3.0432,3.0432 3.0443,-3.0432 3.0432,3.0432 3.0432,-3.0432 3.0438,3.0432 3.0432,-3.0432 -3.0432,-3.0443 3.0432,-3.0432 -3.0432,-3.0432 3.0432,-3.0438 -3.0432,-3.043198 -3.0438,3.043198 -3.0432,-3.043198 -3.0432,3.043198 -3.0443,-3.043198 3.0443,-3.0432 -3.0443,-3.0437 3.0443,-3.0433 3.0432,3.0433 3.0432,-3.0433 3.0438,3.0433 3.0432,-3.0433 -3.0432,-3.0432 3.0432,-3.0443 -3.0432,-3.0432 z m -27.3911,63.913398 -3.0437,3.0432 3.0437,3.0438 -3.0437,3.0432 -3.0433,-3.0432 -3.0432,3.0432 -3.0442,-3.0432 -3.0433,3.0432 3.0433,3.0432 -3.0433,3.0437 3.0433,3.0433 -3.0433,3.0432 -3.0432,-3.0432 -3.0437,3.0432 -3.0433,-3.0432 3.0433,-3.0433 -3.0433,-3.0437 3.0433,-3.0432 -3.0433,-3.0432 -3.0432,3.0432 -3.0437,-3.0432 -3.0432,3.0432 -3.0443,-3.0432 3.0443,-3.0438 -3.0443,-3.0432 3.0443,-3.0438 3.0432,3.0438 3.0432,-3.0432 5e-4,-6e-4 3.0432,3.0438 3.0433,-3.0438 -3.0433,-3.0437 3.0433,-3.0432 -3.0433,-3.0438 3.0433,-3.0432 3.0437,3.0432 3.0432,-3.0432 3.0433,3.0432 -3.0433,3.0438 3.0433,3.0432 -3.0433,3.0437 3.0433,3.0438 3.0442,-3.0438 3.0432,3.0438 3.0433,-3.0438 z m -24.3479,-24.3479 -3.0432,3.0432 3.0432,3.0438 -3.0432,3.0432 -3.0437,-3.0432 -3.0432,3.0432 -3.0443,-3.0432 -3.0432,3.0432 3.0432,3.0432 -3.0432,3.0438 3.0432,3.0432 -3.0432,3.0437 -3.0433,-3.0437 -5e-4,5e-4 -3.0432,3.0432 -3.0432,-3.0437 3.0432,-3.0432 -3.0432,-3.0438 3.0432,-3.0432 -3.0432,-3.0432 -3.0432,3.0432 -3.0438,-3.0432 -3.0432,3.0432 -3.0432,-3.0432 3.0432,-3.0438 -3.0432,-3.0432 3.0432,-3.0432 3.0432,3.0432 3.0432,-3.0432 h 6e-4 l 3.0432,3.0432 3.0432,-3.0432 -3.0432,-3.0437 3.0432,-3.0438 -3.0432,-3.0432 3.0432,-3.0438 3.0432,3.0433 v 5e-4 h 5e-4 l 3.0433,-3.0438 3.0432,3.0438 -3.0432,3.0432 3.0432,3.0438 -3.0432,3.0437 3.0432,3.0432 3.0443,-3.0432 3.0432,3.0432 3.0432,-3.0432 h 5e-4 z m 0,48.6958 -3.0432,3.0432 3.0432,3.0432 -3.0432,3.0437 -5e-4,-5e-4 -3.0432,-3.0432 -3.0432,3.0437 -3.0443,-3.0437 -3.0432,3.0437 3.0432,3.0433 -3.0432,3.0432 3.0432,3.0437 -3.0432,3.0433 -3.0433,-3.0433 h -5e-4 l -3.0432,3.0433 -3.0432,-3.0433 3.0432,-3.0437 -3.0432,-3.0432 3.0432,-3.0433 -3.0432,-3.0437 -3.0432,3.0437 -6e-4,-5e-4 -3.0432,-3.0432 -3.0432,3.0437 -3.0432,-3.0437 3.0432,-3.0432 -3.0432,-3.0432 3.0432,-3.0443 3.0432,3.0443 3.0432,-3.0438 6e-4,-5e-4 3.0432,3.0443 3.0432,-3.0443 -3.0432,-3.0432 3.0432,-3.0433 -3.0432,-3.0437 3.0432,-3.0432 3.0437,3.0432 3.0433,-3.0432 3.0432,3.0432 -3.0432,3.0437 3.0432,3.0433 -3.0432,3.0432 3.0432,3.0443 3.0443,-3.0443 3.0432,3.0443 3.0432,-3.0438 5e-4,-5e-4 z m -24.3478,-24.3479 -3.0432,3.0432 3.0432,3.0438 -3.0432,3.0432 -3.0438,-3.0432 -3.0432,3.0432 -3.0432,-3.0432 h -6e-4 l -3.0437,3.0432 3.0437,3.0432 -3.0437,3.0437 3.0437,3.0433 -3.0437,3.0432 -3.0432,-3.0432 -3.0438,3.0432 -3.0432,-3.0432 3.0432,-3.0433 -3.0432,-3.0437 3.0432,-3.0432 -3.0432,-3.0432 -3.0432,3.0432 -3.0438,-3.0432 -3.0432,3.0432 -3.0437,-3.0432 3.0437,-3.0438 -3.0437,-3.0432 3.0437,-3.0438 3.0432,3.0438 3.0438,-3.0438 3.0432,3.0438 3.0432,-3.0438 -3.0432,-3.0437 3.0432,-3.0432 -3.0432,-3.0438 3.0432,-3.0432 3.0438,3.0432 3.0432,-3.0432 3.0437,3.0432 -3.0437,3.0438 3.0437,3.0432 -3.0437,3.0437 3.0437,3.0438 h 6e-4 l 3.0432,-3.0438 3.0432,3.0438 3.0432,-3.0432 6e-4,-6e-4 z" /><polygon
       clip-path="url(#border_clip)"
       fill="#000000"
       fill-rule="evenodd"
       points="62.5,908.5 68.5,908.5 74.5,908.5 74.5,902.5 68.5,902.5 68.5,896.5 74.5,896.5 80.5,896.5 80.5,902.5 80.5,908.5 86.5,908.5 92.5,908.5 92.5,902.5 86.5,902.5 86.5,896.5 92.5,896.5 98.5,896.5 98.5,902.5 98.5,908.5 98.5,914.5 98.5,920.5 92.5,920.5 92.5,914.5 86.5,914.5 86.5,920.5 86.5,926.5 92.5,926.5 98.5,926.5 98.5,932.5 98.5,938.5 92.5,938.5 92.5,932.5 86.5,932.5 86.5,938.5 86.5,944.5 92.5,944.5 98.5,944.5 98.5,950.5 50.5,950.5 50.5,944.5 56.5,944.5 56.5,938.5 50.5,938.5 50.5,932.5 56.5,932.5 62.5,932.5 62.5,938.5 62.5,944.5 68.5,944.5 68.5,938.5 74.5,938.5 74.5,944.5 80.5,944.5 80.5,938.5 80.5,932.5 74.5,932.5 68.5,932.5 68.5,926.5 68.5,920.5 74.5,920.5 74.5,926.5 80.5,926.5 80.5,920.5 80.5,914.5 74.5,914.5 68.5,914.5 62.5,914.5 56.5,914.5 56.5,920.5 62.5,920.5 62.5,926.5 56.5,926.5 50.5,926.5 50.5,920.5 50.5,914.5 50.5,908.5 56.5,908.5 56.5,902.5 50.5,902.5 50.5,896.5 56.5,896.5 62.5,896.5 62.5,902.5 "
       stroke-width="0"
       id="polygon1-5-7"
       transform="matrix(2.9166667,0,0,2.9166667,2837.9083,-2799.1262)"
       style="fill:#ffffff;fill-opacity:1" /><polygon
       clip-path="url(#border_clip)"
       fill="#000000"
       fill-rule="evenodd"
       points="122.5,896.5 116.5,896.5 110.5,896.5 110.5,902.5 116.5,902.5 116.5,908.5 110.5,908.5 104.5,908.5 104.5,902.5 104.5,896.5 104.5,890.5 104.5,884.5 110.5,884.5 110.5,890.5 116.5,890.5 116.5,884.5 116.5,878.5 110.5,878.5 104.5,878.5 104.5,872.5 110.5,872.5 110.5,866.5 104.5,866.5 104.5,860.5 110.5,860.5 116.5,860.5 116.5,866.5 116.5,872.5 122.5,872.5 128.5,872.5 128.5,866.5 122.5,866.5 122.5,860.5 128.5,860.5 134.5,860.5 134.5,866.5 134.5,872.5 134.5,878.5 134.5,884.5 128.5,884.5 128.5,878.5 122.5,878.5 122.5,884.5 122.5,890.5 128.5,890.5 134.5,890.5 140.5,890.5 140.5,884.5 146.5,884.5 146.5,890.5 152.5,890.5 152.5,884.5 152.5,878.5 146.5,878.5 140.5,878.5 140.5,872.5 140.5,866.5 146.5,866.5 146.5,872.5 152.5,872.5 152.5,866.5 152.5,860.5 146.5,860.5 140.5,860.5 140.5,854.5 140.5,848.5 146.5,848.5 146.5,854.5 152.5,854.5 152.5,848.5 152.5,842.5 146.5,842.5 140.5,842.5 134.5,842.5 128.5,842.5 128.5,848.5 134.5,848.5 134.5,854.5 128.5,854.5 122.5,854.5 122.5,848.5 122.5,842.5 116.5,842.5 110.5,842.5 110.5,848.5 116.5,848.5 116.5,854.5 110.5,854.5 104.5,854.5 104.5,848.5 104.5,842.5 98.5,842.5 92.5,842.5 92.5,848.5 98.5,848.5 98.5,854.5 92.5,854.5 86.5,854.5 86.5,848.5 86.5,842.5 80.5,842.5 80.5,848.5 74.5,848.5 74.5,842.5 68.5,842.5 68.5,848.5 68.5,854.5 74.5,854.5 80.5,854.5 80.5,860.5 80.5,866.5 74.5,866.5 74.5,860.5 68.5,860.5 68.5,866.5 68.5,872.5 74.5,872.5 80.5,872.5 86.5,872.5 92.5,872.5 92.5,866.5 86.5,866.5 86.5,860.5 92.5,860.5 98.5,860.5 98.5,866.5 98.5,872.5 98.5,878.5 92.5,878.5 92.5,884.5 98.5,884.5 98.5,890.5 92.5,890.5 86.5,890.5 86.5,884.5 86.5,878.5 80.5,878.5 74.5,878.5 74.5,884.5 80.5,884.5 80.5,890.5 74.5,890.5 68.5,890.5 68.5,884.5 68.5,878.5 62.5,878.5 56.5,878.5 56.5,884.5 62.5,884.5 62.5,890.5 56.5,890.5 50.5,890.5 50.5,884.5 50.5,878.5 50.5,872.5 50.5,866.5 56.5,866.5 56.5,872.5 62.5,872.5 62.5,866.5 62.5,860.5 56.5,860.5 50.5,860.5 50.5,854.5 50.5,848.5 56.5,848.5 56.5,854.5 62.5,854.5 62.5,848.5 62.5,842.5 56.5,842.5 50.5,842.5 50.5,836.5 56.5,836.5 56.5,830.5 50.5,830.5 50.5,824.5 56.5,824.5 62.5,824.5 62.5,830.5 62.5,836.5 68.5,836.5 68.5,830.5 74.5,830.5 74.5,836.5 80.5,836.5 80.5,830.5 80.5,824.5 74.5,824.5 68.5,824.5 68.5,818.5 68.5,812.5 74.5,812.5 74.5,818.5 80.5,818.5 80.5,812.5 80.5,806.5 74.5,806.5 68.5,806.5 62.5,806.5 56.5,806.5 56.5,812.5 62.5,812.5 62.5,818.5 56.5,818.5 50.5,818.5 50.5,812.5 50.5,806.5 50.5,800.5 56.5,800.5 56.5,794.5 50.5,794.5 50.5,788.5 56.5,788.5 62.5,788.5 62.5,794.5 62.5,800.5 68.5,800.5 74.5,800.5 74.5,794.5 68.5,794.5 68.5,788.5 74.5,788.5 80.5,788.5 80.5,794.5 80.5,800.5 86.5,800.5 92.5,800.5 92.5,794.5 86.5,794.5 86.5,788.5 92.5,788.5 98.5,788.5 98.5,794.5 98.5,800.5 98.5,806.5 98.5,812.5 92.5,812.5 92.5,806.5 86.5,806.5 86.5,812.5 86.5,818.5 92.5,818.5 98.5,818.5 98.5,824.5 98.5,830.5 92.5,830.5 92.5,824.5 86.5,824.5 86.5,830.5 86.5,836.5 92.5,836.5 98.5,836.5 104.5,836.5 110.5,836.5 110.5,830.5 104.5,830.5 104.5,824.5 110.5,824.5 116.5,824.5 116.5,830.5 116.5,836.5 122.5,836.5 122.5,830.5 128.5,830.5 128.5,836.5 134.5,836.5 134.5,830.5 134.5,824.5 128.5,824.5 122.5,824.5 122.5,818.5 122.5,812.5 128.5,812.5 128.5,818.5 134.5,818.5 134.5,812.5 134.5,806.5 128.5,806.5 122.5,806.5 116.5,806.5 110.5,806.5 110.5,812.5 116.5,812.5 116.5,818.5 110.5,818.5 104.5,818.5 104.5,812.5 104.5,806.5 104.5,800.5 110.5,800.5 110.5,794.5 104.5,794.5 104.5,788.5 110.5,788.5 116.5,788.5 116.5,794.5 116.5,800.5 122.5,800.5 128.5,800.5 128.5,794.5 122.5,794.5 122.5,788.5 128.5,788.5 134.5,788.5 134.5,794.5 134.5,800.5 140.5,800.5 146.5,800.5 146.5,794.5 140.5,794.5 140.5,788.5 146.5,788.5 152.5,788.5 152.5,794.5 152.5,800.5 152.5,806.5 152.5,812.5 146.5,812.5 146.5,806.5 140.5,806.5 140.5,812.5 140.5,818.5 146.5,818.5 152.5,818.5 152.5,824.5 152.5,830.5 146.5,830.5 146.5,824.5 140.5,824.5 140.5,830.5 140.5,836.5 146.5,836.5 152.5,836.5 158.5,836.5 164.5,836.5 164.5,830.5 158.5,830.5 158.5,824.5 164.5,824.5 170.5,824.5 170.5,830.5 170.5,836.5 176.5,836.5 176.5,830.5 182.5,830.5 182.5,836.5 188.5,836.5 188.5,830.5 188.5,824.5 182.5,824.5 176.5,824.5 176.5,818.5 176.5,812.5 182.5,812.5 182.5,818.5 188.5,818.5 188.5,812.5 188.5,806.5 182.5,806.5 176.5,806.5 170.5,806.5 164.5,806.5 164.5,812.5 170.5,812.5 170.5,818.5 164.5,818.5 158.5,818.5 158.5,812.5 158.5,806.5 158.5,800.5 164.5,800.5 164.5,794.5 158.5,794.5 158.5,788.5 164.5,788.5 170.5,788.5 170.5,794.5 170.5,800.5 176.5,800.5 182.5,800.5 182.5,794.5 176.5,794.5 176.5,788.5 182.5,788.5 188.5,788.5 188.5,794.5 188.5,800.5 194.5,800.5 200.5,800.5 200.5,794.5 194.5,794.5 194.5,788.5 200.5,788.5 206.5,788.5 206.5,794.5 206.5,800.5 206.5,806.5 206.5,812.5 200.5,812.5 200.5,806.5 194.5,806.5 194.5,812.5 194.5,818.5 200.5,818.5 206.5,818.5 206.5,824.5 206.5,830.5 200.5,830.5 200.5,824.5 194.5,824.5 194.5,830.5 194.5,836.5 200.5,836.5 206.5,836.5 206.5,842.5 206.5,848.5 200.5,848.5 200.5,842.5 194.5,842.5 194.5,848.5 194.5,854.5 200.5,854.5 206.5,854.5 206.5,860.5 200.5,860.5 200.5,866.5 206.5,866.5 206.5,872.5 200.5,872.5 194.5,872.5 194.5,866.5 194.5,860.5 188.5,860.5 182.5,860.5 182.5,866.5 188.5,866.5 188.5,872.5 182.5,872.5 176.5,872.5 176.5,866.5 176.5,860.5 176.5,854.5 176.5,848.5 182.5,848.5 182.5,854.5 188.5,854.5 188.5,848.5 188.5,842.5 182.5,842.5 176.5,842.5 170.5,842.5 170.5,848.5 164.5,848.5 164.5,842.5 158.5,842.5 158.5,848.5 158.5,854.5 164.5,854.5 170.5,854.5 170.5,860.5 170.5,866.5 164.5,866.5 164.5,860.5 158.5,860.5 158.5,866.5 158.5,872.5 164.5,872.5 170.5,872.5 170.5,878.5 170.5,884.5 164.5,884.5 164.5,878.5 158.5,878.5 158.5,884.5 158.5,890.5 164.5,890.5 170.5,890.5 176.5,890.5 182.5,890.5 182.5,884.5 176.5,884.5 176.5,878.5 182.5,878.5 188.5,878.5 188.5,884.5 188.5,890.5 194.5,890.5 200.5,890.5 200.5,884.5 194.5,884.5 194.5,878.5 200.5,878.5 206.5,878.5 206.5,884.5 206.5,890.5 206.5,896.5 206.5,902.5 200.5,902.5 200.5,896.5 194.5,896.5 194.5,902.5 194.5,908.5 200.5,908.5 206.5,908.5 206.5,914.5 200.5,914.5 200.5,920.5 206.5,920.5 206.5,926.5 200.5,926.5 194.5,926.5 194.5,920.5 194.5,914.5 188.5,914.5 182.5,914.5 182.5,920.5 188.5,920.5 188.5,926.5 182.5,926.5 176.5,926.5 176.5,920.5 176.5,914.5 176.5,908.5 176.5,902.5 182.5,902.5 182.5,908.5 188.5,908.5 188.5,902.5 188.5,896.5 182.5,896.5 176.5,896.5 170.5,896.5 170.5,902.5 164.5,902.5 164.5,896.5 158.5,896.5 158.5,902.5 158.5,908.5 164.5,908.5 170.5,908.5 170.5,914.5 170.5,920.5 164.5,920.5 164.5,914.5 158.5,914.5 158.5,920.5 158.5,926.5 164.5,926.5 170.5,926.5 170.5,932.5 170.5,938.5 164.5,938.5 164.5,932.5 158.5,932.5 158.5,938.5 158.5,944.5 164.5,944.5 170.5,944.5 176.5,944.5 182.5,944.5 182.5,938.5 176.5,938.5 176.5,932.5 182.5,932.5 188.5,932.5 188.5,938.5 188.5,944.5 194.5,944.5 200.5,944.5 200.5,938.5 194.5,938.5 194.5,932.5 200.5,932.5 206.5,932.5 206.5,938.5 206.5,944.5 206.5,950.5 50.5,950.5 50.5,944.5 56.5,944.5 56.5,938.5 50.5,938.5 50.5,932.5 56.5,932.5 62.5,932.5 62.5,938.5 62.5,944.5 68.5,944.5 68.5,938.5 74.5,938.5 74.5,944.5 80.5,944.5 80.5,938.5 80.5,932.5 74.5,932.5 68.5,932.5 68.5,926.5 68.5,920.5 74.5,920.5 74.5,926.5 80.5,926.5 80.5,920.5 80.5,914.5 74.5,914.5 68.5,914.5 62.5,914.5 56.5,914.5 56.5,920.5 62.5,920.5 62.5,926.5 56.5,926.5 50.5,926.5 50.5,920.5 50.5,914.5 50.5,908.5 56.5,908.5 56.5,902.5 50.5,902.5 50.5,896.5 56.5,896.5 62.5,896.5 62.5,902.5 62.5,908.5 68.5,908.5 74.5,908.5 74.5,902.5 68.5,902.5 68.5,896.5 74.5,896.5 80.5,896.5 80.5,902.5 80.5,908.5 86.5,908.5 92.5,908.5 92.5,902.5 86.5,902.5 86.5,896.5 92.5,896.5 98.5,896.5 98.5,902.5 98.5,908.5 98.5,914.5 98.5,920.5 92.5,920.5 92.5,914.5 86.5,914.5 86.5,920.5 86.5,926.5 92.5,926.5 98.5,926.5 98.5,932.5 98.5,938.5 92.5,938.5 92.5,932.5 86.5,932.5 86.5,938.5 86.5,944.5 92.5,944.5 98.5,944.5 104.5,944.5 104.5,938.5 110.5,938.5 110.5,944.5 116.5,944.5 116.5,938.5 116.5,932.5 110.5,932.5 104.5,932.5 104.5,926.5 110.5,926.5 110.5,920.5 104.5,920.5 104.5,914.5 110.5,914.5 116.5,914.5 116.5,920.5 116.5,926.5 122.5,926.5 128.5,926.5 128.5,920.5 122.5,920.5 122.5,914.5 128.5,914.5 134.5,914.5 134.5,920.5 134.5,926.5 134.5,932.5 134.5,938.5 128.5,938.5 128.5,932.5 122.5,932.5 122.5,938.5 122.5,944.5 128.5,944.5 134.5,944.5 140.5,944.5 140.5,938.5 146.5,938.5 146.5,944.5 152.5,944.5 152.5,938.5 152.5,932.5 146.5,932.5 140.5,932.5 140.5,926.5 140.5,920.5 146.5,920.5 146.5,926.5 152.5,926.5 152.5,920.5 152.5,914.5 146.5,914.5 140.5,914.5 140.5,908.5 140.5,902.5 146.5,902.5 146.5,908.5 152.5,908.5 152.5,902.5 152.5,896.5 146.5,896.5 140.5,896.5 134.5,896.5 128.5,896.5 128.5,902.5 134.5,902.5 134.5,908.5 128.5,908.5 122.5,908.5 122.5,902.5 "
       stroke-width="0"
       id="polygon1-0-3-1-9-3-5-0"
       transform="matrix(0.8974359,0,0,0.8974359,2939.8794,-642.21841)"
       style="fill:#ffffff;fill-opacity:1" /><polygon
       clip-path="url(#border_clip)"
       fill="#000000"
       fill-rule="evenodd"
       points="335.5,300.5 300.5,300.5 300.5,305.5 300.5,310.5 305.5,310.5 305.5,305.5 310.5,305.5 315.5,305.5 315.5,310.5 310.5,310.5 310.5,315.5 315.5,315.5 315.5,320.5 310.5,320.5 305.5,320.5 305.5,315.5 300.5,315.5 300.5,320.5 300.5,325.5 305.5,325.5 305.5,330.5 300.5,330.5 300.5,335.5 300.5,340.5 305.5,340.5 305.5,335.5 310.5,335.5 310.5,340.5 315.5,340.5 315.5,335.5 315.5,330.5 310.5,330.5 310.5,325.5 315.5,325.5 320.5,325.5 325.5,325.5 325.5,330.5 320.5,330.5 320.5,335.5 320.5,340.5 325.5,340.5 325.5,335.5 330.5,335.5 330.5,340.5 335.5,340.5 335.5,335.5 335.5,330.5 330.5,330.5 330.5,325.5 335.5,325.5 335.5,320.5 335.5,315.5 330.5,315.5 330.5,320.5 325.5,320.5 320.5,320.5 320.5,315.5 325.5,315.5 325.5,310.5 320.5,310.5 320.5,305.5 325.5,305.5 330.5,305.5 330.5,310.5 335.5,310.5 335.5,305.5 "
       stroke-width="0"
       id="polygon1-21-44"
       transform="matrix(-4,0,0,-4,3805.0999,1168.5763)"
       style="fill:#ffffff;fill-opacity:1" /><polygon
       clip-path="url(#border_clip)"
       fill="#000000"
       fill-rule="evenodd"
       points="350.5,360.5 345.5,360.5 345.5,355.5 340.5,355.5 340.5,360.5 340.5,365.5 345.5,365.5 345.5,370.5 340.5,370.5 340.5,375.5 340.5,380.5 345.5,380.5 345.5,375.5 350.5,375.5 350.5,380.5 355.5,380.5 355.5,375.5 355.5,370.5 350.5,370.5 350.5,365.5 355.5,365.5 360.5,365.5 365.5,365.5 365.5,370.5 360.5,370.5 360.5,375.5 360.5,380.5 365.5,380.5 365.5,375.5 370.5,375.5 370.5,380.5 375.5,380.5 375.5,375.5 375.5,370.5 370.5,370.5 370.5,365.5 375.5,365.5 375.5,360.5 375.5,355.5 370.5,355.5 370.5,360.5 365.5,360.5 360.5,360.5 360.5,355.5 365.5,355.5 365.5,350.5 360.5,350.5 360.5,345.5 365.5,345.5 370.5,345.5 370.5,350.5 375.5,350.5 375.5,345.5 375.5,340.5 370.5,340.5 370.5,335.5 375.5,335.5 375.5,330.5 375.5,325.5 370.5,325.5 370.5,330.5 365.5,330.5 365.5,325.5 360.5,325.5 360.5,330.5 360.5,335.5 365.5,335.5 365.5,340.5 360.5,340.5 355.5,340.5 355.5,335.5 350.5,335.5 350.5,340.5 345.5,340.5 340.5,340.5 340.5,335.5 345.5,335.5 345.5,330.5 340.5,330.5 340.5,325.5 345.5,325.5 350.5,325.5 350.5,330.5 355.5,330.5 355.5,325.5 355.5,320.5 355.5,315.5 350.5,315.5 350.5,320.5 345.5,320.5 340.5,320.5 340.5,315.5 345.5,315.5 345.5,310.5 340.5,310.5 340.5,305.5 345.5,305.5 350.5,305.5 350.5,310.5 355.5,310.5 355.5,305.5 360.5,305.5 365.5,305.5 365.5,310.5 360.5,310.5 360.5,315.5 360.5,320.5 365.5,320.5 365.5,315.5 370.5,315.5 370.5,320.5 375.5,320.5 375.5,315.5 375.5,310.5 370.5,310.5 370.5,305.5 375.5,305.5 375.5,300.5 300.5,300.5 300.5,305.5 305.5,305.5 305.5,310.5 300.5,310.5 300.5,315.5 300.5,320.5 305.5,320.5 305.5,315.5 310.5,315.5 310.5,320.5 315.5,320.5 315.5,315.5 315.5,310.5 310.5,310.5 310.5,305.5 315.5,305.5 320.5,305.5 320.5,310.5 325.5,310.5 325.5,305.5 330.5,305.5 335.5,305.5 335.5,310.5 330.5,310.5 330.5,315.5 335.5,315.5 335.5,320.5 330.5,320.5 325.5,320.5 325.5,315.5 320.5,315.5 320.5,320.5 320.5,325.5 320.5,330.5 325.5,330.5 325.5,325.5 330.5,325.5 335.5,325.5 335.5,330.5 330.5,330.5 330.5,335.5 335.5,335.5 335.5,340.5 330.5,340.5 325.5,340.5 325.5,335.5 320.5,335.5 320.5,340.5 315.5,340.5 310.5,340.5 310.5,335.5 315.5,335.5 315.5,330.5 315.5,325.5 310.5,325.5 310.5,330.5 305.5,330.5 305.5,325.5 300.5,325.5 300.5,330.5 300.5,335.5 305.5,335.5 305.5,340.5 300.5,340.5 300.5,345.5 300.5,350.5 305.5,350.5 305.5,345.5 310.5,345.5 315.5,345.5 315.5,350.5 310.5,350.5 310.5,355.5 315.5,355.5 315.5,360.5 310.5,360.5 305.5,360.5 305.5,355.5 300.5,355.5 300.5,360.5 300.5,365.5 305.5,365.5 305.5,370.5 300.5,370.5 300.5,375.5 300.5,380.5 305.5,380.5 305.5,375.5 310.5,375.5 310.5,380.5 315.5,380.5 315.5,375.5 315.5,370.5 310.5,370.5 310.5,365.5 315.5,365.5 320.5,365.5 325.5,365.5 325.5,370.5 320.5,370.5 320.5,375.5 320.5,380.5 325.5,380.5 325.5,375.5 330.5,375.5 330.5,380.5 335.5,380.5 335.5,375.5 335.5,370.5 330.5,370.5 330.5,365.5 335.5,365.5 335.5,360.5 335.5,355.5 330.5,355.5 330.5,360.5 325.5,360.5 320.5,360.5 320.5,355.5 325.5,355.5 325.5,350.5 320.5,350.5 320.5,345.5 325.5,345.5 330.5,345.5 330.5,350.5 335.5,350.5 335.5,345.5 340.5,345.5 340.5,350.5 345.5,350.5 345.5,345.5 350.5,345.5 355.5,345.5 355.5,350.5 350.5,350.5 350.5,355.5 355.5,355.5 355.5,360.5 "
       stroke-width="0"
       id="polygon1-1-5-10"
       transform="matrix(1.8666667,0,0,-1.8666667,1902.1666,766.43559)"
       style="fill:#ffffff;fill-opacity:1" /><rect
       style="fill:#ffffff;fill-opacity:1;stroke-width:0.0998035"
       id="rect1-2-9"
       width="66.880791"
       height="140"
       x="205.50272"
       y="-2950.5703"
       ry="0"
       rx="0"
       transform="rotate(90)" /><rect
       style="fill:#ffffff;fill-opacity:1;stroke-width:0.0998035"
       id="rect1-2-9-39"
       width="66.880791"
       height="140"
       x="-43.475853"
       y="-3125.2073"
       ry="0"
       rx="0"
       transform="rotate(90)" /><rect
       style="fill:#ffffff;fill-opacity:1;stroke-width:0.0998035"
       id="rect1-2-9-39-1"
       width="66.880791"
       height="140"
       x="206.03188"
       y="-3125.2073"
       ry="0"
       rx="0"
       transform="rotate(90)" /><rect
       style="fill:#ffffff;fill-opacity:1;stroke-width:0.0998035"
       id="rect1-2-9-7"
       width="66.880791"
       height="140"
       x="-44.00502"
       y="-2950.5703"
       ry="0"
       rx="0"
       transform="rotate(90)" /><rect
       style="fill:#ffffff;fill-opacity:1;stroke-width:0.0998035"
       id="rect1-2-9-7-5"
       width="66.880791"
       height="140"
       x="-44.00502"
       y="-2775.22"
       ry="0"
       rx="0"
       transform="rotate(90)" /><rect
       style="fill:#ffffff;fill-opacity:1;stroke-width:0.0998035"
       id="rect1-2-9-7-5-1"
       width="66.880791"
       height="140"
       x="205.50272"
       y="-2775.22"
       ry="0"
       rx="0"
       transform="rotate(90)" /><rect
       style="fill:#ffffff;fill-opacity:1;stroke-width:0.0998035"
       id="rect1-2-9-7-5-1-5"
       width="66.880791"
       height="140"
       x="205.50272"
       y="-2603.0999"
       ry="0"
       rx="0"
       transform="rotate(90)" /><rect
       style="fill:#ffffff;fill-opacity:1;stroke-width:0.0998035"
       id="rect1-2-9-7-5-1-5-5"
       width="66.880791"
       height="140"
       x="-44.00502"
       y="-2603.0999"
       ry="0"
       rx="0"
       transform="rotate(90)" /><polygon
       clip-path="url(#border_clip)"
       fill="#000000"
       fill-rule="evenodd"
       points="300.5,400.5 310.5,400.5 320.5,400.5 330.5,400.5 330.5,410.5 320.5,410.5 320.5,420.5 330.5,420.5 340.5,420.5 340.5,410.5 350.5,410.5 360.5,410.5 360.5,420.5 350.5,420.5 350.5,430.5 350.5,440.5 350.5,450.5 340.5,450.5 340.5,440.5 340.5,430.5 330.5,430.5 330.5,440.5 320.5,440.5 320.5,430.5 310.5,430.5 310.5,440.5 310.5,450.5 300.5,450.5 "
       stroke-width="0"
       id="polygon1-35-74"
       transform="matrix(0,-2.8,2.8,0,1513.8173,819.78277)"
       style="fill:#ffffff;fill-opacity:1" /><polygon
       clip-path="url(#border_clip)"
       fill="#000000"
       fill-rule="evenodd"
       points="350.5,490.5 340.5,490.5 340.5,500.5 350.5,500.5 360.5,500.5 370.5,500.5 380.5,500.5 380.5,510.5 370.5,510.5 370.5,520.5 380.5,520.5 380.5,530.5 370.5,530.5 360.5,530.5 360.5,540.5 370.5,540.5 380.5,540.5 390.5,540.5 390.5,550.5 400.5,550.5 400.5,540.5 400.5,530.5 390.5,530.5 390.5,520.5 390.5,510.5 400.5,510.5 400.5,520.5 410.5,520.5 410.5,510.5 410.5,500.5 410.5,490.5 410.5,480.5 420.5,480.5 420.5,490.5 430.5,490.5 430.5,480.5 430.5,470.5 420.5,470.5 420.5,460.5 420.5,450.5 430.5,450.5 430.5,460.5 440.5,460.5 450.5,460.5 460.5,460.5 460.5,470.5 450.5,470.5 440.5,470.5 440.5,480.5 450.5,480.5 450.5,490.5 440.5,490.5 440.5,500.5 450.5,500.5 460.5,500.5 460.5,490.5 460.5,480.5 470.5,480.5 470.5,490.5 480.5,490.5 480.5,480.5 490.5,480.5 490.5,490.5 490.5,500.5 500.5,500.5 500.5,490.5 500.5,480.5 500.5,470.5 510.5,470.5 510.5,460.5 500.5,460.5 490.5,460.5 490.5,470.5 480.5,470.5 470.5,470.5 470.5,460.5 480.5,460.5 480.5,450.5 470.5,450.5 460.5,450.5 460.5,440.5 460.5,430.5 470.5,430.5 470.5,440.5 480.5,440.5 480.5,430.5 480.5,420.5 470.5,420.5 470.5,410.5 470.5,400.5 480.5,400.5 480.5,410.5 490.5,410.5 500.5,410.5 510.5,410.5 510.5,420.5 500.5,420.5 490.5,420.5 490.5,430.5 500.5,430.5 500.5,440.5 490.5,440.5 490.5,450.5 500.5,450.5 510.5,450.5 510.5,440.5 510.5,430.5 520.5,430.5 520.5,440.5 530.5,440.5 530.5,430.5 530.5,420.5 520.5,420.5 520.5,410.5 520.5,400.5 530.5,400.5 530.5,410.5 540.5,410.5 550.5,410.5 560.5,410.5 560.5,420.5 550.5,420.5 540.5,420.5 540.5,430.5 550.5,430.5 550.5,440.5 540.5,440.5 540.5,450.5 550.5,450.5 560.5,450.5 560.5,460.5 560.5,470.5 550.5,470.5 550.5,460.5 540.5,460.5 540.5,470.5 530.5,470.5 530.5,460.5 530.5,450.5 520.5,450.5 520.5,460.5 520.5,470.5 520.5,480.5 510.5,480.5 510.5,490.5 520.5,490.5 530.5,490.5 530.5,480.5 540.5,480.5 550.5,480.5 550.5,490.5 540.5,490.5 540.5,500.5 550.5,500.5 560.5,500.5 560.5,510.5 560.5,520.5 550.5,520.5 550.5,510.5 540.5,510.5 540.5,520.5 540.5,530.5 550.5,530.5 550.5,540.5 550.5,550.5 540.5,550.5 540.5,540.5 530.5,540.5 520.5,540.5 510.5,540.5 510.5,530.5 520.5,530.5 530.5,530.5 530.5,520.5 520.5,520.5 520.5,510.5 530.5,510.5 530.5,500.5 520.5,500.5 510.5,500.5 510.5,510.5 510.5,520.5 500.5,520.5 500.5,510.5 490.5,510.5 490.5,520.5 480.5,520.5 480.5,510.5 480.5,500.5 470.5,500.5 470.5,510.5 470.5,520.5 470.5,530.5 460.5,530.5 460.5,540.5 470.5,540.5 480.5,540.5 480.5,530.5 490.5,530.5 500.5,530.5 500.5,540.5 490.5,540.5 490.5,550.5 500.5,550.5 510.5,550.5 520.5,550.5 530.5,550.5 530.5,560.5 520.5,560.5 520.5,570.5 530.5,570.5 540.5,570.5 540.5,560.5 550.5,560.5 560.5,560.5 560.5,570.5 550.5,570.5 550.5,580.5 550.5,590.5 550.5,600.5 540.5,600.5 540.5,590.5 540.5,580.5 530.5,580.5 530.5,590.5 520.5,590.5 520.5,580.5 510.5,580.5 510.5,590.5 510.5,600.5 520.5,600.5 530.5,600.5 530.5,610.5 520.5,610.5 520.5,620.5 530.5,620.5 540.5,620.5 540.5,610.5 550.5,610.5 560.5,610.5 560.5,620.5 550.5,620.5 550.5,630.5 550.5,640.5 550.5,650.5 540.5,650.5 540.5,640.5 540.5,630.5 530.5,630.5 530.5,640.5 520.5,640.5 520.5,630.5 510.5,630.5 510.5,640.5 510.5,650.5 500.5,650.5 490.5,650.5 490.5,640.5 500.5,640.5 500.5,630.5 490.5,630.5 490.5,620.5 500.5,620.5 510.5,620.5 510.5,610.5 500.5,610.5 490.5,610.5 480.5,610.5 480.5,600.5 470.5,600.5 470.5,610.5 470.5,620.5 480.5,620.5 480.5,630.5 480.5,640.5 470.5,640.5 470.5,630.5 460.5,630.5 460.5,640.5 460.5,650.5 450.5,650.5 440.5,650.5 440.5,640.5 450.5,640.5 450.5,630.5 440.5,630.5 430.5,630.5 430.5,640.5 420.5,640.5 410.5,640.5 410.5,630.5 420.5,630.5 420.5,620.5 420.5,610.5 420.5,600.5 430.5,600.5 430.5,610.5 430.5,620.5 440.5,620.5 440.5,610.5 450.5,610.5 450.5,620.5 460.5,620.5 460.5,610.5 460.5,600.5 460.5,590.5 460.5,580.5 470.5,580.5 470.5,590.5 480.5,590.5 480.5,580.5 490.5,580.5 490.5,590.5 490.5,600.5 500.5,600.5 500.5,590.5 500.5,580.5 500.5,570.5 510.5,570.5 510.5,560.5 500.5,560.5 490.5,560.5 490.5,570.5 480.5,570.5 470.5,570.5 470.5,560.5 480.5,560.5 480.5,550.5 470.5,550.5 460.5,550.5 450.5,550.5 440.5,550.5 440.5,540.5 450.5,540.5 450.5,530.5 440.5,530.5 440.5,520.5 450.5,520.5 460.5,520.5 460.5,510.5 450.5,510.5 440.5,510.5 430.5,510.5 430.5,500.5 420.5,500.5 420.5,510.5 420.5,520.5 430.5,520.5 430.5,530.5 430.5,540.5 420.5,540.5 420.5,530.5 410.5,530.5 410.5,540.5 410.5,550.5 420.5,550.5 430.5,550.5 430.5,560.5 420.5,560.5 420.5,570.5 430.5,570.5 440.5,570.5 440.5,560.5 450.5,560.5 460.5,560.5 460.5,570.5 450.5,570.5 450.5,580.5 450.5,590.5 450.5,600.5 440.5,600.5 440.5,590.5 440.5,580.5 430.5,580.5 430.5,590.5 420.5,590.5 420.5,580.5 410.5,580.5 410.5,590.5 410.5,600.5 410.5,610.5 410.5,620.5 400.5,620.5 400.5,610.5 390.5,610.5 390.5,620.5 390.5,630.5 400.5,630.5 400.5,640.5 400.5,650.5 390.5,650.5 390.5,640.5 380.5,640.5 370.5,640.5 360.5,640.5 360.5,630.5 370.5,630.5 380.5,630.5 380.5,620.5 370.5,620.5 370.5,610.5 380.5,610.5 380.5,600.5 370.5,600.5 360.5,600.5 360.5,590.5 360.5,580.5 370.5,580.5 370.5,590.5 380.5,590.5 380.5,580.5 390.5,580.5 390.5,590.5 390.5,600.5 400.5,600.5 400.5,590.5 400.5,580.5 400.5,570.5 410.5,570.5 410.5,560.5 400.5,560.5 390.5,560.5 390.5,570.5 380.5,570.5 370.5,570.5 370.5,560.5 380.5,560.5 380.5,550.5 370.5,550.5 360.5,550.5 350.5,550.5 340.5,550.5 340.5,540.5 350.5,540.5 350.5,530.5 340.5,530.5 340.5,520.5 350.5,520.5 360.5,520.5 360.5,510.5 350.5,510.5 340.5,510.5 330.5,510.5 330.5,500.5 320.5,500.5 320.5,510.5 320.5,520.5 330.5,520.5 330.5,530.5 330.5,540.5 320.5,540.5 320.5,530.5 310.5,530.5 310.5,540.5 310.5,550.5 320.5,550.5 330.5,550.5 330.5,560.5 320.5,560.5 320.5,570.5 330.5,570.5 340.5,570.5 340.5,560.5 350.5,560.5 360.5,560.5 360.5,570.5 350.5,570.5 350.5,580.5 350.5,590.5 350.5,600.5 340.5,600.5 340.5,590.5 340.5,580.5 330.5,580.5 330.5,590.5 320.5,590.5 320.5,580.5 310.5,580.5 310.5,590.5 310.5,600.5 320.5,600.5 330.5,600.5 330.5,610.5 320.5,610.5 320.5,620.5 330.5,620.5 340.5,620.5 340.5,610.5 350.5,610.5 360.5,610.5 360.5,620.5 350.5,620.5 350.5,630.5 350.5,640.5 350.5,650.5 340.5,650.5 340.5,640.5 340.5,630.5 330.5,630.5 330.5,640.5 320.5,640.5 320.5,630.5 310.5,630.5 310.5,640.5 310.5,650.5 300.5,650.5 300.5,400.5 310.5,400.5 320.5,400.5 330.5,400.5 330.5,410.5 320.5,410.5 320.5,420.5 330.5,420.5 330.5,430.5 320.5,430.5 310.5,430.5 310.5,440.5 320.5,440.5 330.5,440.5 340.5,440.5 340.5,450.5 350.5,450.5 350.5,440.5 350.5,430.5 340.5,430.5 340.5,420.5 340.5,410.5 350.5,410.5 350.5,420.5 360.5,420.5 360.5,410.5 360.5,400.5 370.5,400.5 380.5,400.5 380.5,410.5 370.5,410.5 370.5,420.5 380.5,420.5 380.5,430.5 370.5,430.5 360.5,430.5 360.5,440.5 370.5,440.5 380.5,440.5 390.5,440.5 390.5,450.5 400.5,450.5 400.5,440.5 400.5,430.5 390.5,430.5 390.5,420.5 390.5,410.5 400.5,410.5 400.5,420.5 410.5,420.5 410.5,410.5 410.5,400.5 420.5,400.5 430.5,400.5 430.5,410.5 420.5,410.5 420.5,420.5 430.5,420.5 440.5,420.5 440.5,410.5 450.5,410.5 460.5,410.5 460.5,420.5 450.5,420.5 450.5,430.5 450.5,440.5 450.5,450.5 440.5,450.5 440.5,440.5 440.5,430.5 430.5,430.5 430.5,440.5 420.5,440.5 420.5,430.5 410.5,430.5 410.5,440.5 410.5,450.5 410.5,460.5 410.5,470.5 400.5,470.5 400.5,460.5 390.5,460.5 390.5,470.5 390.5,480.5 400.5,480.5 400.5,490.5 400.5,500.5 390.5,500.5 390.5,490.5 380.5,490.5 370.5,490.5 360.5,490.5 360.5,480.5 370.5,480.5 380.5,480.5 380.5,470.5 370.5,470.5 370.5,460.5 380.5,460.5 380.5,450.5 370.5,450.5 360.5,450.5 360.5,460.5 360.5,470.5 350.5,470.5 350.5,460.5 340.5,460.5 340.5,470.5 330.5,470.5 330.5,460.5 330.5,450.5 320.5,450.5 320.5,460.5 320.5,470.5 320.5,480.5 310.5,480.5 310.5,490.5 320.5,490.5 330.5,490.5 330.5,480.5 340.5,480.5 350.5,480.5 "
       stroke-width="0"
       id="polygon1-29-15"
       transform="matrix(0,-0.56,0.56,0,2410.9373,373.98397)"
       style="fill:#ffffff;fill-opacity:1" /><path
       style="fill:#ffffff;fill-opacity:1;stroke:#ffffff;stroke-width:5.27;stroke-dasharray:none;stroke-opacity:1;marker-end:url(#DartArrow-3)"
       d="m 921.08066,1064.224 72.09119,0.1211"
       id="path1-4"
       inkscape:path-effect="#path-effect1-4"
       inkscape:original-d="m 921.08066,1064.224 72.09119,0.1211"
       transform="matrix(0.32405724,0,0,1,2319.3376,-1305.5325)"
       sodipodi:nodetypes="cc" /><path
       style="fill:#ffffff;fill-opacity:1;stroke:#ffffff;stroke-width:5.27;stroke-dasharray:none;stroke-opacity:1;marker-end:url(#DartArrow-3-4)"
       d="m 921.08066,1064.224 72.09119,0.1211"
       id="path1-4-2"
       inkscape:path-effect="#path-effect1-4-2"
       inkscape:original-d="m 921.08066,1064.224 72.09119,0.1211"
       transform="matrix(0,0.32405724,-1,0,3475.0609,-255.39582)"
       sodipodi:nodetypes="cc" /><text
       xml:space="preserve"
       style="font-size:49.2229px;font-family:Impact;-inkscape-font-specification:Impact;text-align:center;text-anchor:middle;fill:#ffffff;fill-opacity:1;stroke:#ffffff;stroke-width:1;stroke-dasharray:none;stroke-opacity:1"
       x="2532.8955"
       y="-227.42917"
       id="text3"><tspan
         sodipodi:role="line"
         id="tspan3"
         style="fill:#ffffff;fill-opacity:1;stroke-width:1;stroke-dasharray:none"
         x="2532.8955"
         y="-227.42917">Design</tspan></text><text
       xml:space="preserve"
       style="font-size:49.2229px;font-family:Impact;-inkscape-font-specification:Impact;text-align:center;text-anchor:middle;fill:#ffffff;fill-opacity:1;stroke:#ffffff;stroke-width:1;stroke-dasharray:none;stroke-opacity:1"
       x="79.238403"
       y="2429.9055"
       id="text3-6"
       transform="rotate(-90)"><tspan
         sodipodi:role="line"
         id="tspan3-7"
         style="fill:#ffffff;fill-opacity:1;stroke-width:1;stroke-dasharray:none"
         x="79.238403"
         y="2429.9055">+Iterations</tspan></text></g></svg>
