<?xml version="1.0" encoding="UTF-8" standalone="no"?>
<!-- Created with Inkscape (http://www.inkscape.org/) -->

<svg
   width="60.371265mm"
   height="40.366592mm"
   viewBox="0 0 60.371265 40.366592"
   version="1.1"
   id="svg1"
   xml:space="preserve"
   xmlns:inkscape="http://www.inkscape.org/namespaces/inkscape"
   xmlns:sodipodi="http://sodipodi.sourceforge.net/DTD/sodipodi-0.dtd"
   xmlns="http://www.w3.org/2000/svg"
   xmlns:svg="http://www.w3.org/2000/svg"><sodipodi:namedview
     id="namedview1"
     pagecolor="#ffffff"
     bordercolor="#000000"
     borderopacity="0.25"
     inkscape:showpageshadow="2"
     inkscape:pageopacity="0.0"
     inkscape:pagecheckerboard="0"
     inkscape:deskcolor="#d1d1d1"
     inkscape:document-units="mm"
     inkscape:zoom="2.7868023"
     inkscape:cx="601.40614"
     inkscape:cy="253.15754"
     inkscape:window-width="1366"
     inkscape:window-height="705"
     inkscape:window-x="-8"
     inkscape:window-y="-8"
     inkscape:window-maximized="1"
     inkscape:current-layer="layer1"><inkscape:page
       x="0"
       y="0"
       width="60.371265"
       height="40.366592"
       id="page2"
       margin="0"
       bleed="0" /></sodipodi:namedview><defs
     id="defs1" /><g
     inkscape:label="Capa 1"
     inkscape:groupmode="layer"
     id="layer1"
     transform="translate(-233.31382,-137.57418)"><path
       style="fill:#000000"
       d="m 233.31381,157.75747 v -20.1833 h 30.18564 30.18564 v 20.1833 20.1833 h -30.18564 -30.18564 z m 47.49126,17.27577 c 0.10916,-0.0765 0.19848,-0.21485 0.19848,-0.30751 0,-0.36014 -0.31684,-0.44654 -1.63754,-0.44654 h -1.24056 l 1.10415,-1.16683 c 1.6233,-1.71545 1.63999,-1.74177 1.63999,-2.58514 0,-0.63215 -0.0254,-0.73412 -0.26944,-1.08134 -0.16923,-0.24078 -0.45158,-0.47932 -0.75911,-0.64133 -0.4428,-0.23327 -0.55376,-0.25431 -1.15946,-0.21989 -0.71156,0.0404 -1.12546,0.19796 -1.54054,0.58631 -0.30543,0.28576 -0.31205,0.50593 -0.0209,0.69667 0.21443,0.1405 0.23984,0.13675 0.55817,-0.0823 0.67221,-0.46249 1.16263,-0.52979 1.7585,-0.24134 0.65157,0.31542 0.87512,1.05392 0.47679,1.57505 -0.10831,0.1417 -0.76292,0.86046 -1.45468,1.59724 -1.36971,1.45885 -1.74205,1.8898 -1.74205,2.01625 0,0.0453 0.0804,0.16283 0.17862,0.26106 0.16657,0.16658 0.29769,0.17862 1.94487,0.17862 1.45407,0 1.80135,-0.0246 1.96475,-0.13903 z m -24.00361,-1.70582 c 0.73372,-0.14702 1.79529,-0.54173 2.38895,-0.88825 0.30942,-0.18062 0.37955,-0.26979 0.37955,-0.48257 0,-0.44889 -0.24139,-0.48244 -0.96748,-0.13447 -1.21232,0.58099 -1.99366,0.77792 -3.28185,0.82716 -1.7675,0.0676 -3.06756,-0.26076 -4.56831,-1.15374 -0.64644,-0.38464 -1.85605,-1.56968 -2.34218,-2.29458 -2.0654,-3.07988 -1.68109,-7.20403 0.91996,-9.87231 1.61113,-1.65278 3.6532,-2.45242 5.9978,-2.34865 1.23904,0.0548 2.0418,0.2549 3.15031,0.78509 0.59415,0.28418 0.7736,0.33497 0.91539,0.25908 0.17607,-0.0942 0.23214,-0.40058 0.10801,-0.59023 -0.11697,-0.17874 -1.33329,-0.74069 -2.13857,-0.98804 -0.72129,-0.22155 -0.91141,-0.24149 -2.34772,-0.24619 -1.69369,-0.006 -2.01416,0.0488 -3.36783,0.5708 -1.399,0.53951 -2.98802,1.82319 -3.86175,3.1197 -0.52424,0.77791 -1.02232,1.86863 -1.26909,2.77911 -0.174,0.642 -0.20538,0.97266 -0.20343,2.14336 0.002,1.00455 0.0444,1.55215 0.15565,1.99631 1.03207,4.1194 4.77485,6.9343 8.90368,6.69636 0.41751,-0.0241 1.06052,-0.10413 1.42891,-0.17794 z m 13.59072,0.0526 c 3.23037,-0.5653 5.96632,-3.12149 6.82788,-6.37929 0.32181,-1.21684 0.34423,-2.99957 0.0525,-4.17213 -0.77416,-3.11121 -3.00994,-5.46097 -6.06753,-6.37684 -1.02757,-0.3078 -3.01442,-0.39854 -4.04708,-0.18483 -4.14967,0.85878 -7.04795,4.35349 -7.05026,8.50114 -6.4e-4,1.14879 0.11427,1.84657 0.48183,2.9259 0.72389,2.12563 2.34002,3.94581 4.38353,4.93698 1.72213,0.83529 3.51235,1.08275 5.41917,0.74907 z m -3.27581,-0.85505 c -0.69997,-0.148 -1.76492,-0.58146 -2.52903,-1.02939 -0.76422,-0.44799 -2.1265,-1.86041 -2.59526,-2.69077 -1.78831,-3.1678 -1.31092,-6.96699 1.19271,-9.49185 1.56773,-1.58103 3.43092,-2.35922 5.64857,-2.35922 4.334,0 7.81787,3.50219 7.81787,7.85898 0,3.76039 -2.58862,6.95125 -6.27298,7.73235 -0.75221,0.15947 -2.46239,0.14893 -3.26188,-0.0201 z m -22.53384,-0.34409 c 0.15203,-0.33366 -0.105,-0.58086 -0.60395,-0.58086 -1.54391,0 -3.46127,-0.61813 -4.94914,-1.59553 -0.76564,-0.50295 -2.02056,-1.76482 -2.55722,-2.57137 -1.02299,-1.53746 -1.46108,-2.93177 -1.52482,-4.85307 -0.0493,-1.48595 0.10588,-2.46623 0.58668,-3.70622 1.28796,-3.32164 4.51623,-5.71914 7.96069,-5.91206 0.51574,-0.0289 1.02814,-0.0859 1.13866,-0.12677 0.24347,-0.09 0.25411,-0.29183 0.067,-1.26984 -0.17013,-0.8891 -0.17133,-2.2335 -0.003,-3.19549 0.68098,-3.88838 3.74871,-6.94918 7.63201,-7.61476 3.10397,-0.53201 6.16711,0.49887 8.35675,2.8124 0.34383,0.36328 0.7763,0.88897 0.96104,1.16818 0.18474,0.27922 0.42065,0.53457 0.52424,0.56745 0.20093,0.0638 0.19596,0.067 1.1764,-0.76283 2.01938,-1.70914 4.76827,-2.6067 7.56393,-2.46975 3.41123,0.1671 6.44265,1.78639 8.48315,4.53143 1.16576,1.56828 2.14434,4.12784 2.14434,5.60869 0,0.51363 0.17937,0.68946 0.7747,0.75943 1.87263,0.22009 3.82395,1.14164 5.25814,2.48325 2.13013,1.99263 3.19203,4.85691 2.90836,7.84479 -0.18036,1.89975 -0.67322,3.4064 -1.55691,4.75942 -1.3222,2.02441 -3.34482,3.22318 -5.75402,3.41031 -0.99397,0.0772 -1.08426,0.10537 -1.14769,0.35813 -0.0932,0.37139 0.0913,0.48867 0.76878,0.48867 0.7905,0 1.90524,-0.21588 2.79891,-0.54203 3.36237,-1.22711 5.51361,-4.55329 5.74314,-8.87982 0.15139,-2.85363 -0.83762,-5.57173 -2.77154,-7.61706 -1.47438,-1.55931 -3.4028,-2.61982 -5.49006,-3.01917 -0.36951,-0.0707 -0.67624,-0.13785 -0.68162,-0.14921 -0.005,-0.0114 -0.076,-0.42335 -0.15689,-0.91553 -0.82582,-5.02362 -4.89762,-9.02539 -10.00668,-9.83459 -1.09247,-0.17303 -3.33112,-0.12356 -4.30588,0.0951 -1.86301,0.41801 -3.67328,1.26988 -5.017,2.36087 l -0.55166,0.4479 -0.38273,-0.50692 c -1.86895,-2.4754 -4.87547,-3.94783 -8.05912,-3.94692 -2.69394,7.7e-4 -5.0691,0.94729 -6.97954,2.78139 -1.63365,1.56837 -2.61879,3.36604 -3.02864,5.52659 -0.14925,0.78676 -0.17921,2.67939 -0.0544,3.43556 0.0452,0.27392 0.0404,0.46752 -0.0124,0.50082 -0.0474,0.0299 -0.39437,0.079 -0.77116,0.10921 -2.06898,0.16589 -4.37963,1.28696 -6.00289,2.91245 -2.73026,2.73402 -3.67576,6.6839 -2.48102,10.3647 0.63024,1.94168 2.08739,3.91726 3.76025,5.0981 1.6138,1.13914 3.66421,1.83921 5.44709,1.8598 0.6569,0.008 0.69948,-0.004 0.7956,-0.21489 z"
       id="path20160" /></g></svg>
