<?xml version="1.0" encoding="UTF-8" standalone="no"?>
<!-- Created with Inkscape (http://www.inkscape.org/) -->

<svg
   width="479.10281mm"
   height="150.26295mm"
   viewBox="0 0 479.10281 150.26295"
   version="1.1"
   id="svg1"
   inkscape:version="1.3 (0e150ed6c4, 2023-07-21)"
   sodipodi:docname="fractal_no_fractal.svg"
   xmlns:inkscape="http://www.inkscape.org/namespaces/inkscape"
   xmlns:sodipodi="http://sodipodi.sourceforge.net/DTD/sodipodi-0.dtd"
   xmlns="http://www.w3.org/2000/svg"
   xmlns:svg="http://www.w3.org/2000/svg">
  <sodipodi:namedview
     id="namedview1"
     pagecolor="#ffffff"
     bordercolor="#000000"
     borderopacity="0.25"
     inkscape:showpageshadow="2"
     inkscape:pageopacity="0.0"
     inkscape:pagecheckerboard="0"
     inkscape:deskcolor="#d1d1d1"
     inkscape:document-units="mm"
     inkscape:zoom="0.16031672"
     inkscape:cx="-998.02441"
     inkscape:cy="882.62784"
     inkscape:window-width="1366"
     inkscape:window-height="705"
     inkscape:window-x="-8"
     inkscape:window-y="-8"
     inkscape:window-maximized="1"
     inkscape:current-layer="layer1" />
  <defs
     id="defs1">
    <inkscape:path-effect
       effect="spiro"
       id="path-effect4"
       is_visible="true"
       lpeversion="1" />
    <inkscape:path-effect
       effect="spiro"
       id="path-effect4-9"
       is_visible="true"
       lpeversion="1" />
    <clipPath
       clipPathUnits="userSpaceOnUse"
       id="clipPath4">
      <rect
         style="fill:none;fill-opacity:1;stroke:#ef0808;stroke-width:1.49526;stroke-dasharray:8.97154, 2.99052;stroke-dashoffset:0;stroke-opacity:1"
         id="rect4"
         width="27.900982"
         height="27.373314"
         x="22.563566"
         y="-729.78192"
         transform="scale(-1)"
         d="m 22.563566,-729.78192 h 27.900982 v 27.37331 H 22.563566 Z" />
    </clipPath>
    <marker
       style="overflow:visible"
       id="ConcaveTriangle-7"
       refX="0"
       refY="0"
       orient="auto-start-reverse"
       inkscape:stockid="Concave triangle arrow"
       markerWidth="1"
       markerHeight="1"
       viewBox="0 0 1 1"
       inkscape:isstock="true"
       inkscape:collect="always"
       preserveAspectRatio="xMidYMid">
      <path
         transform="scale(0.7)"
         d="M -2,-4 9,0 -2,4 c 2,-2.33 2,-5.66 0,-8 z"
         style="fill:context-stroke;fill-rule:evenodd;stroke:none"
         id="path7-31" />
    </marker>
    <marker
       style="overflow:visible"
       id="ConcaveTriangle-7-1"
       refX="0"
       refY="0"
       orient="auto-start-reverse"
       inkscape:stockid="Concave triangle arrow"
       markerWidth="1"
       markerHeight="1"
       viewBox="0 0 1 1"
       inkscape:isstock="true"
       inkscape:collect="always"
       preserveAspectRatio="xMidYMid">
      <path
         transform="scale(0.7)"
         d="M -2,-4 9,0 -2,4 c 2,-2.33 2,-5.66 0,-8 z"
         style="fill:context-stroke;fill-rule:evenodd;stroke:none"
         id="path7-31-7" />
    </marker>
    <inkscape:path-effect
       effect="spiro"
       id="path-effect4-9-0"
       is_visible="true"
       lpeversion="1" />
    <clipPath
       clipPathUnits="userSpaceOnUse"
       id="clipPath5">
      <rect
         style="fill:none;fill-opacity:1;stroke:#ef0808;stroke-width:0.246162;stroke-dasharray:1.47697, 0.492326;stroke-dashoffset:0;stroke-opacity:1"
         id="rect5"
         width="4.6074252"
         height="4.4926329"
         x="32.53326"
         y="-717.82507"
         transform="scale(-1)"
         d="m 32.53326,-717.82507 h 4.607426 v 4.49263 H 32.53326 Z" />
    </clipPath>
  </defs>
  <g
     inkscape:label="Capa 1"
     inkscape:groupmode="layer"
     id="layer1"
     transform="translate(554.51814,-306.21264)">
    <rect
       style="opacity:0.903047;fill:#ffffff;fill-opacity:1;stroke:none;stroke-width:3.92274;stroke-dasharray:23.5363, 7.84545"
       id="rect6-9"
       width="479.10278"
       height="150.26295"
       x="-554.51813"
       y="306.21265"
       inkscape:export-filename="..\..\..\..\Desktop\reveal.js-master\imagenes\siFractal_.svg"
       inkscape:export-xdpi="96"
       inkscape:export-ydpi="96" />
    <g
       id="g7"
       transform="translate(-27.540502,46.438803)">
      <path
         style="fill:none;fill-opacity:1;stroke:#000000;stroke-width:1.11536;stroke-dasharray:none;stroke-dashoffset:0;stroke-opacity:1;marker-end:url(#ConcaveTriangle-7)"
         d="m -380.51763,349.01923 h 21.16744"
         id="path3-7"
         inkscape:export-filename="siFractal.png"
         inkscape:export-xdpi="120"
         inkscape:export-ydpi="120" />
      <path
         style="fill:none;fill-opacity:1;stroke:#000000;stroke-width:1.10675;stroke-dasharray:none;stroke-dashoffset:0;stroke-opacity:1;marker-end:url(#ConcaveTriangle-7-1)"
         d="m -270.23055,322.85377 h 45.67871"
         id="path3-7-7" />
      <path
         style="fill:#989898;fill-opacity:1;stroke:#000000;stroke-width:1.81425;stroke-dasharray:none;stroke-dashoffset:0;stroke-opacity:1"
         d="m -28.007857,655.85067 c 14.522785,-3.40425 29.5826941,-5.63444 44.345774,-3.50097 15.145067,2.18867 29.35294,8.90742 42.011788,17.50491 5.590487,3.79688 10.952473,7.99684 15.489939,13.00496 4.537467,5.00812 8.241361,10.86414 10.183931,17.33688 2.366349,7.88479 2.040727,16.27987 2.333987,24.50687 0.03332,0.93461 0.07489,1.86914 0.08103,2.80432 0.0017,0.25672 6.43e-4,0.51435 -0.03373,0.76876 -0.03437,0.25441 -0.103154,0.50683 -0.229647,0.73023 -0.117159,0.20691 -0.281246,0.38488 -0.392676,0.59493 -0.05572,0.10503 -0.09802,0.21858 -0.11053,0.33681 -0.01251,0.11823 0.0062,0.24163 0.06558,0.34464 0.05302,0.092 0.136355,0.16441 0.230061,0.21438 0.09371,0.05 0.197619,0.0785 0.30251,0.0951 0.209783,0.0332 0.424977,0.0199 0.634422,0.0552 0.206809,0.0348 0.406732,0.11822 0.569806,0.25009 0.163073,0.13187 0.287921,0.3131 0.341908,0.51575 0.03927,0.14739 0.04101,0.30202 0.03641,0.45448 -0.0046,0.15247 -0.01527,0.30546 6.2e-5,0.45722 0.03779,0.37412 0.241693,0.72872 0.547026,0.94819 0.205771,0.14791 0.452364,0.23445 0.703819,0.2659 0.251455,0.0314 0.507833,0.009 0.754925,-0.0471 0.559844,-0.12745 1.065086,-0.42355 1.604618,-0.61995 0.886118,-0.32257 1.863932,-0.36969 2.787325,-0.17838 0.923393,0.19132 1.792161,0.61621 2.539308,1.19156 1.494293,1.1507 2.473483,2.86597 3.058127,4.65907 0.764438,2.34453 0.907708,4.88211 0.462268,7.30756 -0.44544,2.42544 -1.474303,4.73588 -2.937837,6.72064 -3.314536,4.49497 -8.564864,7.0757 -12.790437,10.72748 -4.271197,3.6912 -7.459232,8.44891 -10.573675,13.15724 -3.114443,4.70832 -6.258957,9.48762 -10.468656,13.24881 -7.176422,6.41183 -16.750273,9.28647 -25.993468,11.96526 -5.578674,1.61677 -11.178997,3.2326 -16.923524,4.09049 -5.744527,0.85788 -11.6737221,0.93969 -17.3022272,-0.494 -5.6285051,-1.4337 -10.952178,-4.46981 -14.5128468,-9.05862 -1.780334,-2.29441 -3.102254,-4.95512 -3.764974,-7.78261 -0.66272,-2.82748 -0.657685,-5.82035 0.104044,-8.62279 1.36107,-5.00744 4.979614,-9.06664 8.7480591,-12.63397 3.7684451,-3.56732 7.8611559,-6.91665 10.6438927,-11.29653 1.5047864,-2.36845 2.5962923,-5.0138 3.0671674,-7.78006 0.4708752,-2.76627 0.3102354,-5.65394 -0.591599,-8.31113 -1.4504885,-4.27376 -4.7412028,-7.7431 -8.5552608,-10.15595 -3.814058,-2.41286 -8.1478637,-3.86898 -12.4870694,-5.11003 -5.455909,-1.56044 -11.036471,-2.83098 -16.176441,-5.23569 -5.139971,-2.4047 -9.908056,-6.11876 -12.292594,-11.26812 -1.636073,-3.53306 -2.046024,-7.65225 -0.963444,-11.39221 1.082579,-3.73996 3.687238,-7.04948 7.152363,-8.82492 3.273107,-1.67705 7.086995,-1.95413 10.498097,-3.32894 1.705551,-0.68741 3.329751,-1.67372 4.496593,-3.09496 0.583422,-0.71062 1.045904,-1.52514 1.318435,-2.40325 0.272531,-0.87812 0.352066,-1.82035 0.190665,-2.72551 -0.215812,-1.2103 -0.856488,-2.32107 -1.703299,-3.21231 -0.846811,-0.89124 -1.893235,-1.57415 -2.99537,-2.11885 -2.20427,-1.0894 -4.639404,-1.64614 -6.853984,-2.71442 -1.25017,-0.60306 -2.440573,-1.38276 -3.324984,-2.45254 -0.884412,-1.06978 -1.439934,-2.45701 -1.316707,-3.83955 0.07955,-0.89256 0.437298,-1.74979 0.964656,-2.47429 0.527358,-0.72449 1.219878,-1.31996 1.982475,-1.79054 1.525194,-0.94116 3.298995,-1.38055 5.043903,-1.78957 z"
         id="path4"
         inkscape:path-effect="#path-effect4"
         inkscape:original-d="m -28.007857,655.85067 c 2.663676,-2.01811 29.5638491,-2.33397 44.345774,-3.50097 14.781924,-1.167 28.007858,11.66995 42.011788,17.50491 14.00393,5.83496 17.115914,20.2279 25.67387,30.34184 8.557955,10.11396 1.55599,16.33791 2.333987,24.50687 0.777997,8.16896 0.05402,1.86954 0.08103,2.80432 0.02701,0.93477 -0.175582,0.99933 -0.263374,1.49899 -0.08779,0.49964 -0.291748,0.85093 -0.437621,1.27638 -0.145875,0.42548 0.777994,0.24313 1.166993,0.3647 0.388998,0.12155 0.607809,0.51057 0.911714,0.76584 0.303906,0.25527 0.02432,0.6078 0.03647,0.9117 0.01215,0.30393 0.364684,0.63214 0.547026,0.94819 0.182343,0.31607 0.972498,0.14589 1.458744,0.21881 0.486248,0.0729 1.069744,-0.41331 1.604618,-0.61995 0.534871,-0.20666 5.589839,3.78148 8.38476,5.67225 2.794918,1.89073 -1.650381,9.35214 -2.475569,14.0282 -0.82519,4.67609 -8.526957,7.15167 -12.790437,10.72748 -4.263477,3.57582 -14.028221,17.60403 -21.042331,26.40605 -7.014109,8.80203 -17.328978,7.97685 -25.993468,11.96526 -8.664487,3.9884 -34.9330181,-14.57836 -52.399528,-21.86753 -17.46651,-7.28916 12.927968,-15.95366 19.3919518,-23.9305 6.4639842,-7.97682 1.650379,-10.72745 2.4755684,-16.09119 0.8251893,-5.36371 -14.0282204,-10.17733 -21.0423302,-15.26598 -7.01411,-5.08868 -18.979357,-11.00254 -28.469035,-16.50381 -9.489678,-5.50124 4.125946,-13.47809 6.188919,-20.21713 2.062974,-6.73904 11.002527,-7.70178 16.50379,-11.55266 5.501262,-3.85088 -7.70177,-5.36374 -11.552653,-8.04558 -3.850884,-2.68187 -3.094461,-4.19473 -4.641691,-6.29209 -1.547228,-2.09735 5.327356,-4.03627 7.991034,-6.0544 z"
         transform="matrix(-0.77677326,0,0,-0.77677326,-426.26446,904.62433)" />
      <rect
         style="fill:none;fill-opacity:1;stroke:#ef0808;stroke-width:2.14525;stroke-dasharray:12.8715, 4.2905;stroke-dashoffset:0;stroke-opacity:1"
         id="rect1-5"
         width="21.672737"
         height="21.262857"
         x="-408.7377"
         y="337.74927" />
      <path
         style="fill:#989898;fill-opacity:1;stroke:#000000;stroke-width:0.298679;stroke-dasharray:none;stroke-dashoffset:0;stroke-opacity:1"
         d="m -28.007857,655.85067 c 14.520333,-3.41677 29.5827235,-5.63796 44.345774,-3.50097 15.14438,2.19219 29.352584,8.90825 42.011788,17.50491 5.590729,3.79657 10.952779,7.99653 15.490204,13.00472 4.537425,5.00819 8.241164,10.86434 10.183666,17.33712 2.366257,7.88481 2.040721,16.27988 2.333987,24.50687 0.03332,0.93461 0.07489,1.86914 0.08103,2.80432 0.0017,0.25672 6.43e-4,0.51435 -0.03373,0.76876 -0.03437,0.25441 -0.103154,0.50683 -0.229647,0.73023 -0.117159,0.20691 -0.281246,0.38488 -0.392676,0.59493 -0.05572,0.10503 -0.09802,0.21858 -0.11053,0.33681 -0.01251,0.11823 0.0062,0.24163 0.06558,0.34464 0.05302,0.092 0.136355,0.16441 0.230061,0.21438 0.09371,0.05 0.197619,0.0785 0.30251,0.0951 0.209783,0.0332 0.424977,0.0199 0.634422,0.0552 0.206809,0.0348 0.406732,0.11822 0.569806,0.25009 0.163073,0.13187 0.287921,0.3131 0.341908,0.51575 0.03927,0.14739 0.04101,0.30202 0.03641,0.45448 -0.0046,0.15247 -0.01527,0.30546 6.2e-5,0.45722 0.03779,0.37412 0.241693,0.72872 0.547026,0.94819 0.205771,0.14791 0.452364,0.23445 0.703819,0.2659 0.251455,0.0314 0.507833,0.009 0.754925,-0.0471 0.559844,-0.12745 1.065086,-0.42355 1.604618,-0.61995 0.886119,-0.32257 1.863935,-0.36969 2.787329,-0.17838 0.923395,0.19131 1.792167,0.6162 2.539316,1.19155 1.494298,1.15069 2.47349,2.86597 3.058115,4.65908 0.764408,2.34453 0.907608,4.8821 0.462158,7.30753 -0.445461,2.42543 -1.474297,4.73585 -2.937727,6.72067 -3.314325,4.49515 -8.564158,7.0765 -12.790437,10.72748 -4.271841,3.69034 -7.462239,8.44618 -10.577663,13.15377 -3.115425,4.70759 -6.259021,9.48668 -10.464668,13.25228 -7.170754,6.42047 -16.738974,9.32018 -25.993468,11.96526 -5.548054,1.58572 -11.123844,3.14942 -16.836909,3.95955 -5.713065,0.81012 -11.6011774,0.84893 -17.188097,-0.5939 -5.5869196,-1.44282 -10.8687174,-4.44866 -14.444761,-8.97716 -1.788022,-2.26425 -3.132919,-4.88857 -3.839892,-7.68572 -0.706973,-2.79715 -0.768106,-5.76604 -0.08987,-8.5703 1.222027,-5.05262 4.707864,-9.24394 8.4452948,-12.85697 3.7374309,-3.61303 7.863974,-6.88791 10.946657,-11.07353 1.7041179,-2.31383 3.0781633,-4.91974 3.6427916,-7.73737 0.5646283,-2.81762 0.2684858,-5.86453 -1.1672232,-8.35382 -1.6427389,-2.84824 -4.6122503,-4.72618 -7.72627181,-5.78162 -3.11402159,-1.05543 -6.41703759,-1.38898 -9.67344339,-1.84385 -3.256405,-0.45487 -6.555426,-1.05757 -9.466302,-2.58658 -1.455439,-0.7645 -2.800082,-1.75976 -3.877761,-3.00128 -1.077679,-1.24152 -1.882438,-2.73516 -2.224162,-4.34326 -0.207699,-0.9774 -0.244908,-1.98776 -0.497596,-2.95451 -0.126345,-0.48337 -0.307765,-0.95604 -0.579173,-1.3755 -0.271409,-0.41947 -0.636342,-0.78487 -1.079292,-1.01597 -0.401858,-0.20966 -0.85696,-0.3038 -1.309897,-0.32102 -0.452938,-0.0172 -0.90563,0.0401 -1.351863,0.11961 -0.494958,0.0882 -0.990043,0.20439 -1.492731,0.19601 -0.251343,-0.004 -0.50358,-0.0401 -0.740464,-0.12426 -0.236884,-0.0841 -0.45829,-0.21768 -0.63018,-0.40111 -0.209894,-0.22398 -0.337428,-0.51033 -0.475899,-0.78428 -0.138471,-0.27395 -0.299567,-0.54991 -0.551521,-0.72524 -0.191522,-0.13328 -0.425862,-0.1991 -0.659146,-0.20391 -0.233283,-0.005 -0.465537,0.0494 -0.680777,0.1395 -0.430481,0.18017 -0.7873,0.49622 -1.138307,0.80375 -0.351006,0.30752 -0.714539,0.61793 -1.151085,0.78286 -0.218273,0.0825 -0.453112,0.12651 -0.685818,0.10941 -0.232705,-0.0171 -0.463112,-0.0974 -0.6448,-0.24383 -0.184596,-0.14875 -0.31338,-0.36169 -0.374338,-0.59079 -0.06096,-0.22909 -0.05591,-0.4734 -6.81e-4,-0.70395 0.110465,-0.46108 0.412657,-0.85467 0.75727,-1.18032 0.344613,-0.32564 0.736679,-0.59708 1.090719,-0.91245 0.35404,-0.31538 0.676861,-0.68732 0.827525,-1.13688 0.12886,-0.3845 0.123047,-0.80672 0.02336,-1.19979 -0.09969,-0.39308 -0.289867,-0.75888 -0.520496,-1.09243 -0.461257,-0.66711 -1.080506,-1.2087 -1.585763,-1.84313 -0.913071,-1.14651 -1.426148,-2.56091 -1.779199,-3.98342 -0.707261,-2.84969 -0.822642,-5.8806 -0.04854,-8.71286 0.774101,-2.83226 2.479242,-5.45004 4.92419,-7.07582 1.515185,-1.00753 3.259798,-1.61304 5.010595,-2.10863 1.750797,-0.4956 3.533508,-0.89323 5.236323,-1.53458 1.702816,-0.64134 3.345458,-1.54866 4.560128,-2.90346 0.607335,-0.6774 1.10056,-1.4623 1.406394,-2.31915 0.305834,-0.85685 0.420979,-1.78647 0.29035,-2.68684 -0.177203,-1.22138 -0.801733,-2.352 -1.644066,-3.25402 -0.842333,-0.90203 -1.894718,-1.58775 -3.004209,-2.12831 -2.218982,-1.08113 -4.674854,-1.60404 -6.904378,-2.66325 -1.254735,-0.59611 -2.447705,-1.37565 -3.331835,-2.4471 -0.884129,-1.07146 -1.436215,-2.46161 -1.309856,-3.84499 0.08148,-0.89208 0.440196,-1.74836 0.967898,-2.47222 0.527702,-0.72385 1.219985,-1.31897 1.98219,-1.78959 1.524412,-0.94123 3.296997,-1.38222 5.040946,-1.79259 z"
         id="path4-3"
         inkscape:path-effect="#path-effect4-9"
         inkscape:original-d="m -28.007857,655.85067 c 2.663676,-2.01811 29.5638491,-2.33397 44.345774,-3.50097 14.781924,-1.167 28.007858,11.66995 42.011788,17.50491 14.00393,5.83496 17.115914,20.2279 25.67387,30.34184 8.557955,10.11396 1.55599,16.33791 2.333987,24.50687 0.777997,8.16896 0.05402,1.86954 0.08103,2.80432 0.02701,0.93477 -0.175582,0.99933 -0.263374,1.49899 -0.08779,0.49964 -0.291748,0.85093 -0.437621,1.27638 -0.145875,0.42548 0.777994,0.24313 1.166993,0.3647 0.388998,0.12155 0.607809,0.51057 0.911714,0.76584 0.303906,0.25527 0.02432,0.6078 0.03647,0.9117 0.01215,0.30393 0.364684,0.63214 0.547026,0.94819 0.182343,0.31607 0.972498,0.14589 1.458744,0.21881 0.486248,0.0729 1.069744,-0.41331 1.604618,-0.61995 0.534871,-0.20666 5.589839,3.78148 8.38476,5.67225 2.794918,1.89073 -1.650381,9.35214 -2.475569,14.0282 -0.82519,4.67609 -8.526957,7.15167 -12.790437,10.72748 -4.263477,3.57582 -14.028221,17.60403 -21.042331,26.40605 -7.014109,8.80203 -17.328978,7.97685 -25.993468,11.96526 -8.664487,3.9884 -34.9330181,-14.57836 -52.399528,-21.86753 -17.46651,-7.28916 12.927968,-15.95366 19.3919518,-23.9305 6.4639842,-7.97682 1.650379,-10.72745 2.4755684,-16.09119 0.8251893,-5.36371 -25.9538302,-12.46794 -32.9679402,-17.55659 -0.876764,-0.63608 -1.539832,-4.77292 -2.156061,-5.34598 -0.616228,-0.57306 -2.220576,0.32848 -2.66176,-0.20141 -0.441184,-0.52989 -2.511745,0.17721 -2.863375,-0.32936 -0.351629,-0.50657 -0.679854,-1.00643 -1.02742,-1.50952 -0.347565,-0.50309 -4.378908,1.04678 -4.959933,1.38778 -7.990724,4.68974 2.896402,-3.96871 2.300495,-4.52439 -0.595907,-0.55568 -1.234589,-3.5236 -2.082903,-4.13535 -0.848313,-0.61174 -0.592989,-3.29576 -1.779199,-3.98342 -9.489678,-5.50124 2.812677,-9.04964 4.87565,-15.78868 2.062974,-6.73904 11.002527,-7.70178 16.50379,-11.55266 5.501262,-3.85088 -7.70177,-5.36374 -11.552653,-8.04558 -3.850884,-2.68187 -3.094461,-4.19473 -4.641691,-6.29209 -1.547228,-2.09735 5.327356,-4.03627 7.991034,-6.0544 z"
         transform="matrix(-4.7038716,0,0,-4.7328277,-445.51623,3723.9)"
         clip-path="url(#clipPath4)"
         sodipodi:nodetypes="sssssssssssssscssssccscssssssscsssss" />
      <rect
         style="fill:none;fill-opacity:1;stroke:#ef0808;stroke-width:2.09053;stroke-dasharray:12.5432, 4.18106;stroke-dashoffset:0;stroke-opacity:1"
         id="rect1-5-2"
         width="21.672737"
         height="21.262857"
         x="-292.4841"
         y="326.5575" />
      <path
         style="fill:#989898;fill-opacity:1;stroke:#000000;stroke-width:0.0495123;stroke-dasharray:none;stroke-dashoffset:0;stroke-opacity:1"
         d="m -28.007857,655.85067 c 14.184766,-4.82271 29.5799688,-6.03812 44.345774,-3.50097 15.062492,2.58812 29.312037,9.00236 42.011788,17.50491 5.617967,3.76126 10.98726,7.96117 15.520051,12.97739 4.532791,5.01621 8.219001,10.8864 10.153819,17.36445 2.355817,7.88761 2.040133,16.28021 2.333987,24.50687 0.03338,0.93461 0.0749,1.86914 0.08103,2.80432 0.0017,0.25672 6.39e-4,0.51435 -0.03373,0.76876 -0.03437,0.25441 -0.103152,0.50683 -0.229644,0.73023 -0.117159,0.20691 -0.281245,0.38488 -0.392675,0.59493 -0.05572,0.10503 -0.09802,0.21858 -0.11053,0.33681 -0.01251,0.11823 0.0062,0.24163 0.06558,0.34464 0.05302,0.092 0.136355,0.16441 0.230061,0.21438 0.09371,0.05 0.197619,0.0785 0.30251,0.0951 0.209783,0.0332 0.424977,0.0199 0.634422,0.0552 0.206809,0.0348 0.406732,0.11822 0.569806,0.25009 0.163073,0.13187 0.287921,0.3131 0.341908,0.51575 0.03927,0.14739 0.04101,0.30202 0.03641,0.45448 -0.0046,0.15247 -0.01527,0.30546 6.2e-5,0.45722 0.03779,0.37412 0.241693,0.72872 0.547026,0.94819 0.205771,0.14791 0.452364,0.23445 0.703819,0.2659 0.251455,0.0314 0.507833,0.009 0.754925,-0.0471 0.559844,-0.12745 1.065086,-0.42355 1.604618,-0.61995 0.886119,-0.32257 1.863935,-0.36969 2.787329,-0.17838 0.923395,0.19131 1.792167,0.6162 2.539316,1.19155 1.494298,1.15069 2.47349,2.86597 3.058115,4.65908 0.764408,2.34453 0.907618,4.8821 0.462158,7.30753 -0.445459,2.42543 -1.474296,4.73585 -2.937727,6.72067 -3.314329,4.49514 -8.564169,7.07649 -12.790437,10.72748 -4.271831,3.69035 -7.462191,8.44623 -10.5776,13.15382 -3.115409,4.7076 -6.259019,9.4867 -10.464731,13.25223 -7.170844,6.42033 -16.739152,9.31964 -25.993468,11.96526 -5.54853,1.58621 -11.1247,3.15073 -16.838256,3.9616 -5.713556,0.81088 -11.6023084,0.85036 -17.1898762,-0.59232 -5.5875677,-1.44268 -10.870018,-4.44898 -14.4458248,-8.97843 -1.787903,-2.26472 -3.132444,-4.88961 -3.838728,-7.68723 -0.706284,-2.79763 -0.766387,-5.76691 -0.08684,-8.57115 1.224214,-5.05191 4.712137,-9.24115 8.4500324,-12.85344 3.7378954,-3.61229 7.863852,-6.88827 10.9419194,-11.07706 1.700894,-2.31467 3.070396,-4.92123 3.6335172,-7.73789 0.5631212,-2.81667 0.2694075,-5.86064 -1.1579488,-8.3533 -1.6308357,-2.84801 -4.5804991,-4.74017 -7.6813326,-5.81517 -3.1008335,-1.07499 -6.3952176,-1.43159 -9.6436546,-1.89896 -3.248437,-0.46738 -6.537814,-1.07128 -9.451405,-2.58183 -1.456796,-0.75527 -2.806536,-1.73645 -3.897727,-2.96201 -1.091192,-1.22556 -1.918323,-2.70122 -2.293821,-4.29862 -0.227288,-0.9669 -0.289203,-1.96861 -0.546751,-2.9279 -0.128774,-0.47964 -0.307472,-0.94909 -0.569953,-1.37069 -0.262482,-0.4216 -0.611732,-0.79485 -1.039357,-1.04739 -0.394717,-0.23311 -0.849051,-0.3587 -1.306691,-0.38527 -0.45764,-0.0266 -0.918472,0.0441 -1.355069,0.18386 -0.527331,0.16877 -1.032431,0.43957 -1.58478,0.47792 -0.276174,0.0192 -0.561962,-0.0239 -0.80282,-0.16035 -0.120429,-0.0682 -0.228423,-0.15938 -0.311825,-0.26985 -0.0834,-0.11047 -0.141811,-0.24044 -0.16395,-0.37708 -0.0067,-0.0415 -0.01023,-0.084 -0.02397,-0.12375 -0.0069,-0.0199 -0.01633,-0.039 -0.02935,-0.0555 -0.01302,-0.0165 -0.02972,-0.0304 -0.04907,-0.0386 -0.03234,-0.0138 -0.06969,-0.011 -0.103277,-6.2e-4 -0.03359,0.0104 -0.06446,0.0278 -0.09599,0.0433 -0.03153,0.0155 -0.06471,0.0295 -0.09977,0.032 -0.01753,0.001 -0.03538,-3.9e-4 -0.05204,-0.006 -0.01666,-0.006 -0.03209,-0.0153 -0.04359,-0.0285 -0.01177,-0.0136 -0.01916,-0.0307 -0.02216,-0.0485 -0.003,-0.0177 -0.0017,-0.036 0.0025,-0.0535 0.0085,-0.035 0.02852,-0.0659 0.0499,-0.0949 0.02138,-0.0289 0.04462,-0.0568 0.06118,-0.0888 0.01655,-0.032 0.02605,-0.0692 0.01766,-0.10416 -0.0045,-0.0187 -0.01384,-0.0359 -0.02519,-0.0513 -0.01135,-0.0155 -0.0247,-0.0294 -0.03803,-0.0431 -0.01333,-0.0138 -0.02674,-0.0276 -0.03821,-0.043 -0.01148,-0.0154 -0.02105,-0.0324 -0.02584,-0.051 -0.0047,-0.0183 -0.0047,-0.0377 -0.0011,-0.0563 0.0035,-0.0186 0.01052,-0.0364 0.01935,-0.0531 0.01767,-0.0335 0.04257,-0.0624 0.06545,-0.0925 0.02287,-0.0301 0.04427,-0.0626 0.05319,-0.0993 0.0045,-0.0184 0.0057,-0.0377 0.0022,-0.0563 -0.0035,-0.0186 -0.01169,-0.0365 -0.02456,-0.0503 -0.01107,-0.0119 -0.02535,-0.0207 -0.04071,-0.026 -0.01536,-0.005 -0.03177,-0.007 -0.04802,-0.007 -0.03251,0.001 -0.06388,0.0119 -0.09382,0.0246 -0.02994,0.0127 -0.05918,0.0274 -0.09036,0.0366 -0.03118,0.009 -0.06508,0.0128 -0.09607,0.003 -0.01887,-0.006 -0.03603,-0.0168 -0.0505,-0.0304 -0.01447,-0.0135 -0.02631,-0.0297 -0.03599,-0.047 -0.01936,-0.0345 -0.03008,-0.0731 -0.04171,-0.111 -0.03595,-0.11705 -0.08265,-0.23188 -0.15164,-0.33304 -0.136933,-0.2008 -0.35802,-0.33733 -0.594883,-0.39181 -0.236862,-0.0545 -0.487946,-0.0305 -0.718582,0.0462 -0.461272,0.15334 -0.828226,0.50221 -1.160835,0.85669 -0.332608,0.35448 -0.656134,0.732 -1.078807,0.97207 -0.211337,0.12003 -0.446354,0.20324 -0.688849,0.21959 -0.242496,0.0164 -0.492699,-0.037 -0.695851,-0.1704 -0.20152,-0.13235 -0.349607,-0.33936 -0.42537,-0.56824 -0.07576,-0.22888 -0.08127,-0.47827 -0.03188,-0.71426 0.09878,-0.47196 0.406916,-0.87555 0.761491,-1.20233 0.354575,-0.32677 0.760701,-0.59242 1.129208,-0.9034 0.368506,-0.31098 0.707442,-0.68115 0.86705,-1.13616 0.134466,-0.38333 0.132087,-0.80691 0.03378,-1.20106 -0.09831,-0.39416 -0.288952,-0.76079 -0.520744,-1.09441 -0.463584,-0.66722 -1.087737,-1.20598 -1.595936,-1.83988 -0.916929,-1.14373 -1.427447,-2.56035 -1.779199,-3.98342 -0.704755,-2.85121 -0.825035,-5.88225 -0.05359,-8.71614 0.771443,-2.8339 2.477863,-5.45488 4.929241,-7.07254 1.523804,-1.00556 3.278849,-1.60163 5.038801,-2.08711 1.759952,-0.48548 3.551547,-0.87259 5.26228,-1.51017 1.710733,-0.63759 3.36089,-1.54897 4.571168,-2.91585 0.605139,-0.68344 1.092887,-1.47616 1.388158,-2.33993 0.29527,-0.86377 0.394553,-1.79936 0.243383,-2.6996 -0.203341,-1.21092 -0.853291,-2.31968 -1.711298,-3.19803 -0.858008,-0.87836 -1.916894,-1.53958 -3.02573,-2.06699 -2.217671,-1.05482 -4.660746,-1.60276 -6.815625,-2.78056 -1.192579,-0.65183 -2.290906,-1.49997 -3.130011,-2.5691 -0.839105,-1.06912 -1.409995,-2.36771 -1.51168,-3.72299 -0.148425,-1.97826 0.765813,-4.00496 2.347041,-5.20298 1.581228,-1.19801 3.779722,-1.52967 5.643993,-0.85142 z"
         id="path4-3-5"
         inkscape:path-effect="#path-effect4-9-0"
         inkscape:original-d="m -28.007857,655.85067 c 2.663676,-2.01811 29.5638491,-2.33397 44.345774,-3.50097 14.781924,-1.167 28.007858,11.66995 42.011788,17.50491 14.00393,5.83496 17.115914,20.2279 25.67387,30.34184 8.557955,10.11396 1.55599,16.33791 2.333987,24.50687 0.777997,8.16896 0.05402,1.86954 0.08103,2.80432 0.02701,0.93477 -0.175582,0.99933 -0.263374,1.49899 -0.08779,0.49964 -0.291748,0.85093 -0.437621,1.27638 -0.145875,0.42548 0.777994,0.24313 1.166993,0.3647 0.388998,0.12155 0.607809,0.51057 0.911714,0.76584 0.303906,0.25527 0.02432,0.6078 0.03647,0.9117 0.01215,0.30393 0.364684,0.63214 0.547026,0.94819 0.182343,0.31607 0.972498,0.14589 1.458744,0.21881 0.486248,0.0729 1.069744,-0.41331 1.604618,-0.61995 0.534871,-0.20666 5.589839,3.78148 8.38476,5.67225 2.794918,1.89073 -1.650381,9.35214 -2.475569,14.0282 -0.82519,4.67609 -8.526957,7.15167 -12.790437,10.72748 -4.263477,3.57582 -14.028221,17.60403 -21.042331,26.40605 -7.014109,8.80203 -17.328978,7.97685 -25.993468,11.96526 -8.664487,3.9884 -34.9330181,-14.57836 -52.399528,-21.86753 -17.46651,-7.28916 12.927968,-15.95366 19.3919518,-23.9305 6.4639842,-7.97682 1.650379,-10.72745 2.4755684,-16.09119 0.8251893,-5.36371 -25.9538302,-12.46794 -32.9679402,-17.55659 -0.876764,-0.63608 -1.539832,-4.77292 -2.156061,-5.34598 -0.616228,-0.57306 -2.220576,0.32848 -2.66176,-0.20141 -0.441184,-0.52989 -2.511746,0.17721 -2.863375,-0.32936 -0.04395,-0.0633 -0.05909,-0.15481 -0.102399,-0.21794 -0.04331,-0.0631 -0.351845,0.10315 -0.394669,0.0402 -0.04282,-0.063 0.151617,-0.32696 0.109105,-0.38982 -0.04251,-0.0629 -0.08491,-0.12569 -0.127271,-0.18848 -0.04236,-0.0628 0.156892,-0.34512 0.114512,-0.40788 -0.04238,-0.0628 -0.326412,0.094 -0.368982,0.0313 -0.04257,-0.0628 -0.08528,-0.12554 -0.128202,-0.18834 -0.04292,-0.0628 -0.108196,-0.27015 -0.15164,-0.33304 -0.347566,-0.50309 -4.356782,1.19129 -4.937807,1.53229 -7.990724,4.68974 2.896402,-3.96871 2.300495,-4.52439 -0.595907,-0.55568 -1.234589,-3.5236 -2.082903,-4.13535 -0.848313,-0.61174 -0.592989,-3.29576 -1.779199,-3.98342 -9.489678,-5.50124 2.812677,-9.04964 4.87565,-15.78868 2.062974,-6.73904 11.002527,-7.70178 16.50379,-11.55266 5.501262,-3.85088 -7.70177,-5.36374 -11.552653,-8.04558 -3.850884,-2.68187 -3.094461,-4.19473 -4.641691,-6.29209 -1.547228,-2.09735 5.327356,-4.03627 7.991034,-6.0544 z"
         transform="matrix(-28.375684,0,0,-28.550359,-1123.6622,20765.74)"
         clip-path="url(#clipPath5)"
         sodipodi:nodetypes="sssssssssssssscssssccscsssssssssssssscssssss" />
    </g>
  </g>
</svg>
